<?xml version="1.0" standalone="no"?>
<!DOCTYPE svg PUBLIC "-//W3C//DTD SVG 1.1//EN" "http://www.w3.org/Graphics/SVG/1.1/DTD/svg11.dtd" >
<svg>
<metadata>
Created by FontForge 20090914 at Wed Aug  2 12:09:21 2017
 By www-data
C Allen &#38; Alok Tuladhar, Unlimited Software (Nepal), December 1993
</metadata>
<defs>
<font id="MercantileNormal" horiz-adv-x="0" >
  <font-face 
    font-family="Mercantile"
    font-weight="400"
    font-stretch="normal"
    units-per-em="2048"
    panose-1="4 11 5 0 0 0 0 0 0 0"
    ascent="1638"
    descent="-410"
    x-height="1434"
    cap-height="1442"
    bbox="-1386 -674 2085 2392"
    underline-thickness="50"
    underline-position="-75"
    unicode-range="U+0001-U+2122"
  />
<missing-glyph horiz-adv-x="1536" 
d="M256 0v1280h1024v-1280h-1024zM1247 33v1214h-958v-1214h958z" />
    <glyph glyph-name=".notdef" unicode="&#x131;" horiz-adv-x="1536" 
d="M256 0v1280h1024v-1280h-1024zM1247 33v1214h-958v-1214h958z" />
    <glyph glyph-name=".notdef" unicode="&#xe01e;" horiz-adv-x="1536" 
d="M256 0v1280h1024v-1280h-1024zM1247 33v1214h-958v-1214h958z" />
    <glyph glyph-name=".notdef" unicode="&#x25ca;" horiz-adv-x="1536" 
d="M256 0v1280h1024v-1280h-1024zM1247 33v1214h-958v-1214h958z" />
    <glyph glyph-name=".notdef" unicode="&#x2260;" horiz-adv-x="1536" 
d="M256 0v1280h1024v-1280h-1024zM1247 33v1214h-958v-1214h958z" />
    <glyph glyph-name=".notdef" unicode="&#x2248;" horiz-adv-x="1536" 
d="M256 0v1280h1024v-1280h-1024zM1247 33v1214h-958v-1214h958z" />
    <glyph glyph-name=".notdef" unicode="&#x222b;" horiz-adv-x="1536" 
d="M256 0v1280h1024v-1280h-1024zM1247 33v1214h-958v-1214h958z" />
    <glyph glyph-name=".notdef" unicode="&#x221e;" horiz-adv-x="1536" 
d="M256 0v1280h1024v-1280h-1024zM1247 33v1214h-958v-1214h958z" />
    <glyph glyph-name=".notdef" unicode="&#x221a;" horiz-adv-x="1536" 
d="M256 0v1280h1024v-1280h-1024zM1247 33v1214h-958v-1214h958z" />
    <glyph glyph-name=".notdef" unicode="&#x2211;" horiz-adv-x="1536" 
d="M256 0v1280h1024v-1280h-1024zM1247 33v1214h-958v-1214h958z" />
    <glyph glyph-name=".notdef" unicode="&#x220f;" horiz-adv-x="1536" 
d="M256 0v1280h1024v-1280h-1024zM1247 33v1214h-958v-1214h958z" />
    <glyph glyph-name=".notdef" unicode="&#x2202;" horiz-adv-x="1536" 
d="M256 0v1280h1024v-1280h-1024zM1247 33v1214h-958v-1214h958z" />
    <glyph glyph-name=".notdef" unicode="&#x2044;" horiz-adv-x="1536" 
d="M256 0v1280h1024v-1280h-1024zM1247 33v1214h-958v-1214h958z" />
    <glyph glyph-name=".notdef" unicode="&#x3c0;" horiz-adv-x="1536" 
d="M256 0v1280h1024v-1280h-1024zM1247 33v1214h-958v-1214h958z" />
    <glyph glyph-name=".notdef" unicode="&#x3a9;" horiz-adv-x="1536" 
d="M256 0v1280h1024v-1280h-1024zM1247 33v1214h-958v-1214h958z" />
    <glyph glyph-name=".notdef" unicode="&#x394;" horiz-adv-x="1536" 
d="M256 0v1280h1024v-1280h-1024zM1247 33v1214h-958v-1214h958z" />
    <glyph glyph-name=".null" 
 />
    <glyph glyph-name=".null" 
 />
    <glyph glyph-name="SOH" 
 />
    <glyph glyph-name="STX" 
 />
    <glyph glyph-name="ETX" 
 />
    <glyph glyph-name="EOT" 
 />
    <glyph glyph-name="ENQ" 
 />
    <glyph glyph-name="ACK" 
 />
    <glyph glyph-name="BEL" 
 />
    <glyph glyph-name="BS" 
 />
    <glyph glyph-name="HT" unicode="&#x9;" 
 />
    <glyph glyph-name="LF" unicode="&#xa;" 
 />
    <glyph glyph-name="VT" 
 />
    <glyph glyph-name="FF" 
 />
    <glyph glyph-name="nonmarkingreturn" unicode="&#xd;" 
 />
    <glyph glyph-name="SO" 
 />
    <glyph glyph-name="SI" 
 />
    <glyph glyph-name="DLE" 
 />
    <glyph glyph-name="DC1" 
 />
    <glyph glyph-name="DC2" 
 />
    <glyph glyph-name="DC3" 
 />
    <glyph glyph-name="DC4" 
 />
    <glyph glyph-name="NAK" 
 />
    <glyph glyph-name="SYN" 
 />
    <glyph glyph-name="ETB" 
 />
    <glyph glyph-name="CAN" 
 />
    <glyph glyph-name="EM" 
 />
    <glyph glyph-name="SUB" 
 />
    <glyph glyph-name="ESC" 
 />
    <glyph glyph-name="FS" 
 />
    <glyph glyph-name="GS" 
 />
    <glyph glyph-name="RS" 
 />
    <glyph glyph-name="US" 
 />
    <glyph glyph-name="space" unicode=" " horiz-adv-x="1536" 
 />
    <glyph glyph-name="exclam" unicode="!" horiz-adv-x="1397" 
d="M938 1296l-937.999 -0.000976562v138h1397v-138h-293v-1296l-166 166v735h-494c8.66699 -2.66699 77.667 -53.667 207 -153c44 -34.667 74.667 -66.334 92 -95.001c12.667 -27.333 19 -58.666 19 -93.999c0 -40.667 -4.66699 -70 -14 -88
c-10 -19.333 -30 -45.333 -60 -78c-8 -10.667 -36.667 -32.334 -86 -65.001c-49.333 -31.333 -83.333 -49.333 -102 -54l104 -251l-61 -23l-121 250c-26 -8 -56 -12 -90 -12c-38.667 0 -68 4.66699 -88 14c-86 36.667 -129 95.334 -129 176.001c0 86 30.667 134.333 92 145
c27.333 4.66699 44.333 7 51 7c14 0 26.333 -2.33301 37 -7c13.333 -4 27 -12.667 41 -26c10.667 -8 18 -14.333 22 -19c15.333 -10.667 29.666 -25 42.999 -43c16.667 -20 25.667 -33.667 27 -41c36.667 0 70 15 100 45c26 26 41 61 45 105
c0 66.667 -19.667 112.334 -59 137.001l-385 244v80h809v241z" />
    <glyph glyph-name="quotedbl" unicode="&#x22;" horiz-adv-x="2" 
d="M-797 -303l-97.999 143.001c48 37.333 121 57.333 219 60c68.667 -15.333 127.334 -50.333 176.001 -105c49.333 -60 74 -127.667 74 -203c0 -84.667 -32 -149.334 -96 -194.001c-70 -48 -153.333 -72 -250 -72c-83.333 11.333 -153 33.333 -209 66
c-58.667 36.667 -124.334 91.334 -197.001 164.001c-92.667 98 -162 209 -208 333h53c61.333 -120 148.666 -222.333 261.999 -307c69.333 -52 122 -86.667 158 -104c42 -20.667 91.667 -31 149 -31c178.667 1.33301 271.667 53.333 279 156c0 35.333 -20 68.666 -60 99.999
c-38 30 -74 46.333 -108 49c-57.333 0 -105.333 -18.333 -144 -55z" />
    <glyph glyph-name="numbersign" unicode="#" horiz-adv-x="1503" 
d="M500 1296c-16.667 -1.33301 -35.332 -8.66895 -55.999 -22.002c-27.333 -22 -46.333 -46 -57 -72c-4 -16 -6 -29 -6 -39c0 -32.667 12.333 -66 37 -100c23.333 -31.333 51.333 -52 84 -62c24.667 0 46.334 1 65.001 3h66h43c12 -2 26.333 -3 43 -3l121 -149
c-74 0 -144.333 -9.66699 -211 -29c-45.333 -13.333 -82.333 -27.666 -111 -42.999c-30 -14.667 -54 -35 -72 -61c-38 -54.667 -57 -105.334 -57 -152.001c0 -30 9.66699 -59.333 29 -88c17.333 -26 44.666 -42.333 81.999 -49c35.333 -8 79.666 -12 132.999 -12
c24.667 2.66699 50 9.33398 76 20.001c22.667 12.667 45 28.334 67 47.001c24.667 19.333 48 35 70 47c64 41.333 131.667 93.333 203 156v608h-535h-14zM1049 484.997c-60.667 -51.333 -121 -93.6689 -181 -127.002l-82 -43c-25.333 -13.333 -49 -23.333 -71 -30
c-26 -8.66699 -53.333 -13 -82 -13c-106.667 2.66699 -194 51.334 -262 146.001c-52 70.667 -78 144.334 -78 221.001c0 16.667 2 40 6 70c12 91.333 53.667 166.333 125 225c-61.333 13.333 -116 44 -164 92c-39.333 44 -63.333 82.333 -72 115
c-2.66699 18.667 -4 39 -4 61c0 30 5.66699 61.333 17 94h-201v138h1503v-138h-291v-1296l-163 193v292z" />
    <glyph glyph-name="dollar" unicode="$" horiz-adv-x="1305" 
d="M0 1296l0.000976562 137.998h1305v-138h-295v-422h-332c-75.333 0 -135.333 -19 -180 -57c-60 -46 -90 -108 -90 -186c0 -91.333 29.333 -155.666 88 -192.999c34 -18.667 79 -28 135 -28c47.333 9.33301 83.333 35.666 108 78.999c-10.667 19.333 -16 40.666 -16 63.999
c0 10.667 3.33301 29 10 55c19.333 45.333 72 68 158 68c88.667 -1.33301 143.334 -45 164.001 -131c4 -23.333 6 -39.666 6 -48.999c-4 -31.333 -13.667 -63.666 -29 -96.999c-20.667 -32.667 -48.667 -55 -84 -67l271 -273l-66 -57l-137 139
c-28.667 -43.333 -62.334 -81.333 -101.001 -114c-44.667 -41.333 -78 -67.333 -100 -78c-24.667 -18 -57.334 -29.667 -98.001 -35c-66 0 -114.667 4.66699 -146 14c-34 8.66699 -64.667 25 -92 49c-56 49.333 -84 111.666 -84 186.999
c-24.667 -5.33301 -51.334 -8 -80.001 -8c-36.667 0 -74 6 -112 18c-82 26 -140 73 -174 141c-24.667 50.667 -37 94.334 -37 131.001c0 20.667 4.66699 43.334 14 68.001c31.333 72.667 86 109.667 164 111l94 -136c-30 0 -58 -10.667 -84 -32c-24.667 -26 -37 -56 -37 -90
c0 -18 3 -35.333 9 -52c14.667 -46 49.334 -74.667 104.001 -86c46.667 0 93 17.333 139 52c31.333 20 57.333 53.333 78 100c-68 72 -113 151 -135 237c-16.667 79.333 -25 126.666 -25 141.999c0 20.667 5 47.334 15 80.001c20 56 54 101 102 135c49.333 34 106 51 170 51
h244v270h-844zM909.001 241.998l-57 57.001c-75.333 0 -135.333 -13.667 -180 -41l-43.5 -22.5l-34.5 -18.5c-26 -13.333 -47.333 -30.333 -64 -51c-17.333 -15.333 -26 -37.333 -26 -66c0 -14.667 4.66699 -33.667 14 -57c14 -27.333 35.333 -41 64 -41
c20 0 40.333 4.66699 61 14c20.667 7.33301 48 21.666 82 42.999l61 35c57.333 38.667 98.333 88 123 148z" />
    <glyph glyph-name="percent" unicode="%" horiz-adv-x="1468" 
d="M1016 1083l0.000976562 213h-1016v138h1468v-138h-315v-219c61.333 -58.667 104.333 -128.334 129 -209.001c15.333 -57.333 23 -115.333 23 -174c0 -122.667 -33 -239.334 -99 -350.001c26 -22 54 -51.333 84 -88c34 -44 57.333 -87 70 -129
c14.667 -58.667 22 -105.667 22 -141c0 -58.667 -13.667 -116.667 -41 -174c-28.667 -67.333 -71.667 -120 -129 -158l-106 125c46.667 62.667 78.667 119.334 96 170.001c26 74.667 39 143.667 39 207c0 36.667 -2.66699 61 -8 73c-6.66699 16.667 -18.334 31 -35.001 43
c-18 15.333 -28.333 24.333 -31 27c-18.667 -28.667 -52 -63.334 -100 -104.001c-49.333 -45.333 -96.333 -79.666 -141 -102.999c-54.667 -30 -106 -53 -154 -69c-40.667 -14 -92 -21 -154 -21c-86 0 -155.333 9 -208 27c-57.333 18.667 -108 52.667 -152 102
c-61.333 74 -92 149 -92 225c0 83.333 32.667 153.666 98 210.999c-44.667 0 -87 11.667 -127 35c-38 23.333 -68.667 52 -92 86c-26 46.667 -39 100 -39 160c6.66699 66.667 38 123.334 94 170.001c53.333 39.333 103.333 59 150 59h201l120 -162h-213
c-57.333 0 -105 -11.333 -143 -34c-61.333 -40 -92 -80.333 -92 -121c0 -36.667 6 -62.667 18 -78c10 -9.33301 30.667 -25.666 62 -48.999c6.66699 -5.33301 27 -8 61 -8c2.66699 0 24.667 1.33301 66 4c35.333 2.66699 53.666 4 54.999 4c42.667 4 98 17.667 166 41
l135 -160c-90 0 -165.667 -13 -227 -39l-41 -14c-10 -4 -21 -9 -33 -15c-15.333 -6.66699 -25 -12 -29 -16c-8 -5.33301 -16.667 -15.666 -26 -30.999c-18 -28.667 -27 -59.334 -27 -92.001c0 -27.333 4.66699 -55.333 14 -84c28.667 -83.333 114.667 -125 258 -125
c30.667 1.33301 58.667 7 84 17c23.333 8 43.333 17.333 60 28c17.333 10 37.666 24.333 60.999 43c27.333 24.667 47.333 42 60 52c69.333 56 128 117.333 176 184c-64 30 -118 68.333 -162 115c-35.333 40.667 -66 78.667 -92 114c-19.333 32.667 -29.666 71 -30.999 115
c0 99.333 34.333 179.333 103 240c52.667 50 113.334 75.667 182.001 77zM901.001 717c0 -52 17.666 -102.667 52.999 -152c36 -47.333 72.333 -71 109 -71c36.667 4 69.334 34.667 98.001 92c27.333 58.667 41 120.667 41 186c-12 110.667 -48.667 172.667 -110 186
c-20.667 0 -45.334 -12.667 -74.001 -38c-30 -26 -56.667 -57.667 -80 -95c-23.333 -35.333 -35.666 -71.333 -36.999 -108z" />
    <glyph glyph-name="ampersand" unicode="&#x26;" horiz-adv-x="1188" 
d="M547 1296h-547v138h1188v-138h-500v-424c6.66699 0 36 -10.667 88 -32c52 -20.667 93.667 -42.667 125 -66c91.333 -66.667 149.333 -139 174 -217c14 -40.667 21 -81 21 -121c0 -40.667 -9.66699 -89.667 -29 -147c-32.667 -94.667 -92.667 -169 -180 -223
c-40 -26 -82.333 -43.333 -127 -52c-40 -9.33301 -92 -14 -156 -14c-96.667 0 -188 26.667 -274 80c-100 62.667 -167 148 -201 256c-20.667 62.667 -31 118.667 -31 168c0 47.333 10.333 94.333 31 141c34 72.667 95.333 130 184 172c14 9.33301 36 15 66 17
c30 4 52.333 12 67 24c37.333 23.333 63.333 44 78 62c15.333 18.667 23 41.667 23 69v307zM528 700c-16 -8 -49.333 -17.333 -100 -28c-57.333 -15.333 -92.666 -28.333 -105.999 -39c-36 -23.333 -66.333 -48 -91 -74c-20 -24.667 -34.333 -55.334 -43 -92.001
c0 -96.667 27.333 -171.667 82 -225c45.333 -44 113.666 -71.333 204.999 -82c83.333 0 156.333 9.33301 219 28c80.667 30 143.667 72.333 189 127c53.333 72.667 80 137.667 80 195c0 54.667 -25.333 111.334 -76 170.001c-56 64 -127.667 96 -215 96
c-36 -22 -84 -47.333 -144 -76z" />
    <glyph glyph-name="quotesingle" unicode="'" horiz-adv-x="2" 
d="M-588 -401l96 -122.999c-47.333 -31.333 -120.333 -47 -219 -47c-68 12 -126 42 -174 90c-47.333 48.667 -71 106.667 -71 174c2.66699 69.333 36 124 100 164c65.333 38 148.666 57 249.999 57c84.667 -10.667 154.334 -30.334 209.001 -59.001
c56 -32 120 -79.333 192 -142c88.667 -80.667 157 -175.334 205 -284.001h-53c-58.667 102 -144.667 190 -258 264c-58.667 39.333 -110.667 69.333 -156 90c-43.333 19.333 -93 29 -149 29c-179.333 0 -273 -43 -281 -129c0 -30 19 -58.667 57 -86
c40 -27.333 76.333 -41.666 109 -42.999c57.333 0 105 15 143 45z" />
    <glyph glyph-name="parenleft" unicode="(" horiz-adv-x="1245" 
d="M760 1296l-760.003 0.00390625v138h1247v-138h-315v-424h-293h-12c-72.667 0 -136.334 -10.667 -191.001 -32c-82 -34.667 -136 -78.334 -162 -131.001c-18.667 -42.667 -28 -82.334 -28 -119.001c0 -22 4 -53.333 12 -94c10.667 -57.333 39.334 -117 86.001 -179
c38 -52.667 75.667 -87.334 113 -104.001c32.667 -13.333 76.334 -20 131.001 -20c-28.667 70.667 -45 130 -49 178c-6 35.333 -9 71.333 -9 108c0 37.333 5.66699 69.333 17 96c28.667 79.333 73 128.666 133 147.999c14.667 5.33301 31.667 8 51 8
c46.667 0 97.334 -17 152.001 -51c48.667 -27.333 93 -77.333 133 -150c26 -47.333 41.667 -97.666 47 -150.999c8 -52 12 -87 12 -105c0 -32.667 -6.66699 -64.667 -20 -96c-20.667 -48 -61.667 -90.333 -123 -127c-52 -32.667 -111.333 -49.667 -178 -51
c-50.667 0 -93.667 6.66699 -129 20c-52 22 -98 44 -138 66c-64 34 -128 91.333 -192 172c-70 87.333 -115.667 168.666 -137 243.999c-18 60 -27.667 117.333 -29 172c0 39.333 2.66699 68 8 86c19.333 76 57 138 113 186c32.667 30 66.667 49.333 102 58
c16.667 2.66699 73.334 10 170.001 22c38.667 5.33301 79 8 121 8c39.333 0 78.333 -2.66699 117 -8v270zM665.997 178.004c69.333 0 126.669 9.66797 172.002 29.001c53.333 17.333 90 43.333 110 78c23.333 31.333 35 73 35 125
c-1.33301 61.333 -25.333 103.666 -72 126.999c-22.667 13.333 -48.334 20 -77.001 20c-18 0 -37.333 -3.33301 -58 -10c-58.667 -12.667 -102.334 -51.667 -131.001 -117c-10.667 -35.333 -16 -83.666 -16 -144.999c2.66699 -32.667 15 -68.334 37 -107.001z" />
    <glyph glyph-name="parenright" unicode=")" horiz-adv-x="924" 
d="M143 1296h-143v138h924v-138h-205v-563c0 -87.333 -11 -149.333 -33 -186c-35.333 -52 -87.333 -81.333 -156 -88c-38 0 -78 14.333 -120 43c-48 31.333 -86.333 60 -115 86c-101.333 100.667 -152 190.667 -152 270v438zM295 815c0 -98 14.334 -154.668 43.001 -170.001
c38 -24.667 73.333 -37 106 -37c24.667 4 46.667 15.667 66 35c23.333 20.667 35.666 38.334 36.999 53.001c16 74 24 143.667 24 209v391h-276v-481z" />
    <glyph glyph-name="asterisk" unicode="*" horiz-adv-x="797" 
d="M68 1196l47.001 143c14.667 -6.66699 35 -14.667 61 -24l78 -31l49 -20l43 -25c-6.66699 56 -11.334 99 -14.001 129c-2.66699 28.667 -4.66699 55.334 -6 80.001v20v21l143 2c0 -26 -0.666992 -55.333 -2 -88c-2.66699 -32.667 -8 -79 -16 -139v-4
c-1.33301 -3.33301 -2 -6.33301 -2 -9c-2 -1.33301 -3 -2.66602 -3 -3.99902v-6l42.5 20.5c14.333 7 28.833 13.167 43.5 18.5l84 35c26 9.33301 48 16.666 66 21.999l47 -141c-6.66699 -4 -14 -6.66699 -22 -8l-27 -8c-14 -4 -29 -7.66699 -45 -11c-18 -4 -35 -8 -51 -12
c-18 -4 -36 -7.33301 -54 -10l-51 -8c10 -8.66699 21.667 -19.667 35 -33l43 -47l4 -4l4 -4c20.667 -24.667 40 -46.667 58 -66c17.333 -20.667 27.333 -32.334 30 -35.001l-121 -84c-12 15.333 -22.833 30.166 -32.5 44.499l-28.5 41.5c-2.66699 6 -5.33398 11 -8.00098 15
l-8 12c-10 14.667 -19.667 30.334 -29 47.001l-31 53c-20 -38 -37.167 -69.333 -51.5 -94l-40.5 -67c-4 -4.66699 -7.33301 -9 -10 -13c-2.66699 -5.33301 -6 -10 -10 -14c-2.66699 -4 -5.66699 -8 -9 -12l-10 -15l-117 88l84 101c24.667 27.333 42.667 46.333 54 57
c9.33301 10.667 18 19.667 26 27v0v0l2 2v0l-41 8l-41 8c-25.333 5.33301 -51.666 11.5 -78.999 18.5l-84 20.5v2z" />
    <glyph glyph-name="plus" unicode="+" horiz-adv-x="1196" 
d="M514 238v401h-401v168h401v401h168v-401h401v-168h-401v-401h-168z" />
    <glyph glyph-name="comma" unicode="," horiz-adv-x="502" 
d="M141 150l109 105.999l108 -111c-2.66699 -16 -4.66699 -30.333 -6 -43c-1.33301 -6.66699 -2.66602 -16.667 -3.99902 -30c-2.66699 -14 -4.66699 -27.667 -6 -41c-16.667 -87.333 -32.334 -151 -47.001 -191c-10.667 -30 -32 -69.667 -64 -119
c-20 -36.667 -51.333 -76.667 -94 -120l-49 49c35.333 34 65.333 75 90 123c24.667 50 37 92.333 37 127c0 17.333 -6.66699 56 -20 116c-7.33301 28.667 -25.333 73.334 -54 134.001z" />
    <glyph glyph-name="hyphen" unicode="-" horiz-adv-x="682" 
d="M66 440v181h550v-181h-550z" />
    <glyph glyph-name="period" unicode="." horiz-adv-x="569" 
d="M182 0v205h205v-205h-205z" />
    <glyph glyph-name="slash" unicode="/" horiz-adv-x="569" 
d="M0 -49l424 1515h145l-424 -1515h-145z" />
    <glyph glyph-name="zero" unicode="0" horiz-adv-x="1389" 
d="M969 1335c86 -48.667 154.331 -118.334 204.998 -209.001c47.333 -91.333 71 -186.666 71 -285.999c0 -120.667 -32.667 -224.667 -98 -312c-49.333 -68 -114.333 -122.333 -195 -163c-77.333 -38.667 -160.666 -58 -249.999 -58c-113.333 0 -217.666 31.333 -312.999 94
c-78 53.333 -138.167 121 -180.5 203s-63.5 170 -63.5 264c0 126 35.667 234 107 324c50.667 69.333 114.667 123.333 192 162c74 38 155.333 57 244 57c97.333 0 191 -25.333 281 -76zM417.998 459c56 -37.333 115.332 -55.998 177.999 -55.998
c80.667 0 158.334 25.333 233.001 76c76.667 49.333 137 111.666 181 186.999c54.667 91.333 82 189.666 82 294.999c0 69.333 -13 129.333 -39 180c-27.333 56 -68.333 98.333 -123 127c-46.667 24.667 -96 37 -148 37c-70.667 0 -139.667 -21.333 -207 -64
c-64 -40.667 -122 -96.667 -174 -168c-77.333 -108 -116 -221.333 -116 -340s44.333 -210 133 -274z" />
    <glyph glyph-name="one" unicode="1" horiz-adv-x="1077" 
d="M573 819c-39.333 -9.33301 -74.668 -14.001 -106.001 -14.001c-52 0 -109.333 11 -172 33c-26 9.33301 -60 31 -102 65c-40 31.333 -73.667 69 -101 113c-61.333 91.333 -92 176 -92 254c0 91.333 33.333 169 100 233c37.333 34 70.333 56.667 99 68
c30 13.333 71 20 123 20c94 0 178.333 -28 253 -84c113.333 -82 170 -185 170 -309v-1112c0 -46.667 3 -83 9 -109c4 -17.333 8.66699 -28.666 14 -33.999c6.66699 -10 13.334 -15.667 20.001 -17c4.66699 -1.33301 15 -5.33301 31 -12v-72c-82 0 -140.667 11.667 -176 35
c-46.667 34 -70 101 -70 201v741zM478.998 1475c-16 5.33301 -33.001 8.00195 -51.001 8.00195c-57.333 0 -111.333 -23.333 -162 -70c-54.667 -48 -86.667 -102.667 -96 -164c-4 -27.333 -6 -45 -6 -53c0 -49.333 10.333 -95 31 -137c22.667 -45.333 49 -82.333 79 -111
c34.667 -26 68.334 -39 101.001 -39c65.333 11.333 112.333 27.666 141 48.999c28.667 22 47.667 46.667 57 74c4.66699 16.667 11.667 59.667 21 129c1.33301 6.66699 2 26 2 58c0 54 -9.66699 107 -29 159c-14.667 49.333 -44 81.666 -88 96.999z" />
    <glyph glyph-name="two" unicode="2" horiz-adv-x="1196" 
d="M252 1313l-108.998 170.003c110.667 62.667 235.667 94 375 94c49.333 0 113.666 -9.66699 192.999 -29c74.667 -20 136 -52.667 184 -98c54.667 -50.667 95.667 -104.667 123 -162c23.333 -61.333 35 -135 35 -221c-4 -57.333 -15 -108 -33 -152
c-19.333 -40.667 -50.666 -88.334 -93.999 -143.001c-54.667 -70.667 -127 -126.667 -217 -168l401 -704l-72 -43l-401 723c-30 -4.66699 -51.333 -7 -64 -7c-39.333 0 -77.333 9 -114 27c-38.667 19.333 -68 36.333 -88 51c-22 16.667 -36.333 41.334 -43 74.001
c-8.66699 35.333 -13 60.666 -13 75.999c0 54.667 19.333 92.667 58 114c20 11.333 39.667 17 59 17c27.333 0 60 -9.66699 98 -29c28.667 -14.667 54.667 -38.667 78 -72c23.333 -31.333 36.333 -55 39 -71c27.333 9.33301 60 25.666 98 48.999c37.333 22 71 48.667 101 80
c46 46 79.333 88.333 100 127c20.667 34 31 77.667 31 131c0 61.333 -12.333 111.666 -37 150.999c-26 41.333 -69.667 77 -131 107c-24.667 13.333 -64.334 20 -119.001 20c-58.667 0 -114 -4.66699 -166 -14c-80.667 -12 -171.334 -44.667 -272.001 -98z" />
    <glyph glyph-name="three" unicode="3" horiz-adv-x="1053" 
d="M221 1397l-78 179.997h303c84.667 0 160 -16.333 226 -49c66.667 -34 119 -84.667 157 -152c32 -61.333 48 -125.333 48 -192c-2 -23.333 -20 -59.666 -54 -108.999c-20 -30 -40.333 -53 -61 -69c48 -42.667 84.667 -90.667 110 -144c40 -86 60 -156.333 60 -211
c0 -70.667 -18.333 -134 -55 -190c-44 -64 -102.333 -105.667 -175 -125l207 -442l-63 -31l-230 450c-32.667 -6.66699 -76.334 -10 -131.001 -10c-94 12.667 -155.333 43.334 -184 92.001c-19.333 38.667 -29 73.667 -29 105c0 42 14.333 76 43 102c30 23.333 63 35 99 35
c13.333 0 35 -4 65 -12c53.333 -14 93.666 -47.667 120.999 -101c30 -6.66699 52.667 -10 68 -10c26 0 56 7.66699 90 23c54.667 24 86.667 64 96 120c0 68.667 -12.333 121.334 -37 158.001c-43.333 68.667 -93.666 103 -150.999 103h-371l-66 180h365
c14.667 0 41.334 6.66699 80.001 20c38 15.333 64 32.333 78 51c20 32 30 73 30 123c-9.33301 70 -73.333 105 -192 105h-369z" />
    <glyph glyph-name="four" unicode="4" horiz-adv-x="1528" 
d="M762 1024l508 515.998l114 -106l-516 -516c12.667 -7.33301 45.667 -39 99 -95c54.667 -57.333 85.334 -96.666 92.001 -117.999c20.667 -59.333 31 -117.666 31 -174.999c-6 -74.667 -32.667 -132.667 -80 -174c-46.667 -39.333 -99.334 -62.333 -158.001 -69
c-91.333 0 -161 17 -209 51c-56 39.333 -94.333 103.333 -115 192c-8 26 -12 57.667 -12 95c0 54.667 14.333 114 43 178c8 17.333 29.333 45.333 64 84c32.667 38 59 63.333 79 76l-559 559l60 55zM672 701.998c-27.333 -48.667 -40.999 -93.666 -40.999 -134.999
c0 -52 19 -88.667 57 -110c19.333 -12.667 42.666 -19 69.999 -19c35.333 0 71.333 12.333 108 37c34.667 22 56 50 64 84c2.66699 35.333 4 54.333 4 57c0 46.667 -9.66699 89 -29 127c-16 37.333 -35.667 66.666 -59 87.999c-23.333 23.333 -37 35 -41 35
c-1.33301 0 -22 -25 -62 -75c-38 -44 -61.667 -73.667 -71 -89z" />
    <glyph glyph-name="five" unicode="5" horiz-adv-x="1284" 
d="M711 1464l165.999 -86c-11.333 -102 -31.333 -214.667 -60 -338c-20.667 -86 -49.334 -183.333 -86.001 -292c-22 -63.333 -62.333 -157.666 -121 -282.999c64.667 -50.667 136.334 -110.667 215.001 -180c136.667 -127.333 242 -232.666 316 -315.999l-137 -112
c-89.333 148.667 -173.333 265.334 -252 350.001c-113.333 118.667 -175.666 182.667 -186.999 192c-17.333 -44.667 -41 -80 -71 -106c-34.667 -31.333 -61.334 -53.333 -80.001 -66c-18 -13.333 -44 -20 -78 -20c-72.667 2.66699 -122 36 -148 100
c-9.33301 23.333 -14 44.666 -14 63.999c0 27.333 11.667 63.333 35 108c31.333 60 73.666 95.667 126.999 107c60 0 105.667 -9 137 -27c26 64 42.333 107.667 49 131c22 74 34.333 119 37 135c-22 -5.33301 -46 -8 -72 -8c-27.333 0 -66 7.66699 -116 23
c-68.667 24.667 -124.667 71.667 -168 141c-40 64 -60 135.667 -60 215v381l138 -86v-410c0 -84.667 30.667 -138.334 92 -161.001c18.667 -3.33301 31 -5 37 -5c22.667 0 51.334 6.33301 86.001 19c48.667 19.333 86.667 46.666 114 81.999
c42.667 84.667 69.334 166 80.001 244c14 80 21 148 21 204z" />
    <glyph glyph-name="six" unicode="6" horiz-adv-x="1118" 
d="M711 1436l-322.002 -0.00390625c-87.333 0 -144.666 -7.66699 -171.999 -23c-62.667 -39.333 -94 -92 -94 -158c4 -30 15 -51 33 -63c13.333 -8 48 -25 104 -51c53.333 -20.667 110 -31 170 -31h195l75 -152h-184c-50.667 -10.667 -91 -33 -121 -67
c-35.333 -40 -53 -98.667 -53 -176c5.33301 -61.333 39.333 -110.666 102 -147.999c37.333 -18.667 86 -28 146 -28c5.33301 66.667 40 112.334 104 137.001c20.667 8 43.334 12 68.001 12s50 -5.33301 76 -16c53.333 -28.667 80 -71 80 -127
c0 -42.667 -24 -85.667 -72 -129c-44 -40 -91 -64 -141 -72l268 -438l-72 -49l-283 481c-62.667 6.66699 -126.667 28.334 -192 65.001c-88.667 52 -144 106.667 -166 164c-12 36 -18 71.667 -18 107c0 46 10 93.667 30 143c23.333 62.667 62.333 113.334 117 152.001
c-26 -4 -45.667 -6 -59 -6c-11.333 0 -32.666 2 -63.999 6c-50.667 13.333 -92.334 38.333 -125.001 75c-36.667 38.667 -59.667 82.667 -69 132c-4 31.333 -6 52.333 -6 63c2.66699 54.667 14.667 104.667 36 150c34.667 70.667 93.667 123.667 177 159
c47.333 19.333 112 29 194 29h172z" />
    <glyph glyph-name="seven" unicode="7" horiz-adv-x="1239" 
d="M143 1577l35 -0.00195312c0 -169.333 14.333 -318.333 43 -447c32.667 -138.667 52.667 -219.667 60 -243c13.333 -42.667 43.333 -92.667 90 -150c61.333 -73.333 119.333 -130 174 -170c56 -38 123.667 -57 203 -57c126.667 0 225.334 39.667 296.001 119
c64.667 74.667 97 159.334 97 254.001c-26 -18 -52.667 -29.667 -80 -35c-32.667 -6.66699 -73 -10 -121 -10c-32.667 4 -58.667 12 -78 24c-26 18 -57.333 42 -94 72c-83.333 73.333 -129 153.333 -137 240c-1.33301 8 -2 28.333 -2 61c0 108 34 181.667 102 221
c38 19.333 74.333 29 109 29c39.333 0 88.333 -11.667 147 -35c41.333 -16.667 72.666 -38.667 93.999 -66c22 -25.333 48.667 -64 80 -116c48 -75.333 76.667 -165.666 86 -270.999c8.66699 -66.667 13 -112.334 13 -137.001c0 -69.333 -16 -145 -48 -227
c-39.333 -100 -97.333 -179.333 -174 -238c-44.667 -34 -87 -60.667 -127 -80c-35.333 -16 -80.333 -25.333 -135 -28c-56 0 -108.667 11.667 -158 35c-42 22.667 -95 58.667 -159 108c-57.333 46.667 -103 96.667 -137 150c-32 48.667 -65.667 118 -101 208
c-32.667 80.667 -51.667 150.334 -57 209.001c-8 50.667 -15.667 141.667 -23 273c0 154 0.666992 256.333 2 307zM825 1282c-24.667 -18 -46.333 -44.667 -65 -80c-19.333 -34 -29 -66 -29 -96c0 -34 12.333 -62.667 37 -86c23.333 -20.667 52 -31 86 -31
c56 0 110 24 162 72c50.667 49.333 76 102 76 158c0 34 -8.33301 59.667 -25 77c-22 26 -53.333 39 -94 39c-46.667 0 -96 -17.667 -148 -53z" />
    <glyph glyph-name="eight" unicode="8" horiz-adv-x="1483" 
d="M143 1004l84.0029 183.999h1112l-86 -184h-587c-36 -6 -85.333 -23.333 -148 -52c-42 -21.333 -85.667 -52 -131 -92c-43.333 -39.333 -69.333 -79.666 -78 -120.999c-5.33301 -21.333 -8 -45.666 -8 -72.999c0 -42.667 13.667 -81 41 -115
c27.333 -28.667 90 -43 188 -43c40 0 88 8 144 24c50.667 16.667 93 27.667 127 33c39.333 5.33301 81 8 125 8c68 0 123.333 -15 166 -45c57.333 -36.667 94.666 -81.667 111.999 -135c10 -20.667 15 -49.334 15 -86.001c0 -14.667 -2.33301 -40 -7 -76
c-10.667 -72 -44 -135.333 -100 -190l-100 86c46 24.667 72.667 61.667 80 111c0 64 -17.333 109 -52 135c-14.667 10.667 -31.667 16 -51 16c-16 0 -40.667 -5.33301 -74 -16c-40.667 -12.667 -64.334 -19.667 -71.001 -21c-26 -4 -64.333 -15.667 -115 -35
c-50.667 -16 -93 -26 -127 -30c-12 0 -31.667 -2 -59 -6c-18 -1.33301 -39.333 -2 -64 -2c-36.667 0 -76.334 7.33301 -119.001 22c-80 36.667 -135.667 96 -167 178c-18 44 -27 85.667 -27 125c0 32.667 4 64.667 12 96c8 26 15.667 45.333 23 58c8 17.333 19.667 35 35 53
c14.667 20.667 29 39.667 43 57c44.667 56 91 101.333 139 136h-275z" />
    <glyph glyph-name="nine" unicode="9" horiz-adv-x="1325" 
d="M465 834l625.001 -619.002c62.667 -58.667 94 -115.334 94 -170.001c0 -49.333 -16.333 -92.333 -49 -129c-32 -35.333 -57.333 -60 -76 -74l-178 121c9.33301 0 36 17.667 80 53c43.333 37.333 65 70.333 65 99c0 27.333 -7.33301 50.333 -22 69
c-19.333 24.667 -41.333 49.334 -66 74.001l-707 705c-58.667 58.667 -88 133.667 -88 225c0 58.667 12.333 114 37 166c26 54.667 62.333 100.334 109 137.001c72 56 150.333 84 235 84c101.333 0 188.666 -37 261.999 -111c70 -69.333 105 -154 105 -254
c0 -73.333 -22 -145 -66 -215c-35.333 -51.333 -93.333 -91.666 -174 -120.999c-82 -26.667 -144 -40 -186 -40zM625.001 1098c100.667 91.333 151.002 171.668 151.002 241.001c0 30 -10.333 54 -31 72c-18.667 15.333 -42.334 23 -71.001 23
c-38.667 0 -81.667 -11.667 -129 -35c-48 -24.667 -91 -53.334 -129 -86.001c-38.667 -31.333 -72.334 -72.333 -101.001 -123c-30 -48 -45 -89 -45 -123c0 -18 3.66699 -31.667 11 -41c18.667 -19.333 46.667 -29 84 -29c38 0 83 9.66699 135 29
c50 19.333 91.667 43.333 125 72z" />
    <glyph glyph-name="colon" unicode=":" horiz-adv-x="748" 
d="M473 1296c22 -46 34.999 -82.0029 38.999 -108.003c1.33301 -19.333 2 -38.666 2 -57.999c0 -5.33301 -0.666992 -21.666 -2 -48.999c-2.66699 -26 -4.66699 -45 -6 -57c-2.66699 -31.333 -15 -77 -37 -137c26 -22 45.667 -36.333 59 -43c48 -26 100.667 -39 158 -39
c42.667 0 95.334 16.333 158.001 49c18.667 12 43.334 30.333 74.001 55v-184c-50.667 -27.333 -99.334 -43.666 -146.001 -48.999c-10.667 -1.33301 -31 -2 -61 -2c-19.333 0 -58.333 4 -117 12c-58.667 10.667 -123 36 -193 76
c-14.667 -27.333 -31.667 -52.666 -51 -75.999c-20.667 -26 -44.334 -49.333 -71.001 -70c40.667 -68 95 -153.333 163 -256l113 -145c40.667 -49.333 83 -92.333 127 -129l-43 -43c-83.333 82 -144 146.333 -182 193c-86 98 -151.667 179.667 -197 245
c-19.333 30 -34.333 51.333 -45 64l-43 65l-31 64c-1.33301 2.66699 -8 17.667 -20 45c-14 28.667 -21.667 49.667 -23 63c-6.66699 20.667 -10 39.334 -10 56.001c4 62.667 20.333 102.667 49 120c16.667 7.33301 33.667 11 51 11c22 -4 40 -6 54 -6
c28.667 -6 55.334 -18.333 80.001 -37c30 23.333 49.667 52 59 86c5.33301 12 8 33 8 63c0 12.667 -0.666992 23 -2 31v33c-1.33301 43.333 -4 70.666 -8 81.999c-1.33301 17.333 -10.333 31.666 -27 42.999c-22 21.333 -50.667 32 -86 32h-266v138h748v-138h-275z" />
    <glyph glyph-name="semicolon" unicode=";" horiz-adv-x="1393" 
d="M1083 1296l0.00195312 -1296l-165 158v567c-50.667 -27.333 -99.334 -43.666 -146.001 -48.999c-10.667 -1.33301 -31 -2 -61 -2c-19.333 0 -58.333 4 -117 12c-58.667 10.667 -123 36 -193 76c-14.667 -27.333 -31.667 -52.666 -51 -75.999
c-23.333 -28.667 -47 -52 -71 -70c43.333 -76 97.666 -161.333 162.999 -256l111 -145c40.667 -49.333 83 -92.333 127 -129l-41 -43c-83.333 82 -144 146.333 -182 193c-102.667 121.333 -168.334 203 -197.001 245c-2.66699 10 -15.667 30.667 -39 62
c-17.333 20 -33 42.333 -47 67c-8 14 -19 35.333 -33 64c-1.33301 2.66699 -8 17.667 -20 45c-14 28.667 -21.667 49.667 -23 63c-6.66699 20.667 -10 39.334 -10 56.001c1.33301 34 5.33301 59.667 12 77c6 18 18.333 32.333 37 43c16.667 7.33301 33.667 11 51 11
c22 -4 40 -6 54 -6c28.667 -6 55.334 -18.333 80.001 -37c43.333 40.667 65 111.667 65 213c-20.667 104.667 -61 157 -121 157h-266v138h1393v-138h-310zM516.002 1075c-2.66699 -61.333 -19.001 -124 -49.001 -188c60 -54.667 133 -82 219 -82
c66.667 0 119.334 16.333 158.001 49c49.333 40.667 74 85.667 74 135v307h-445c28.667 -64 43 -137.667 43 -221z" />
    <glyph glyph-name="less" unicode="&#x3c;" horiz-adv-x="1047" 
d="M465 1296l-464.998 -0.00195312v138h1047v-138h-394c19.333 -74.667 29 -155.667 29 -243c-1.33301 -96 -18.333 -183.333 -51 -262c-20.667 -49.333 -46.667 -94 -78 -134c-31.333 -43.333 -60 -76.666 -86 -99.999c5.33301 -5.33301 17 -21.666 35 -48.999l32.5 -47.5
c12.333 -17.667 18.5 -27.167 18.5 -28.5c10.667 -10.667 29.667 -31 57 -61l47 -43l43 -41c97.333 -88.667 178.666 -155.667 243.999 -201v-86c-75.333 49.333 -179 130 -311 242c-87.333 73.333 -170 158 -248 254c-82 95.333 -131.667 162 -149 200
c-22 46.667 -33 87 -33 121c6.66699 46.667 19.667 76 39 88c17.333 12.667 44.666 19 81.999 19h170c24 54.667 36 109 36 163c0 52 -4.66699 90.333 -14 115c-8 24.667 -25 56 -51 94z" />
    <glyph glyph-name="equal" unicode="=" horiz-adv-x="690" 
d="M143 131l129 133l131 -133l-131 -131z" />
    <glyph glyph-name="greater" unicode="&#x3e;" horiz-adv-x="1583" 
d="M1104 1296l-300.999 0.000976562l-86 138h866v-138h-323v-1296l-156 158v399l-594 -258l-164 104l635 283l-449 197l-372 -318l-160 78l356 305c-62.667 11.333 -118.667 39.333 -168 84c-48.667 46.667 -78.667 94.667 -90 144c-6.66699 25.333 -10 49 -10 71
c0 27.333 6 53.333 18 78c18 36.667 59.667 68 125 94c11.333 4 34.666 6 69.999 6c61.333 0 114.666 -4.66699 159.999 -14c30 -5.33301 53.667 -16.333 71 -33c16.667 -10.667 39.334 -32.334 68.001 -65.001c54.667 -57.333 84.667 -108 90 -152
c0 -54.667 -2.66699 -95 -8 -121c-15.333 -40.667 -39.333 -72.667 -72 -96l494 -233v585zM264.001 1184c0 -34 13.002 -69.667 39.002 -107c31.333 -39.333 71.666 -59 120.999 -59c6.66699 0 27 14.333 61 43c34.667 26 54 47.667 58 65
c1.33301 2.66699 2.66602 9 3.99902 19c2.66699 8 4.66699 15.333 6 22c5.33301 15.333 8 28.333 8 39c0 18 -7.33301 36.667 -22 56c-30 38 -80 57 -150 57c-34 -5.33301 -61.333 -20.333 -82 -45c-22 -26 -36.333 -56 -43 -90z" />
    <glyph glyph-name="question" unicode="?" horiz-adv-x="1087" 
d="M229 1303l-229.001 -0.00292969v131h1087v-138h-671c22 -91.333 34.333 -143.666 37 -156.999c10.667 -56 16.667 -101 18 -135c22 8 68.333 12 139 12c36 0 62 -1.33301 78 -4c102.667 -15.333 179.334 -74.666 230.001 -177.999c24 -49.333 36 -124 36 -224
c-2.66699 -38 -17 -87.667 -43 -149c-2.66699 -4 -8 -13.667 -16 -29l-33 -51l-145 115c44.667 31.333 78.667 72 102 122c22 46.667 33 93.334 33 140.001c-8 62.667 -34.667 106.334 -80 131.001c-16 8 -32.333 12 -49 12c-18 0 -43.333 -6 -76 -18
c-10.667 -4 -22.5 -7.83301 -35.5 -11.5s-20.167 -5.5 -21.5 -5.5c-28.667 -8 -63 -22.333 -103 -43c-1.33301 -10.667 -4 -25 -8 -43c-4 -16 -8.66699 -36.333 -14 -61c-9.33301 -38 -21.666 -74.333 -36.999 -109c-5.33301 -13.333 -13.666 -27.666 -24.999 -42.999
c-8 -10.667 -14 -20 -18 -28c48 -64.667 104 -127 168 -187c23.333 -17.333 43.666 -33.666 60.999 -48.999c26 -22 50.667 -41 74 -57c35.333 -22 57.333 -37 66 -45c17.333 -15.333 37.666 -30.333 60.999 -45c6.66699 -6 23.667 -19.667 51 -41l29 -21
c19.333 -12 31 -20 35 -24l-43 -68c-70 40.667 -165 109 -285 205l-172 145c-40.667 37.333 -79.667 79.666 -117 126.999c-36.667 45.333 -64 76.666 -82 93.999c-20 23.333 -39 50 -57 80c-14.667 27.333 -27 60.333 -37 99c-6.66699 36.667 -10 68.667 -10 96
c10.667 35.333 32.667 54.333 66 57c8 0 24.333 -3.33301 49 -10c18.667 -8 33.667 -12 45 -12c24.667 6.66699 39.667 21 45 43c6.66699 21.333 10.667 52 12 92c0 69.333 -6.66699 122 -20 158c-27.333 57.333 -59 99.666 -95 126.999z" />
    <glyph glyph-name="at" unicode="@" horiz-adv-x="1112" 
d="M666 1296h-666.001v138h1112v-138h-297v-419h-385c-66.667 0 -112.334 -17.333 -137.001 -52c-15.333 -17.333 -25 -46.666 -29 -87.999c0 -18.667 2 -33 6 -43c11.333 -32.667 29.166 -58.167 53.499 -76.5s54.5 -27.5 90.5 -27.5c65.333 34 101.333 51.667 108 53
c22 8 42.667 15 62 21c18.667 6.66699 32.334 10.667 41.001 12l161 -182c-78.667 0 -140 -4.33301 -184 -13c-60 -12 -98.333 -21.333 -115 -28c-27.333 -11.333 -51.666 -28.666 -72.999 -51.999c-48 -54.667 -72 -111.334 -72 -170.001c0 -20 2.66699 -39.667 8 -59
c15.333 -56 46 -94.333 92 -115c24.667 -13.333 51.334 -20 80.001 -20c22 0 44.667 4.66699 68 14c4 50.667 25 89 63 115c36 23.333 69.667 35 101 35c24.667 0 46.334 -5.66699 65.001 -17c50.667 -26 76 -72.333 76 -139c0 -34 -17 -73.667 -51 -119
c-26 -36.667 -59 -62 -99 -76l138 -274l-64 -29l-153 303c-80.667 12.667 -159.334 47.667 -236.001 105c-125.333 98 -188 214 -188 348c0 83.333 28.667 162 86 236c-68.667 21.333 -120.667 65.666 -156 132.999c-23.333 42 -35 97.333 -35 166
c11.333 68 49.666 121 114.999 159c44.667 27.333 109.334 41 194.001 41h220v258z" />
    <glyph glyph-name="A" unicode="A" horiz-adv-x="809" 
d="M8 1296v138h875v-138h-875zM883 786l0.00195312 -206.001c-64.667 -62 -130.334 -106.667 -197.001 -134c-82 -34 -153.667 -51 -215 -51c-87.333 1.33301 -165 31.333 -233 90c-86 72.667 -129 168.334 -129 287.001c6.66699 124 66 216.333 178 277
c50 27.333 101.667 41 155 41c41.333 0 94.666 -9.66699 159.999 -29c86 -26 157 -73.667 213 -143l-29 -31c-31.333 20.667 -75.666 39.667 -132.999 57c-38 12.667 -73.333 19 -106 19c-18 0 -56.333 -6.33301 -115 -19l230 -342c26.667 14 64 38.667 112 74
c41.333 31.333 77.666 68 108.999 110zM385.002 919.999c-75.333 -20.667 -127.333 -68.666 -156 -143.999c-14.667 -43.333 -22 -75.333 -22 -96c0 -24.667 7.33301 -50.667 22 -78c19.333 -28.667 45.333 -48.334 78 -59.001c34 -16.667 70.333 -25 109 -25
c80.667 0 149.667 20.667 207 62z" />
    <glyph glyph-name="B" unicode="B" horiz-adv-x="1374" 
d="M0 1296v138.001h1374v-138h-248v-1296l-159 195v163c-38.667 -47.333 -88 -84.666 -148 -111.999c-46 -22 -116.333 -33 -211 -33c-99.333 9.33301 -173.666 46.333 -222.999 111c-45.333 57.333 -68 114.666 -68 171.999c0 50 18.667 99 56 147
c-31.333 0 -72.333 9.66699 -123 29c-36.667 13.333 -74.334 40.666 -113.001 81.999c-58.667 66.667 -88 124 -88 172c0 62.667 16.833 111.667 50.5 147s89.167 53 166.5 53h301v170h-567zM961 1296h-227.996v-323h-397c-48 0 -83.667 -4 -107 -12
c-52.667 -22 -79 -46 -79 -72c0 -31.333 11.333 -60.666 34 -87.999c24.667 -23.333 78.667 -35 162 -35h244l147 -152c-27.333 7.33301 -53.333 11 -78 11c-12 0 -33 -2.33301 -63 -7c-58.667 -10.667 -101.667 -32.334 -129 -65.001c-35.333 -39.333 -53 -75 -53 -107
c0 -4 1.33301 -13.333 4 -28c12 -35.333 53.667 -59.333 125 -72c23.333 0 43.666 3.33301 60.999 10c19.333 2.66699 37.666 9 54.999 19c15.333 6.66699 32.666 16 51.999 28c27.333 18 43.666 29 48.999 33c82 49.333 149 110 201 182v678z" />
    <glyph glyph-name="C" unicode="C" horiz-adv-x="1898" 
d="M0 1296v138h1901v-138h-304v-911c-69.333 0 -135.333 -20.333 -198 -61c-96 -67.333 -144 -124.666 -144 -171.999c0 -15.333 3 -28.333 9 -39c22.667 -48 82 -74 178 -78c30 0 79.667 11.667 149 35c26 8 61.667 25 107 51l63 -121c-72 -48 -157.333 -72 -256 -72
c-150 8.66699 -248.333 58.667 -295 150c-21.333 38 -32 79.667 -32 125c0 43.333 10.667 88.333 32 135c45.333 98 122.666 154.667 231.999 170v139h-453v-647l-155 158v465l-478 -271l-67 150l516 289c-27.333 50 -67 92.333 -119 127
c-39.333 25.333 -66.666 41.666 -81.999 48.999c-14.667 9.33301 -36.334 14 -65.001 14c-41.333 0 -84.333 -11.667 -129 -35l-183 -100l-77 158c68 46 138 76.667 210 92c40 5.33301 79.667 8 119 8c38.667 0 63.334 -0.666992 74.001 -2
c61.333 -12.667 120 -44.667 176 -96c56 -50.667 91 -96.667 105 -138v428h-834zM989 768h453v528h-453v-528z" />
    <glyph glyph-name="D" unicode="D" horiz-adv-x="911" 
d="M911 604l-426.001 0.000976562v-194c0 -40 -6 -64 -18 -72c-45.333 0 -74.666 9 -87.999 27l-242 301c-24.667 31.333 -37 58.666 -37 81.999c7.33301 17.333 36 26 86 26h138v522h-324v138h911v-138h-426v-522h426v-170z" />
    <glyph glyph-name="E" unicode="E" horiz-adv-x="946" 
d="M645 752l330.001 -0.000976562v-170h-336c0 -36 -9.66699 -82 -29 -138l-10 -36c-5.33301 -19.333 -12 -36.666 -20 -51.999c-7.33301 -10.667 -19 -17.334 -35 -20.001c-40 0 -70.667 15 -92 45l-183 235c-27.333 40 -41 66.667 -41 80c0 4 2.33301 11.667 7 23
c10.667 22 42 33 94 33h151v237c-73.333 0 -129.333 5 -168 15c-103.333 30 -169.333 77.667 -198 143c-18 38 -27 80.333 -27 127c0 74.667 27.333 128 82 160c19.333 13.333 42 20 68 20c35.333 0 68.666 -11 99.999 -33c31.333 -17.333 72.333 -47.333 123 -90
c40.667 -34 70.667 -71.5 90 -112.5s39 -99.167 59 -174.5c23.333 -87.333 35 -184.666 35 -291.999zM723.001 1296l-105 140h357v-140h-252zM203.001 1135c36.667 -68.667 97.3311 -102.999 181.998 -102.999c35.333 0 67.333 9 96 27c8.66699 31.333 13 53.666 13 66.999
c0 58.667 -20.667 109.334 -62 152.001c-49.333 57.333 -99.666 86 -150.999 86c-19.333 0 -38.666 -5.33301 -57.999 -16c-32.667 -20.667 -49 -54.334 -49 -101.001c0 -34 9.66699 -71.333 29 -112z" />
    <glyph glyph-name="F" unicode="F" horiz-adv-x="586" 
d="M137 1296h-137v138h586v-138h-285v-1296l-164 158v1138z" />
    <glyph glyph-name="G" unicode="G" horiz-adv-x="809" 
d="M0 1296v138h809v-138h-809zM805 795l-418 -0.000976562v-295c0 -36 -11.667 -57.333 -35 -64c-38 0 -62.333 14.333 -73 43l-142 269c-10.667 28.667 -16 57.334 -16 86.001c0 54 19.667 88.667 59 104c22 9.33301 48.667 14 80 14h545v-157z" />
    <glyph glyph-name="H" unicode="H" horiz-adv-x="969" 
d="M0 1296v138h969v-138h-969zM969 848l-293.005 0.00195312c52 -58.667 82.667 -117.334 92 -176.001c9.33301 -42.667 14 -78.334 14 -107.001c0 -32.667 -7.33301 -70 -22 -112c-40 -80.667 -100 -130.667 -180 -150c-24.667 -2.66699 -39 -4 -43 -4
c-36 0 -67.667 7.66699 -95 23c-35.333 21.333 -79.666 52.666 -132.999 93.999c-46 38 -79.333 74 -100 108c-30 53.333 -59.333 112 -88 176c-19.333 42.667 -37.666 95.334 -54.999 158.001c-19.333 65.333 -29 98.666 -29 99.999h61c0 -4 9.66699 -34.667 29 -92
c19.333 -53.333 39 -98.333 59 -135c27.333 -46 51.333 -82 72 -108c18 -23.333 44.667 -46.666 80 -69.999l55 -31c10 -6.66699 26.333 -14 49 -22c18 -7.33301 33 -11 45 -11c12.667 0 29.334 5 50.001 15c38 22 61.667 58.667 71 110c0 26 -2.66699 50 -8 72
c-2.66699 22 -8.66699 42.667 -18 62c-11.333 20 -19.666 38.333 -24.999 55c-18 35.333 -46.667 78.333 -86 129c-43.333 44.667 -70.666 70.667 -81.999 78h580v-162z" />
    <glyph glyph-name="I" unicode="I" horiz-adv-x="915" 
d="M291 975c-16.667 10.667 -51.6689 38.666 -105.002 83.999c-40.667 34 -65 65.333 -73 94c-16.667 46.667 -25 85 -25 115c0 56 26 101.667 78 137c39.333 24.667 82.333 37 129 37c30 0 65.333 -5 106 -15c96 -21.333 168.333 -79.333 217 -174
c29.333 -57.333 44 -114 44 -170c-6 -80 -44.333 -142 -115 -186c69.333 -45.333 143 -68 221 -68c118.667 0 218.334 41 299.001 123v-143c-76.667 -52 -157.334 -78.667 -242.001 -80c-70.667 0 -132.667 10.333 -186 31c-53.333 17.333 -104 51.333 -152 102
c-88.667 0 -163 -27.333 -223 -82c-69.333 -60 -104 -129.667 -104 -209c0 -28.667 4 -52.334 12 -71.001c24.667 -83.333 86.667 -128.333 186 -135c57.333 0 103.333 10 138 30c0 70 30 119.333 90 148c24.667 10.667 48.334 16 71.001 16
c50.667 0 90.334 -19.667 119.001 -59c16.667 -22 25 -49.333 25 -82c0 -35.333 -11 -71.666 -33 -108.999c-32.667 -56 -80.334 -86.667 -143.001 -92l69 -190l-61 -27l-94 213c-120.667 0 -224.667 36.333 -312 109c-51.333 43.333 -90.666 93 -117.999 149
c-24.667 56 -37 124.333 -37 205c14.667 140.667 87.667 240.334 219 299.001zM470.998 1346c-22 12 -49.332 18 -81.999 18c-72 0 -123 -27.333 -153 -82c-14 -22 -21 -48.667 -21 -80c0 -34 9.66699 -67.333 29 -100c17.333 -30 41.666 -52.667 72.999 -68
c30 -6.66699 50.667 -10 62 -10c68 0 118.333 29.333 151 88c15.333 23.333 23 51.333 23 84c0 66.667 -27.333 116.667 -82 150zM728.999 1434h338v-138h-248z" />
    <glyph glyph-name="J" unicode="J" horiz-adv-x="754" 
d="M0 1296v138h874v-138h-874zM766 676c35.333 24.667 71.335 61.332 108.002 109.999v-206c-65.333 -62 -131.333 -106.667 -198 -134c-79.333 -34 -151 -51 -215 -51c-86 1.33301 -163.333 31.333 -232 90c-86 72.667 -129 168.334 -129 287.001
c7.33301 124 67 216.333 179 277c50 27.333 101 41 153 41c42.667 0 96.667 -9.66699 162 -29c84.667 -26 155 -73.667 211 -143l-29 -31c-36.667 22 -80.334 41 -131.001 57c-23.333 9.33301 -54.666 14 -93.999 14c-71.333 0 -140.333 -15.667 -207 -47
c-65.333 -31.333 -106.333 -76.333 -123 -135c-13.333 -56 -20 -90 -20 -102c0 -27.333 6.66699 -51.333 20 -72c35.333 -56 97.666 -84 186.999 -84c40.667 0 95.667 15.667 165 47c71.333 30 135.666 67 192.999 111z" />
    <glyph glyph-name="K" unicode="K" horiz-adv-x="752" 
d="M752 582c-60 -30 -136 -45 -228 -45c-100.667 10.667 -191.334 63.667 -272.001 159c-68 86 -102 175 -102 267v333h-150v138h752v-138h-471v-415c0 -71.333 20.333 -128 61 -170c39.333 -44 87 -66 143 -66c38.667 0 88 20 148 60c50.667 30 90.334 72 119.001 126v-249
z" />
    <glyph glyph-name="L" unicode="L" horiz-adv-x="518" 
d="M137 1296h-137.002v138h164c-22 65.333 -53.333 131.333 -94 198l-39.5 61.5l-22.5 35.5c-17.333 25.333 -39.666 46.333 -66.999 63c-67.333 42 -135.666 63 -204.999 63c-54.667 -10.667 -101 -46 -139 -106c-26 -42 -39 -101.333 -39 -178c2.66699 -44 17 -92 43 -144
h-162c-23.333 60.667 -35 123 -35 187c0 38 0.666992 63.333 2 76c8 56 19.667 104.333 35 145c12 35.333 36.667 69.333 74 102c62.667 52 143 78 241 78c50.667 -4 93.667 -16.333 129 -37c23.333 -14.667 65.666 -49.334 126.999 -104.001c31.333 -30 54 -57.333 68 -82
c9.33301 -15.333 33.333 -59.666 72 -132.999c36.667 -70 69.334 -145 98.001 -225h268v-138h-215v-1290l-166 152v1138z" />
    <glyph glyph-name="M" unicode="M" horiz-adv-x="451" 
d="M143 1434l164 -164v-1268l-164 164v1268z" />
    <glyph glyph-name="N" unicode="N" horiz-adv-x="952" 
d="M0 1296v138h930v-138h-930zM930 776c-50.667 -14.667 -98.002 -41.3311 -142.002 -79.998c-32.667 -28.667 -66 -71.667 -100 -129c-23.333 -40.667 -40.333 -77.334 -51 -110.001l-156 118l86 113c-16 49.333 -46.667 82.666 -92 99.999c-27.333 11.333 -52 17 -74 17
c-9.33301 0 -30.333 -3.33301 -63 -10c-38 -12.667 -68.667 -33.334 -92 -62.001c-28.667 -34 -43 -91.333 -43 -172c0 -13.333 3.33301 -28.333 10 -45c8 -18 15.667 -32.333 23 -43c2.66699 -8 9.33398 -21.667 20.001 -41c19.333 -35.333 39 -64.666 59 -87.999
c7.33301 -6.66699 16.333 -15.667 27 -27c10.667 -10.667 22.334 -20.667 35.001 -30c9.33301 -11.333 25 -27.666 47 -48.999c4 -4.66699 10 -9.66699 18 -15c7.33301 -6.66699 15 -12.667 23 -18c6.66699 -6.66699 12 -12.334 16 -17.001l23 -18l20 -20l-39 -52
c-5.33301 2.66699 -33.333 24.667 -84 66c-28.667 26 -51 45.667 -67 59l-60 51c-60 57.333 -103.667 102.666 -131 135.999c-22.667 30 -43.667 70.667 -63 122c-26 80.667 -39 138.334 -39 173.001c0 25.333 5.33301 55.333 16 90c28.667 73.333 80.667 121 156 143
c20.667 5.33301 41 8 61 8c16.667 0 40.667 -4 72 -12c8 -1.33301 18.833 -4 32.5 -8s21.167 -6 22.5 -6c46.667 -16.667 90.334 -46.334 131.001 -89.001c33.333 -35.333 56.666 -70.666 69.999 -105.999c32.667 34 75 69.167 127 105.5s93 59.833 123 70.5
c45.333 15.333 71.333 23 78 23v-148z" />
    <glyph glyph-name="O" unicode="O" horiz-adv-x="1081" 
d="M0 1296l0.00390625 138.001h1081v-138h-280v-346l-348 -2c-72.667 0 -127.334 -10 -164.001 -30c-41.333 -24.667 -62 -72.667 -62 -144c7.33301 -56 41.666 -91.333 102.999 -106c17.333 0 54.666 8.66699 111.999 26c58.667 16.667 104.667 25 138 25
c77.333 0 146 -13 206 -39c63.333 -30 106.333 -80 129 -150c7.33301 -39.333 11 -87 11 -143c-5.33301 -40.667 -34 -97.334 -86 -170.001c-16.667 -20.667 -39.334 -43 -68.001 -67c-35.333 -29.333 -58.666 -46.666 -69.999 -51.999l230 -229l-60 -62l-233 238
c-48 -30 -95.667 -45 -143 -45c-82 0 -147 19 -195 57c-49.333 40 -78 80.333 -86 121c-4 23.333 -6 39.666 -6 48.999c2.66699 37.333 15 71.666 37 102.999c23.333 24.667 56 37 98 37c30 0 61.333 -5 94 -15c30 -6.66699 65 -26.334 105 -59.001
c36.667 -36.667 57 -58.667 61 -66c31.333 12.667 69.666 39.334 114.999 80.001c2.66699 1.33301 16.334 13 41.001 35c14.667 10.667 27 23 37 37c8 9.33301 14 22.333 18 39c2.66699 30 4 49 4 57c0 38 -10.333 68 -31 90c-18.667 15.333 -41.667 23 -69 23
c-32.667 -4 -55.334 -6 -68.001 -6c-26 -2.66699 -54 -10.334 -84 -23.001c-31.333 -12 -62 -19.333 -92 -22c-73.333 0 -131.333 7.33301 -174 22c-53.333 24.667 -105.333 74.667 -156 150c-21.333 34 -41 69.333 -59 106c-9.33301 20.667 -14 47.334 -14 80.001
c0 76.667 23.667 131.334 71 164.001c24.667 16 54 24 88 24c14 0 25.667 -0.666992 35 -2h35h332v215h-633z" />
    <glyph glyph-name="P" unicode="P" horiz-adv-x="1124" 
d="M0 1296l0.00195312 137.999h1124v-138h-233v-471c0 -66.667 -15.667 -135.667 -47 -207c-27.333 -50 -62.333 -94.333 -105 -133l-116 115c40.667 27.333 70 63.666 88 108.999c9.33301 32.667 14 82.334 14 149.001v438h-465v-651c0 -56 6.33301 -97 19 -123
c13.333 -32.667 35 -58.667 65 -78l576 -366c65.333 -41.333 113 -79 143 -113c27.333 -34 41 -70.667 41 -110c0 -38.667 -21.333 -81.667 -64 -129c-18.667 -27.333 -45 -48.666 -79 -63.999l-101 96c35.333 8.66699 66.666 31.334 93.999 68.001c18 22 27 46.667 27 74
c-1.33301 17.333 -10.333 35.666 -27 54.999c-14.667 16.667 -34.334 31.667 -59.001 45l-571 367c-71.333 44.667 -114.333 74.667 -129 90c-37.333 34 -61.333 64 -72 90c-16.667 35.333 -25 90 -25 164v585h-98z" />
    <glyph glyph-name="Q" unicode="Q" horiz-adv-x="1479" 
d="M1016 1296l-1016 -0.00292969v138h1479v-138h-297v-1294l-166 156v667h-328c-75.333 0 -133.333 -15 -174 -45c-48 -32.667 -78.667 -80.334 -92 -143.001c-5.33301 -19.333 -8 -40 -8 -62c0 -31.333 10.667 -83.666 32 -156.999c19.333 -53.333 59 -121 119 -203
c15.333 -18 33 -37.667 53 -59c27.333 -22 42 -36.333 44 -43c17.333 -22 36.333 -43.333 57 -64l41 -49h-66c-43.333 31.333 -89 69 -137 113c-61.333 56 -109 105 -143 147c-15.333 20.667 -26.333 34.334 -33 41.001c-14 20.667 -25.667 35.667 -35 45
c-5.33301 12.667 -15.666 28.334 -30.999 47.001l-14 27c-1.33301 5.33301 -5.33301 13.333 -12 24c-30 74 -45 140.333 -45 199c4 66.667 32.667 127.334 86 182.001h-203l-113 166h1002v305z" />
    <glyph glyph-name="R" unicode="R" horiz-adv-x="1083" 
d="M0 1296v138h1087v-138h-1087zM80 1053l889 -0.00195312v-162l-37 4h-60c-134.667 0 -217 -11.667 -247 -35c-42.667 -35.333 -72 -64.666 -88 -87.999c-22 -26 -33 -56 -33 -90c0 -23.333 6 -49.333 18 -78c19.333 -49.333 62.333 -78 129 -86
c72.667 0 158.667 33.333 258 100c74 52 133.333 115.667 178 191v-191c-38 -68 -91.667 -121 -161 -159c-67.333 -37.333 -147.333 -56 -240 -56c-72 8.66699 -135.333 50.334 -190 125.001c-44 54.667 -66.667 110.667 -68 168c0 80.667 12.333 147 37 199h-313z" />
    <glyph glyph-name="S" unicode="S" horiz-adv-x="1075" 
d="M1096 723c-50.667 0 -98.666 -3.99902 -143.999 -11.999c-16 -4 -37 -14.333 -63 -31c-31.333 -20.667 -48.333 -32.334 -51 -35.001v-645l-162 158v372l-47 -34c-28.667 -18 -67 -37.333 -115 -58c-45.333 -16 -87.666 -24 -126.999 -24c-78 10.667 -140 44 -186 100
c-49.333 56 -74 121.667 -74 197c0 51.333 14.333 103 43 155c28.667 44 67 81 115 111c47.333 28.667 97.666 43 150.999 43c50.667 -1.33301 98.667 -17 144 -47c44.667 -31.333 76.667 -66.333 96 -105v-37c-40 19.333 -81.667 29 -125 29c-64 0 -121.333 -19 -172 -57
c-35.333 -24.667 -66.666 -55.334 -93.999 -92.001c-28.667 -34.667 -43 -67 -43 -97c0 -21.333 6 -39.666 18 -54.999c19.333 -20.667 42.666 -31 69.999 -31c42 0 104.667 29.333 188 88c28.667 20.667 62 46.667 100 78c38.667 30 58 46.333 58 49v553h-676v138h1096
v-138h-258v-467c53.333 19.333 101 29 143 29c27.333 0 65.666 -6.66699 114.999 -20v-115z" />
    <glyph glyph-name="T" unicode="T" horiz-adv-x="803" 
d="M0 1296v138h803v-138h-803zM803 881h-287c-100.667 0 -186.667 -28.667 -258 -86c-32.667 -22 -49 -81 -49 -177c0 -70.667 15.667 -128.667 47 -174l287 -399l-35 -43l-279 350c-44.667 57.333 -78 122.333 -100 195c-24.667 73.333 -37 137.333 -37 192
c0 16.667 2 34 6 52c38.667 160.667 131 241 277 241h428v-151z" />
    <glyph glyph-name="U" unicode="U" horiz-adv-x="866" 
d="M868 1434v-138h-354v-729v-37c1.33301 -9.33301 2 -21.333 2 -36c0 -57.333 -16.333 -86 -49 -86c-27.333 0 -52 15 -74 45l-227 301c-28.667 40.667 -43 78 -43 112c6.66699 19.333 25.667 29 57 29h185v401h-365v138h868z" />
    <glyph glyph-name="V" unicode="V" horiz-adv-x="983" 
d="M946 877c-1.33301 9.33301 -26 19.998 -74 31.998c-43.333 10 -88.333 15 -135 15c-36.667 0 -62.667 -4.33301 -78 -13c-36.667 -17.333 -66 -48.666 -88 -93.999c-21.333 -42 -32 -84.333 -32 -127c0 -22 2.66699 -37.667 8 -47c27.333 -52 80 -78 158 -78
c30 0 62.667 5.66699 98 17c46 13.333 83.333 43.833 112 91.5s43 94.834 43 141.501c0 26 -4 46.667 -12 62zM317 1296c28.667 -92.667 43.001 -177.999 43.001 -255.999c0 -68 -6 -135.333 -18 -202c-4 -22 -18.333 -72.667 -43 -152
c-2.66699 -9.33301 -12.334 -29.666 -29.001 -60.999c-16 -26 -24 -50 -24 -72c0 -18 4.66699 -34.333 14 -49c10.667 -18 24.334 -37.333 41.001 -58c12 -14.667 23.667 -27.334 35 -38.001c34 -46.667 79.667 -87 137 -121c56 -34 103.667 -53.333 143 -58
c93.333 0 170 13.667 230 41c53.333 24.667 99 59.667 137 105v-180c-38 -26 -75 -47.333 -111 -64c-62.667 -22 -109 -33 -139 -33c-60 0 -136.333 20.667 -229 62c-18 9.33301 -40 22.333 -66 39c-23.333 13.333 -45 30.333 -65 51c-34 28.667 -55.333 46.334 -64 53.001
c-80.667 70 -143.334 139 -188.001 207c-1.33301 2.66699 -5.33301 8.66699 -12 18c-6 11.333 -13 22.333 -21 33c-20.667 30 -33.667 52.667 -39 68c-8 16 -15.333 36.333 -22 61c-16.667 54.667 -25 93 -25 115c0 17.333 2 31.666 6 42.999c15.333 46.667 36 72.667 62 78
c13.333 0 28.333 -0.666992 45 -2c24.667 -4 44.334 -6 59.001 -6c23.333 4 41.666 25.667 54.999 65c14 38 21 79 21 123c0 75.333 -26.667 138.666 -80 189.999h-170v138h983v-138h-666zM983.001 542.999c-8 -14 -41.333 -35.333 -100 -64
c-53.333 -28.667 -101.333 -43 -144 -43c-86 4 -158.333 41 -217 111c-50.667 61.333 -76 132.333 -76 213c0 82 19.333 146.667 58 194c52 66 122.333 99 211 99c36.667 0 85 -13.667 145 -41c35.333 -14 76.333 -40 123 -78v-391z" />
    <glyph glyph-name="W" unicode="W" horiz-adv-x="848" 
d="M430 1249c0 36 -16.333 64.667 -49 86c-30 22 -65.667 33 -107 33c-38 0 -72.667 -13.667 -104 -41c-31.333 -26 -47 -60 -47 -102c8 -63.333 62.667 -95 164 -95c38 3.33301 71.333 15.5 100 36.5s43 48.5 43 82.5zM657 1296l-98 138h293v-138h-195zM848 399
c-44 -51.333 -93.3359 -93.668 -148.003 -127.001c-57.333 -34 -111.666 -57 -162.999 -69c-79.333 -12.667 -122.333 -19 -129 -19c-33.333 0 -66.333 6.33301 -99 19c-58.667 23.333 -106.334 63 -143.001 119c-34 54 -51 114 -51 180c0 35.333 0.666992 58.333 2 69
c8 62 35.333 123 82 183c28.667 39.333 65.334 72.666 110.001 99.999c-43.333 18 -88.333 46 -135 84c-58.667 46.667 -97.667 93 -117 139c-17.333 46.667 -26 86.334 -26 119.001c0 34 8.66699 68 26 102c37.333 75.333 92 118.333 164 129c88.667 0 153 -19.667 193 -59
c35.333 -43.333 53 -97.333 53 -162c-5.33301 -52 -39.333 -93.667 -102 -125c-16.667 -9.33301 -44.667 -14 -84 -14c-32 0 -73.667 6.66699 -125 20c2.66699 -35.333 17 -70.666 43 -105.999c38 -53.333 86.333 -83.333 145 -90c50.667 18 88.334 27.667 113.001 29h90
l135 -140h-160c-79.333 -9.33301 -144 -32.333 -194 -69c-40 -27.333 -68.667 -54 -86 -80c-22 -23.333 -35 -54 -39 -92c0 -83.333 13 -138 39 -164c20 -20.667 54.667 -31 104 -31h68c43.333 1.33301 77.333 9 102 23l123 69c80.667 46.667 150.334 106.667 209.001 180
v-217z" />
    <glyph glyph-name="X" unicode="X" horiz-adv-x="1231" 
d="M0 1296l-0.00488281 137.995h1231v-138h-359v-393h-620c-12.667 0 -24.334 0.666992 -35.001 2c-16 2.66699 -26.333 4 -31 4c-16 0 -29.667 -4 -41 -12c-24 -19.333 -36 -44 -36 -74c0 -21.333 14.333 -54 43 -98c21.333 -34 50 -62.667 86 -86
c0 2.66699 23.667 14.334 71 35.001c52 22 92.333 35.667 121 41c57.333 10.667 107.333 16 150 16c51.333 0 97.666 -8.66699 138.999 -26c74.667 -27.333 128.667 -65.666 162 -114.999c32.667 -52 49 -95 49 -129c0 -57.333 -21.333 -108.666 -64 -153.999
c-16 -16 -31.667 -27.667 -47 -35c-8 -4 -29.667 -10.667 -65 -20c-18 -2.66699 -36 -7.33398 -54 -14.001c-9.33301 -1.33301 -25.666 -4.33301 -48.999 -9c-9.33301 -2.66699 -21.666 -5.33398 -36.999 -8.00098c-6.66699 -2.66699 -16 -8.66699 -28 -18
c-28.667 -20.667 -43 -40 -43 -58c0 -10.667 2.66699 -20 8 -28c6.66699 -11.333 14 -19.666 22 -24.999c4.66699 -2.66699 9.66699 -6 15 -10c6.66699 -4 11.334 -7.33301 14.001 -10c30 -26 82 -50 156 -72c73.333 -23.333 136 -35.666 188 -36.999v-143
c-38 0 -86.333 8 -145 24c-80.667 22 -151 59.667 -211 113c-34 32.667 -65.333 66 -94 100c-19.333 30 -29 64.333 -29 103c0 84.667 25.333 142 76 172c16 12 33 20.667 51 26c10.667 7.33301 32.334 16.333 65.001 27c26 10.667 44.667 16.667 56 18
c40.667 19.333 70.667 36 90 50c22 17.333 33 40.333 33 69c-2.66699 23.333 -12.334 40.333 -29.001 51c-22 12.667 -50 24.334 -84 35.001c-24.667 6.66699 -47.334 10 -68.001 10c-26 0 -60.667 -5.33301 -104 -16c-48 -9.33301 -105.333 -34 -172 -74
c-38 -21.333 -68.667 -41.666 -92 -60.999c-19.333 -15.333 -38.666 -38 -57.999 -68c-30 -48.667 -45 -108 -45 -178c2.66699 -42 10.334 -75.333 23.001 -100c14.667 -28.667 43.334 -71 86.001 -127c52 -72.667 131 -138.334 237 -197.001
c60.667 -35.333 136 -68 226 -98c112 -38 219.667 -61.333 323 -70v-67c-68 6.66699 -145.667 19 -233 37c-102.667 20 -184.667 43 -246 69c-73.333 28.667 -151.666 71.667 -234.999 129l-109 80c-26 20.667 -47.667 40.667 -65 60c-26 26.667 -47.333 55.334 -64 86.001
c-32.667 58.667 -56 108.334 -70 149.001c-14.667 45.333 -22 98.666 -22 159.999c5.33301 64 23.666 121.333 54.999 172c20.667 26 38.334 46.333 53.001 61c23.333 19.333 40 31.666 50 36.999c-50.667 41.333 -89 88.333 -115 141c-28.667 58.667 -43 108 -43 148
c2.66699 54.667 24.334 96.334 65.001 125.001c34.667 24.667 82.667 37 144 37h459v243h-705z" />
    <glyph glyph-name="Y" unicode="Y" horiz-adv-x="883" 
d="M668 1296l-121 138h336v-138h-215zM887 522c-90 -88.667 -196.664 -133.662 -319.997 -134.995c-82 0 -159 18.333 -231 55c-68.667 33.333 -127.334 84.666 -176.001 153.999c-45.333 64 -71.333 137 -78 219c23.333 0 72.333 9.66699 147 29
c75.333 17.333 130.666 46 165.999 86c53.333 57.333 83.333 105.666 90 144.999c0 60 -6.66699 110 -20 150c-34 70.667 -81 106 -141 106c-71.333 0 -118 -28.667 -140 -86c-8 -14.667 -12 -33 -12 -55c0 -30 9.66699 -60.667 29 -92c34 -48 76.333 -72 127 -72l2 -45
c-54.667 0 -97 8.33301 -127 25c-34 18.667 -64.667 54 -92 106c-26 52 -39 99.667 -39 143c2.66699 67.333 27 116.666 73 147.999c26 16 66.333 24 121 24c23.333 0 48.666 -6.66699 75.999 -20c18 -10.667 42 -28.334 72 -53.001c24.667 -22 37.667 -33.667 39 -35
c8 -2.66699 25 -21.667 51 -57c28.667 -37.333 52.334 -76.333 71.001 -117c23.333 -46.667 35 -91 35 -133c-6.66699 -50.667 -21.667 -92.334 -45 -125.001c-23.333 -35.333 -59.333 -71 -108 -107c-60 -44.667 -125.667 -72.667 -197 -84
c46.667 -88.667 121.667 -144.667 225 -168c22 -4 36.333 -6 43 -6c49.333 0 100 13 152 39c53.333 28.667 99 60.667 137 96c41.333 37.333 64.666 62 69.999 74v-209z" />
    <glyph glyph-name="Z" unicode="Z" horiz-adv-x="1204" 
d="M0 1296v138h127l76 -138h-203zM901 1296l-70 138h381v-138h-311zM711 891c-50.667 -41.333 -119.667 -61.998 -207 -61.998c-74 7.33301 -132.667 39.666 -176 96.999c-46.667 61.333 -70 130.333 -70 207c0 81.333 24.667 155 74 221c53.333 64 117.333 97.333 192 100
c67.333 0 122 -20.333 164 -61c44 -40 85 -95.333 123 -166c32.667 -58.667 51 -135.334 55 -230.001c0 -30 -1.33301 -55.667 -4 -77c-5.33301 -100 -29 -187.667 -71 -263c-38.667 -72 -97.667 -140 -177 -204l258 -408l-34 -45l-293 424
c-19.333 -9.33301 -67.333 -14 -144 -14c-46 10.667 -84.667 29 -116 55c-32.667 24.667 -49 56.667 -49 96c0 31.333 9.33301 61.333 28 90c18 23.333 42.667 38.333 74 45c26 0 54.667 -9.33301 86 -28c26 -14 51.333 -34 76 -60c20 -23.333 30 -37 30 -41
c64.667 30 112 75 142 135c26 48 39 111 39 189zM504 1378c-34 -1.33301 -60.666 -19.0029 -79.999 -53.0029c-16.667 -31.333 -25 -71.666 -25 -120.999c0 -35.333 5 -70.666 15 -105.999c12 -53.333 34.333 -97.166 67 -131.499s75 -51.5 127 -51.5
c54.667 11.333 82 62 82 152c0 39.333 -2.66699 73.333 -8 102c-10.667 58.667 -30.334 108 -59.001 148c-30 40.667 -69.667 61 -119 61z" />
    <glyph glyph-name="bracketleft" unicode="[" horiz-adv-x="2" 
d="M-180 -174c-83.333 0 -150.333 -6.33398 -201 -19.001c-30 -6.66699 -62.667 -24.334 -98 -53.001c-40 -34 -60 -66.667 -60 -98c0 -5.33301 2.33301 -13 7 -23c16 -47.333 66.333 -73.666 151 -78.999c127.333 0 218 19 272 57l58 -105
c-16.667 -6.66699 -52.334 -16.667 -107.001 -30c-61.333 -15.333 -116.666 -23 -165.999 -23c-31.333 0 -56.333 2.66699 -75 8c-57.333 14 -106 40.667 -146 80c-38 38.667 -57 86 -57 142c0 70.667 31.333 129.334 94 176.001c34 26 81.667 44.333 143 55
c59.333 9.33301 107.333 14 144 14z" />
    <glyph glyph-name="backslash" unicode="\" horiz-adv-x="2" 
d="M-328 -215l-147 143h346l410 -413l-35 -31l-303 301h-271z" />
    <glyph glyph-name="bracketright" unicode="]" horiz-adv-x="2" 
d="M-1024 1808l-79.999 193.001c74 0 134 -3.33301 180 -10c27.333 -7.33301 56 -17 86 -29c26 -16.667 48 -33 66 -49c4 -2.66699 32.667 -24.667 86 -66c75.333 -57.333 148.333 -133 219 -227c52 -69.333 88.333 -122 109 -158h-50
c-35.333 61.333 -80.333 116.666 -135 165.999c-62.667 60 -106.334 99.667 -131.001 119c-34 24.667 -76.333 43.667 -127 57c-46 11.333 -87 17 -123 17c-34 0 -67.333 -4.33301 -100 -13z" />
    <glyph glyph-name="asciicircum" unicode="^" horiz-adv-x="1239" 
d="M705 1296l-704.997 0.000976562v138h1239v-138h-358v-573h-240c-92.667 0 -169.667 -19 -231 -57c-67.333 -44 -110.333 -93.333 -129 -148c-11.333 -38 -17 -72 -17 -102c0 -37.333 9.66699 -76.333 29 -117c30 -57.333 89.333 -99 178 -125
c27.333 -9.33301 58.666 -14 93.999 -14c19.333 0 76.666 9.33301 171.999 28c96 23.333 185 63 267 119l106 -147c-80.667 -60 -159.334 -101 -236.001 -123c-76 -24.667 -142 -37 -198 -37c-82 0 -168 24 -258 72c-79.333 43.333 -140 100 -182 170
c-48 76 -74 151 -78 225c0 99.333 10 175.666 30 228.999c32 74 76.667 128.667 134 164c42 24.667 93 41.667 153 51c40 8.66699 78.333 13 115 13s75 -4.33301 115 -13v385z" />
    <glyph glyph-name="underscore" unicode="_" horiz-adv-x="2" 
d="M-387 1772l108 108l109 -108l-109 -109z" />
    <glyph glyph-name="grave" unicode="`" horiz-adv-x="1362" 
d="M1075 1296l0.000976562 -1294l-164 176l4 545c-24 -8 -40.333 -15 -49 -21c-8 -2.66699 -15.333 -6 -22 -10l-29 -12c-80.667 -35.333 -129.667 -56 -147 -62c-7.33301 -50 -26.666 -99 -57.999 -147c-42 -64 -88.333 -105.667 -139 -125
c-38 -10.667 -70.667 -16 -98 -16c-28.667 0 -54.667 4 -78 12c-28.667 5.33301 -51.334 17.666 -68.001 36.999c-21.333 20.667 -44.333 47.334 -69 80.001c-40 54.667 -64.667 110 -74 166l29 26c2.66699 -24.667 12.667 -52.667 30 -84c14 -28.667 35.333 -53 64 -73
c43.333 -33.333 101.333 -50 174 -50c69.333 11.333 124.666 55 165.999 131c26 45.333 39 96.666 39 153.999c-5.33301 57.333 -33.333 103 -84 137c-27.333 16.667 -76 25 -146 25c-21.333 -1.33301 -53.333 -16.333 -96 -45c-16 -11.333 -37.667 -32.666 -65 -63.999
l-60 136c40 39.333 83 67 129 83c31.333 10 84 15 158 15c28.667 -6.66699 52.667 -16.334 72 -29.001c21.333 -16 47.666 -39 78.999 -69c40 -34.667 68 -68.334 84 -101.001c20.667 -5.33301 41.334 -8 62.001 -8c32.667 0 66 8.33301 100 25c52 28.667 84 71 96 127v335
h-915v140h1362v-140h-287z" />
    <glyph glyph-name="a" unicode="a" horiz-adv-x="1325" 
d="M874 786c-32.667 -40.667 -68.665 -77.332 -107.998 -109.999c-42.667 -31.333 -80.334 -56 -113.001 -74l-229 342c57.333 12.667 95.666 19 114.999 19c32.667 0 68 -6.33301 106 -19c53.333 -16 97 -35 131 -57l29 31c-56 69.333 -126.333 117 -211 143
c-65.333 19.333 -119.333 29 -162 29c-52 0 -103 -13.667 -153 -41c-112 -60.667 -171.667 -153 -179 -277c0 -118.667 43 -214.334 129 -287.001c68.667 -57.333 146 -87.333 232 -90c64 0 135.667 17 215 51c66.667 27.333 132.667 72 198 134v206zM375.002 920.002
l238.999 -340c-57.333 -41.333 -126 -62 -206 -62c-89.333 0 -151.666 28 -186.999 84c-14.667 28.667 -22 54.667 -22 78c0 16.667 7.33301 48.667 22 96c28.667 75.333 80 123.333 154 144zM0.000976562 1296v138h1317v-138h-287v-1296l-158 158v1138h-872z" />
    <glyph glyph-name="b" unicode="b" horiz-adv-x="1049" 
d="M0 1296l0.000976562 137.999h1049v-138h-277v-372h-358c-75.333 0 -134.666 -15.667 -177.999 -47c-44 -28.667 -72.667 -68.334 -86 -119.001c-8.66699 -23.333 -13 -47.333 -13 -72c0 -8 2 -27 6 -57c11.333 -64.667 42.333 -114.667 93 -150
c39.333 -31.333 77.333 -47.666 114 -48.999c50.667 0 94.334 9.66699 131.001 29c-13.333 18.667 -20 57.334 -20 116.001c5.33301 26 19.666 48.667 42.999 68c24.667 20.667 50.667 31.667 78 33c65.333 0 115 -14.333 149 -43c42.667 -34 64 -82.667 64 -146
c-1.33301 -17.333 -18 -52.666 -50 -105.999c-16 -26 -32.333 -45 -49 -57l178 -267l-86 -57l-184 281c-34 -7.33301 -65.333 -11 -94 -11c-23.333 0 -46 1.33301 -68 4c-48.667 11.333 -100.334 35.333 -155.001 72c-45.333 30 -86.333 69.667 -123 119
c-46.667 57.333 -79.334 114.666 -98.001 171.999c-23.333 74 -35 132 -35 174c6.66699 82 34.667 146.333 84 193c50 47.333 104.667 71 164 71h331v221h-610z" />
    <glyph glyph-name="c" unicode="c" horiz-adv-x="1434" 
d="M1004 1296l-144.002 0.00195312l-94 138h670v-138h-275v-1296l-157 158v532c-36 -23.333 -69 -38.333 -99 -45c-27.333 -5.33301 -70.333 -8 -129 -8c4 -26 6 -45 6 -57c0 -62 -19.667 -121 -59 -177c-56 -80 -134.667 -121.333 -236 -124
c-99.333 0 -185.333 38.667 -258 116c-32.667 36 -66.667 100.333 -102 193c-28.667 79.333 -49 145.333 -61 198l40 15c3.33301 -11.333 16.333 -46.333 39 -105c10 -24.667 19 -44.334 27 -59.001c8 -23.333 15.667 -40.333 23 -51c14.667 -23.333 26 -39 34 -47
c72.667 -76.667 143.667 -115 213 -115c56 1.33301 105.333 20.333 148 57c42 38.667 65 86 69 142c0 47.333 -16.333 93.666 -49 138.999c-32.667 48 -62 76.667 -88 86c-38 -20.667 -64.667 -31.667 -80 -33c-31.333 -8 -64 -12 -98 -12l-115 155
c20.667 0 58.334 6.33301 113.001 19c56 13.333 95.667 26.333 119 39c112 50.667 168 108 168 172c0 69.333 -28 115.666 -84 138.999c-10 5.33301 -27 8 -51 8c-36 -2.66699 -90 -10.667 -162 -24c-57.333 -14 -114.666 -40 -171.999 -78l-88 129c78.667 52 170 78 274 78
c132.667 -4 233 -48.333 301 -133c46.667 -53.333 70 -102.666 70 -147.999c0 -31.333 -7 -68 -21 -110c-9.33301 -37.333 -28.333 -72.333 -57 -105c-27.333 -32.667 -54 -56.667 -80 -72c48 -57.333 134 -86 258 -86c65.333 19.333 112.333 44 141 74
c30.667 28.667 46 69 46 121v315z" />
    <glyph glyph-name="d" unicode="d" horiz-adv-x="1376" 
d="M0 1296l-0.000976562 138.001h1376v-138h-303v-1296l-162 160v442h-426v-194c0 -41.333 -6 -65.333 -18 -72c-5.33301 -4 -12.333 -6 -21 -6c-31.333 0 -53.666 10 -66.999 30l-242 306c-24.667 35.333 -37 62.666 -37 81.999c7.33301 17.333 36 26 86 26h138v522h-324z
M910.999 1296h-426v-522h426v522z" />
    <glyph glyph-name="e" unicode="e" horiz-adv-x="1362" 
d="M614 752l331.999 -0.000976562v-170h-338c0 -36 -9.33301 -82 -28 -138c-4.66699 -10.667 -9 -25 -13 -43c-8 -22.667 -14.667 -37.667 -20 -45c-5.33301 -10.667 -15.666 -17.334 -30.999 -20.001c-42 0 -73.333 14.333 -94 43l-184 237
c-26 38.667 -39 65.334 -39 80.001c0 2.66699 1.33301 10.334 4 23.001c12 22 44 33 96 33h152v235c-68.667 0 -124 5.66699 -166 17c-104 30 -170.333 77.667 -199 143c-18 36.667 -27 79 -27 127c0 74.667 27.333 128 82 160c19.333 13.333 41.333 20 66 20
c35.333 0 68.666 -11 99.999 -33c34 -21.333 75 -52.666 123 -93.999c42.667 -32.667 72 -69.334 88 -110.001c20.667 -45.333 41.334 -104.333 62.001 -177c22.667 -88.667 34 -184.667 34 -288zM693.999 1292l-106 142h264v-142h-158zM173.999 1135
c19.333 -32 44.668 -56.667 76.001 -74c34 -19.333 68 -29 102 -29c38.667 0 71.667 9 99 27c6.66699 35.333 10 57.666 10 66.999c0 60.667 -20 111.334 -60 152.001c-48.667 58.667 -98.334 88 -149.001 88c-19.333 0 -38.333 -6 -57 -18
c-33.333 -20.667 -50 -54.334 -50 -101.001c0 -35.333 9.66699 -72.666 29 -111.999zM946.001 1292h-94v142h510v-138h-256v-1296l-160 158v1134z" />
    <glyph glyph-name="f" unicode="f" horiz-adv-x="580" 
d="M137 1296h-137v138h586v-138h-285v-1296l-164 158v1138z" />
    <glyph glyph-name="g" unicode="g" horiz-adv-x="1262" 
d="M0 1296l0.000976562 138h1262v-138h-287v-1296l-170 158v639h-420v-293c0 -36.667 -11.667 -58.667 -35 -66c-36.667 0 -60.334 14.333 -71.001 43l-142 271c-10.667 26 -16 54.667 -16 86c0 57.333 19.667 95.333 59 114c5.33301 1.33301 32 2 80 2h545v342h-805z" />
    <glyph glyph-name="h" unicode="h" horiz-adv-x="1446" 
d="M0 1296l-0.00390625 138.002h1446v-138h-311v-1294l-166 156v690h-295c53.333 -58.667 84.666 -117.334 93.999 -176.001c9.33301 -42.667 14 -78.334 14 -107.001c0 -32.667 -8 -70 -24 -112c-38.667 -80.667 -98 -130.667 -178 -150c-24.667 -2.66699 -39 -4 -43 -4
c-36 0 -67.667 7.66699 -95 23c-35.333 21.333 -79.666 52.666 -132.999 93.999c-46 38 -79.333 74 -100 108c-30 53.333 -59.333 112 -88 176c-19.333 42.667 -37.666 95.334 -54.999 158.001c-19.333 65.333 -29 98.666 -29 99.999h61c0 -4 9.66699 -34.667 29 -92
c19.333 -53.333 39 -98.333 59 -135c27.333 -46 51.333 -82 72 -108c18 -23.333 44.667 -46.666 80 -69.999l55 -31c10 -6.66699 26.333 -14 49 -22c18 -7.33301 33 -11 45 -11c12.667 0 29.334 5 50.001 15c38 22 61.667 58.667 71 110c0 26 -2.66699 50 -8 72
c-4 22 -10 42.667 -18 62c-11.333 20 -19.666 38.333 -24.999 55c-18 35.333 -46.667 78.333 -86 129c-43.333 44.667 -70.666 70.667 -81.999 78h580v286h-969z" />
    <glyph glyph-name="i" unicode="i" horiz-adv-x="588" 
d="M0 1296v138h719v-138h-387l387 -536v-129c-56 -62.667 -126.333 -94 -211 -94c-61.333 0 -132.333 25.667 -213 77c-57.333 41.333 -100.333 79.666 -129 114.999c-30 36.667 -45 82.334 -45 137.001v430h-121zM270 791c0 -46.667 20.002 -85.667 60.002 -117
c38 -30 83 -46.333 135 -49c35.333 0 73.666 14.333 114.999 43c39.333 31.333 68.666 56.333 87.999 75l-398 547v-499z" />
    <glyph glyph-name="j" unicode="j" horiz-adv-x="1262" 
d="M0 1296l0.000976562 138.001h1264v-138h-297v-1296l-158 158v379c-52 -36 -111.333 -66.333 -178 -91c-76.667 -24 -136.667 -36 -180 -36c-101.333 6.66699 -189 55.667 -263 147c-58.667 75.333 -88 162.666 -88 261.999c11.333 52 30.666 93.667 57.999 125
c34 32.667 76.333 62.667 127 90c61.333 35.333 136.333 53 225 53c130 -8 229.667 -69.333 299 -184v393h-809zM788.001 858.001c-10.667 22 -34.332 37.666 -70.999 46.999c-34 14 -76.333 21 -127 21c-61.333 0 -115.333 -10.333 -162 -31
c-53.333 -23.333 -104.666 -59.666 -153.999 -108.999c-44.667 -46 -67 -92.333 -67 -139c0 -20.667 4.66699 -37.667 14 -51c19.333 -28.667 65.666 -43 138.999 -43c71.333 0 135.666 14.333 192.999 43c49.333 22 101.333 61.667 156 119c52.667 53.333 79 101 79 143z
" />
    <glyph glyph-name="k" unicode="k" horiz-adv-x="1204" 
d="M0 1296l0.000976562 138h1204v-138h-301v-1296l-151 158v428c-54.667 -32.667 -129.334 -49 -224.001 -49c-103.333 10.667 -194 63.667 -272 159c-69.333 86 -104 176.333 -104 271v329h-152zM303.001 881c0 -71.333 20.666 -128 61.999 -170
c39.333 -44 79.333 -66 120 -66c38.667 0 88 20 148 60c54.667 34 94.334 77 119.001 129v462h-449v-415z" />
    <glyph glyph-name="l" unicode="l" horiz-adv-x="508" 
d="M127 1296l-127 0.000976562v138h150c-36 52.667 -61.333 107 -76 163c-16.667 66 -25 117.333 -25 154c0 38 4.66699 70 14 96c32 90 85.333 152.333 160 187c41.333 16 79.666 24 114.999 24s78.333 -6.66699 129 -20c60 -12.667 131 -51.667 213 -117
c52 -39.333 95.667 -84.333 131 -135c45.333 -60 83 -129 113 -207c20 -61.333 34.333 -114 43 -158h-41c-18 64.667 -48.667 135.667 -92 213c-38.667 72.667 -77.667 126 -117 160c-23.333 22 -54.666 49.333 -93.999 82c-22 14.667 -50.667 25 -86 31
c-20.667 5.33301 -44.667 8 -72 8c-42.667 0 -87.667 -10.333 -135 -31c-80.667 -35.333 -132.667 -90 -156 -164c-6.66699 -27.333 -10 -53.333 -10 -78c0 -25.333 5.33301 -56 16 -92c15.333 -44.667 42 -83.334 80 -116.001h248v-138h-215v-1296l-166 170v1126z" />
    <glyph glyph-name="m" unicode="m" horiz-adv-x="502" 
d="M-330 688v209.001c66 57.333 137 88 213 92c96 0 182.667 -26.667 260 -80c93.333 -64 153 -149.333 179 -256c9.33301 -35.333 14 -71.333 14 -108c0 -41.333 -11 -103 -33 -185c-13.333 -57.333 -42 -118 -86 -182l-174 123c65.333 53.333 111 124.333 137 213
c19.333 66.667 29 113 29 139c0 36 -9.66699 67.667 -29 95c-34 55.333 -96.667 84 -188 86c-40 0 -98.667 -16 -176 -48c-48 -22.667 -96.667 -55.334 -146 -98.001zM-330 1296v138h832v-138h-832z" />
    <glyph glyph-name="n" unicode="n" horiz-adv-x="1442" 
d="M0 1296l0.000976562 138h1442v-138h-297v-1296l-168 158v704c-50.667 -13.333 -100 -40 -148 -80c-35.333 -27.333 -70.666 -70.333 -105.999 -129c-24.667 -38 -43 -74.667 -55 -110l-164 119l92 112c-16.667 46.667 -48.667 80 -96 100
c-28.667 11.333 -54.667 17 -78 17c-12.667 0 -34.667 -3.33301 -66 -10c-42 -12.667 -74.667 -33.334 -98 -62.001c-18 -22 -30.333 -45.667 -37 -71c-5.33301 -19.333 -8 -53 -8 -101c0 -13.333 2.66699 -27.666 8 -42.999l25 -51c13.333 -19.333 20 -31 20 -35
c23.333 -39.333 45.333 -69.333 66 -90c31.333 -31.333 68.666 -66 111.999 -104c8.66699 -6 23 -18.333 43 -37l43 -35c3.33301 -1.33301 7 -4 11 -8c5.33301 -4 8.66602 -6.66699 9.99902 -8l-41 -52c-20.667 10 -94.334 68.667 -221.001 176
c-61.333 54.667 -107.666 100 -138.999 136c-27.333 32.667 -49.333 73.334 -66 122.001c-28.667 92 -43 151 -43 177c0 31.333 6 60 18 86c30 72 84 119.667 162 143c40 6.66699 64 10 72 10c32.667 0 75.667 -9.33301 129 -28c49.333 -16.667 95 -46 137 -88
c32.667 -33.333 57.334 -69 74.001 -107c56 52 100.333 87.667 133 107c58.667 35.333 101.667 58.333 129 69c2.66699 0 7.33398 1.33301 14.001 4c6 1.33301 11 2.66602 15 3.99902c9.33301 4 18.666 7 27.999 9c11.333 4 19.666 6 24.999 6v286h-977z" />
    <glyph glyph-name="o" unicode="o" horiz-adv-x="1239" 
d="M0 1296l0.000976562 137.999h1239v-138h-281v-1296l-163 158v370c-80.667 -91.333 -184 -137.666 -310 -138.999c-50 0 -94.333 6.33301 -133 19c-77.333 20 -144 63 -200 129c-68.667 83.333 -103 181.333 -103 294c62.667 0 118 16.667 166 50
c49.333 34 78.666 77.667 87.999 131c4 13.333 6 36.333 6 69c0 97.333 -36.667 169 -110 215h-199zM451.001 980.999c-10 -61.333 -43 -120.668 -99 -178.001c-53.333 -57.333 -117.333 -95.666 -192 -114.999c31.333 -98 98 -162 200 -192
c37.333 -7.33301 61.333 -11 72 -11c62.667 0 122 22 178 66c52 42 97 98 135 168c30.667 61.333 46 128.333 46 201v376h-410c50.667 -66.667 76 -147 76 -241c0 -19.333 -2 -44 -6 -74z" />
    <glyph glyph-name="p" unicode="p" horiz-adv-x="1370" 
d="M0 1296l-0.00195312 137.995h1374v-138h-368c40.667 -51.333 74.667 -121 102 -209c10.667 -42 16 -89 16 -141c-1.33301 -56 -19.666 -106.333 -54.999 -151c-39.333 -52 -89.666 -83 -150.999 -93c62.667 -38 113 -88.333 151 -151c48 -76.667 72 -145.667 72 -207
c0 -79.333 -22 -149 -66 -209c-64 -87.333 -154 -131.666 -270 -132.999c-54.667 0 -102.334 9 -143.001 27c-44 20 -92 48 -144 84c-40.667 28.667 -70.667 56 -90 82c-18 21.333 -52.667 71 -104 149c-26 41.333 -50 82.333 -72 123l-37 68
c-12 22.667 -21 38.334 -27 47.001c-17.333 35.333 -39.666 77.666 -66.999 126.999c-34 56 -51 86.667 -51 92l43 30c5.33301 -13.333 30.333 -58.333 75 -135c46.667 -77.333 92 -146.333 136 -207c10.667 -13.333 22 -29 34 -47c14 -16 21.667 -25.333 23 -28
c18 -27.333 32.333 -46.666 43 -57.999c14.667 -17.333 35 -35.666 61 -54.999c54.667 -42 101.334 -71.333 140.001 -88c39.333 -19.333 88.333 -29 147 -29c64 11.333 114.667 40 152 86c35.333 46.667 53 109.667 53 189c-1.33301 92.667 -40.333 166.334 -117 221.001
c-61.333 -23.333 -116 -37.666 -164 -42.999c-46 -8 -96.333 -12 -151 -12l-80 206c9.33301 -1.33301 29 -3.33301 59 -6c18 -1.33301 48 -2 90 -2c44 0 80.333 2.66699 109 8c62.667 10 111 20.333 145 31c33.333 11.333 63.333 32 90 62c41.333 44.667 66 89.667 74 135
c0 44.667 -14.333 90.334 -43 137.001c-24.667 39.333 -48.334 72.666 -71.001 99.999h-918z" />
    <glyph glyph-name="q" unicode="q" horiz-adv-x="1204" 
d="M989 0l-154.998 157.999v465l-482 -267l-63 146l516 289c-31.333 55.333 -71 98.333 -119 129c-46.667 28.667 -74 45 -82 49c-14.667 9.33301 -36.334 14 -65.001 14c-33.333 0 -76.333 -12.333 -129 -37l-183 -98l-77 156c68 46 138 76.667 210 92
c44 6.66699 86.333 10 127 10c33.333 0 54.666 -0.666992 63.999 -2c60 -9.33301 119.333 -40.666 178 -93.999c54.667 -52 89.667 -99.333 105 -142v428h-834v138h1206v-138h-217v-1296z" />
    <glyph glyph-name="r" unicode="r" horiz-adv-x="1532" 
d="M80 1055h889.002v-160c-16.667 0 -31 0.666992 -43 2h-74c-126.667 0 -202.334 -10.333 -227.001 -31c-36 -30 -65.333 -60 -88 -90c-22 -26 -33 -56 -33 -90c0 -23.333 6 -49.333 18 -78c19.333 -50.667 62.333 -79.334 129 -86.001c72.667 0 158.667 33.667 258 101
c75.333 51.333 134.666 114 177.999 188v-215c-42 -57.333 -95.667 -102.333 -161 -135c-63.333 -34 -143.333 -51 -240 -51c-72 8 -135.333 48 -190 120c-44 54.667 -66.667 111.334 -68 170.001c0 82 12.333 149 37 201h-313zM0.00195312 1296v138h1534v-138h-285v-1294
l-162 164v1130h-1087z" />
    <glyph glyph-name="s" unicode="s" horiz-adv-x="1599" 
d="M0 1296v138.001h1599v-138h-645v-385c18 16.667 51.667 32.334 101 47.001c42 12.667 85 19 129 19c129.333 -5.33301 220 -66 272 -182c24.667 -54.667 37 -105.334 37 -152.001c0 -75.333 -26.667 -144.333 -80 -207c-56 -72 -118.667 -117 -188 -135l-66 129l62 29
c28.667 13.333 59.334 30.333 92.001 51c70.667 50.667 106 110.667 106 180c0 30 -6.66699 56 -20 78c-16.667 32.667 -42.667 53 -78 61c-38 7.33301 -83.667 11 -137 11c-30 -1.33301 -62.333 -16.333 -97 -45c-34 -24.667 -64.667 -54.667 -92 -90
c-27.333 -32 -41 -49.333 -41 -52v-653l-166 158v301c-24 -27.333 -64 -53.333 -120 -78c-56 -26 -112 -39 -168 -39c-96 6.66699 -174.667 40.667 -236 102c-64 62 -98.667 138 -104 228c0 86 26 162.333 78 229c52.667 65.333 118.667 105 198 119c31.333 4 53.333 6 66 6
c125.333 0 220.666 -53.333 285.999 -160v-61c-58.667 52 -126 78 -202 78c-80.667 0 -149.667 -26.667 -207 -80c-72.667 -68.667 -109 -140.334 -109 -215.001c0 -40 11 -73 33 -99c26 -28.667 58.667 -43 98 -43c56 0 132.667 32.333 230 97c38 27.333 72 63.333 102 108
c28.667 44 47 84.333 55 121v524h-788z" />
    <glyph glyph-name="t" unicode="t" horiz-adv-x="1255" 
d="M0 1296l0.000976562 138.002h1260v-138h-314v-1296l-145 158v723h-285c-102.667 0 -189.334 -28.667 -260.001 -86c-32.667 -24.667 -49 -84.334 -49 -179.001c0 -76 15 -133.333 45 -172l287 -399l-35 -39l-277 346c-40.667 53.333 -74 118.333 -100 195
c-26 73.333 -39 138.666 -39 195.999c0 14 2 30 6 48c40 162 133.667 243 281 243h426v262h-801z" />
    <glyph glyph-name="u" unicode="u" horiz-adv-x="1346" 
d="M1346 1296h-314v-1296l-166 158v1138h-352v-729v-37c1.33301 -9.33301 2 -21.333 2 -36c0 -57.333 -16.333 -86 -49 -86c-27.333 0 -52 15 -74 45l-227 301c-28.667 40.667 -43 78 -43 112c6.66699 19.333 25.667 29 57 29h185v401h-365v138h1346v-138z" />
    <glyph glyph-name="v" unicode="v" horiz-adv-x="1534" 
d="M0 1296v138.002h1534v-138h-274v-1345l-162 207v65c-38.667 -42 -81.667 -72.667 -129 -92c-56 -22 -106.667 -33 -152 -33c-65.333 0 -150.666 20.667 -255.999 62c-32.667 14.667 -62.667 31 -90 49c-8 5.33301 -50.333 36.666 -127 93.999
c-94 74 -163.667 143 -209 207c-5.33301 8 -17 23.667 -35 47c-13.333 20.667 -23.333 35.667 -30 45c-6 8 -13 21.667 -21 41c-5.33301 9.33301 -12 25 -20 47c-19.333 72.667 -29 111 -29 115c0 17.333 2.66699 31.666 8 42.999c18 44.667 41.333 70.667 70 78
c14.667 0 31.667 -0.666992 51 -2c28.667 -4 50.667 -6 66 -6c21.333 4 41.666 25.667 60.999 65c15.333 42.667 23 83.667 23 123c0 80.667 -31 144 -93 190h-186zM401 1040c0 -48.667 -6.66699 -116.002 -20 -202.002c-4 -20.667 -8.66699 -37.334 -14 -50.001
c-6 -12 -11.667 -29 -17 -51c-5.33301 -12 -8.66602 -21.333 -9.99902 -28c-2.66699 -8.66699 -5.33398 -16.334 -8.00098 -23.001c-1.33301 -13.333 -11.666 -33.666 -30.999 -60.999c-18 -27.333 -27 -51.333 -27 -72c0 -18 5 -34.333 15 -49c12 -18 25 -33.667 39 -47
c13.333 -19.333 28.333 -35.666 45 -48.999c47.333 -53.333 97.666 -93.666 150.999 -120.999c57.333 -31.333 111.333 -50.666 162 -57.999c30 -5.33301 65 -8 105 -8c50 0 99.667 10.333 149 31c57.333 26 106.333 65.667 147 119v172c-12 -4 -24.667 -11 -38 -21
c-12.667 -8 -23.667 -14 -33 -18c-6.66699 -2.66699 -18.334 -7.66699 -35.001 -15c-15.333 -6.66699 -27.666 -12.667 -36.999 -18c-19.333 -9.33301 -40.333 -18.333 -63 -27c-20.667 -5.33301 -42.667 -8 -66 -8c-88.667 0 -167 37 -235 111
c-56 66.667 -84 137.667 -84 213c0 87.333 19 154.333 57 201c52 61.333 132.667 92 242 92c38 0 91 -13.667 159 -41c38.667 -15.333 84.667 -41.333 138 -78v362h-740c32.667 -92.667 49 -178 49 -256zM1053 877c-7.33301 8 -37.333 19.333 -90 34
c-52 12.667 -100.667 19 -146 19c-34 0 -58.667 -4 -74 -12c-42 -18 -76.667 -51.667 -104 -101c-26 -48 -39 -93 -39 -135c0 -22 2.66699 -37 8 -45c28.667 -48 83.334 -72 164.001 -72c48 0 91.667 9.66699 131 29c45.333 22 83.666 55.333 114.999 100
c34 45.333 51 88.333 51 129c0 23.333 -5.33301 41.333 -16 54z" />
    <glyph glyph-name="w" unicode="w" horiz-adv-x="1305" 
d="M848 1296l-191.002 -0.00195312l-98 138h746v-138h-289v-1296l-168 158v241c-44 -51.333 -93.333 -93.666 -148 -126.999c-57.333 -34 -111.666 -57 -162.999 -69c-79.333 -12.667 -122.333 -19 -129 -19c-33.333 0 -66.333 6.33301 -99 19
c-58.667 23.333 -106.334 63 -143.001 119c-34 54 -51 114 -51 180c0 35.333 0.666992 58.333 2 69c8 62 35.333 123 82 183c28.667 39.333 65.334 72.666 110.001 99.999c-43.333 18 -88.333 46 -135 84c-58.667 46.667 -97.667 93 -117 139
c-17.333 46.667 -26 86.334 -26 119.001c0 34 8.66699 68 26 102c37.333 75.333 92 118.333 164 129c88.667 0 153 -19.667 193 -59c35.333 -43.333 53 -97.333 53 -162c-5.33301 -52 -39.333 -93.667 -102 -125c-16.667 -9.33301 -44.667 -14 -84 -14
c-32 0 -73.667 6.66699 -125 20c2.66699 -35.333 17 -70.666 43 -105.999c38 -53.333 86.333 -83.333 145 -90c50.667 18 88.334 27.667 113.001 29h90l135 -140h-160c-79.333 -9.33301 -144 -32.333 -194 -69c-40 -27.333 -68.667 -54 -86 -80c-22 -23.333 -35 -54 -39 -92
c0 -83.333 13 -138 39 -164c20 -20.667 54.667 -31 104 -31h68c61.333 4 136.333 34.667 225 92c61.333 40 106.333 81 135 123c49.333 72.667 74 132 74 178v559zM429.998 1249c0 36 -16.333 64.667 -49 86c-30 22 -65.667 33 -107 33c-38 0 -72.667 -13.667 -104 -41
c-31.333 -26 -47 -60 -47 -102c8 -63.333 62.667 -95 164 -95c38 3.33301 71.333 15.5 100 36.5s43 48.5 43 82.5z" />
    <glyph glyph-name="x" unicode="x" horiz-adv-x="1147" 
d="M0 1296v138.002h1147v-138h-279v-352h-432c-50.667 0 -88.667 -2 -114 -6c-67.333 -19.333 -105 -49.333 -113 -90c0 -41.333 6 -78.333 18 -111c12.667 -36.667 36.667 -70 72 -100c54.667 32.667 100.334 55.334 137.001 68.001c67.333 21.333 126.666 32 177.999 32
c76.667 -2.66699 144.334 -27.667 203.001 -75c62.667 -50.667 98.334 -114.334 107.001 -191.001c0 -84.667 -14.333 -151 -43 -199c-23.333 -40.667 -53.333 -74 -90 -100l-103 117c44 16 80.333 46.667 109 92c22.667 45.333 34 80.666 34 105.999
c0 41.333 -19.667 77.666 -59 108.999c-18 18 -43.333 27 -76 27c-17.333 0 -60.333 -9 -129 -27c-99.333 -23.333 -174.333 -71 -225 -143c-42 -63.333 -63 -118 -63 -164c0 -48 21 -101.333 63 -160c27.333 -35.333 70.333 -68.666 129 -99.999c48 -24.667 91 -41 129 -49
l-27 -50c-62.667 15.333 -126.667 41.333 -192 78c-65.333 38.667 -106.333 64 -123 76c-23.333 14.667 -45 39.334 -65 74.001c-38.667 62.667 -58 141.667 -58 237c6.66699 78 41 145 103 201c-49.333 44 -83 91.667 -101 143c-20.667 57.333 -31 104.666 -31 141.999
c0 31.333 7.66699 62 23 92c19.333 39.333 48.666 68.666 87.999 87.999c31.333 17.333 82.666 26 153.999 26h331v209h-702z" />
    <glyph glyph-name="y" unicode="y" horiz-adv-x="1335" 
d="M887 1296l-219.001 0.00390625l-121 138h788v-138h-282v-1296l-166 158v364c-56 -43.333 -105.333 -73.333 -148 -90c-73.333 -30 -130.666 -45 -171.999 -45c-48.667 0 -110.667 21.333 -186 64c-62.667 32.667 -127.667 92.667 -195 180
c-50 72 -85.333 133.333 -106 184c5.33301 0 31.333 3.33301 78 10c44.667 7.33301 80 16.333 106 27c53.333 20.667 97 46.667 131 78c52 47.333 82 95.666 90 144.999c0 60 -6.66699 110 -20 150c-34 70.667 -81 106 -141 106c-71.333 0 -118 -28.667 -140 -86
c-8 -14.667 -12 -33 -12 -55c0 -30 9.66699 -60.667 29 -92c34 -48 76.333 -72 127 -72v-45c-53.333 0 -95.666 8.33301 -126.999 25c-32.667 18.667 -63.334 54 -92.001 106c-24.667 52 -37 99.667 -37 143c2.66699 67.333 27 116.666 73 147.999c26 16 66.333 24 121 24
c23.333 0 48.666 -6.66699 75.999 -20c18 -10.667 42 -28.334 72 -53.001c24.667 -22 37.667 -33.667 39 -35c8 -2.66699 25 -21.667 51 -57c28.667 -37.333 52.334 -76.333 71.001 -117c23.333 -46.667 35 -91 35 -133c-6.66699 -50.667 -21.667 -92.334 -45 -125.001
c-23.333 -35.333 -59.333 -71 -108 -107c-61.333 -44.667 -127 -72.667 -197 -84c46.667 -91.333 121.667 -147.333 225 -168c33.333 -4 53.333 -6 60 -6c96.667 0 193 56 289 168c17.333 18 30 46 38 84c10 38 15 71.333 15 100v422z" />
    <glyph glyph-name="z" unicode="z" horiz-adv-x="1704" 
d="M0 1296v138h127l76 -138h-203zM711 891c-50.667 -41.333 -119.667 -61.998 -207 -61.998c-74 7.33301 -132.667 39.666 -176 96.999c-46.667 61.333 -70 130.333 -70 207c0 81.333 24.667 155 74 221c53.333 64 117.333 97.333 192 100c67.333 0 122 -20.333 164 -61
c44 -40 85 -95.333 123 -166c32.667 -58.667 51 -135.334 55 -230.001c0 -30 -1.33301 -55.667 -4 -77c-5.33301 -100 -29 -187.667 -71 -263c-38.667 -72 -97.667 -140 -177 -204l258 -408l-34 -45l-293 424c-19.333 -9.33301 -67.333 -14 -144 -14
c-46 10.667 -84.667 29 -116 55c-32.667 24.667 -49 56.667 -49 96c0 31.333 9.33301 61.333 28 90c18 23.333 42.667 38.333 74 45c26 0 54.667 -9.33301 86 -28c26 -14 51.333 -34 76 -60c20 -23.333 30 -37 30 -41c64.667 30 112 75 142 135c26 48 39 111 39 189z
M504 1378c-34 -1.33301 -60.666 -19.0029 -79.999 -53.0029c-16.667 -31.333 -25 -71.666 -25 -120.999c0 -35.333 5 -70.666 15 -105.999c12 -53.333 34.333 -97.166 67 -131.499s75 -51.5 127 -51.5c54.667 11.333 82 62 82 152c0 39.333 -2.66699 73.333 -8 102
c-10.667 58.667 -30.334 108 -59.001 148c-30 40.667 -69.667 61 -119 61zM901.001 1296l-70 138h873v-138h-285v-1296l-164 158v1138h-354z" />
    <glyph glyph-name="braceleft" unicode="{" horiz-adv-x="2" 
d="M-143 1878c-10 18 -31.334 34.999 -64.001 50.999c-32.667 22 -68 33 -106 33c-30 0 -58.667 -9 -86 -27c-53.333 -32.667 -80 -98.667 -80 -198c0 -48 11 -103.333 33 -166c16 -57.333 28.667 -94.333 38 -111h-24c-35.333 50.667 -60.666 94.334 -75.999 131.001
c-39.333 98.667 -59 182.667 -59 252c4 58.667 11.167 106.5 21.5 143.5s33.833 65.167 70.5 84.5c26 14.667 54.667 22 86 22c34 0 73.667 -9.66699 119 -29c56 -21.333 98.333 -59.333 127 -114v-72z" />
    <glyph glyph-name="bar" unicode="|" horiz-adv-x="2" 
d="M-418 604v-186l-416 -418l-92 88z" />
    <glyph glyph-name="braceright" unicode="}" horiz-adv-x="2" 
d="M-920 2036l-113.999 159.002c43.333 12.667 83 19 119 19c36.667 0 63.667 -2 81 -6c86 -14 168 -64 246 -150c38.667 -44.667 77 -119 115 -223c27.333 -70.667 45.666 -132.667 54.999 -186c11.333 -52 17.666 -114.333 18.999 -187h-52
c-27.333 31.333 -56.666 58 -87.999 80c-52.667 38 -114.667 73 -186 105c-66.667 31.333 -111.667 51.666 -135 60.999c-22 9.33301 -53.333 17.666 -94 24.999c-36 5.33301 -72.333 8 -109 8c-35.333 0 -68 -2.66699 -98 -8l-64 188c112 0 216.667 -19 314 -57
c42 -14 105.333 -50.333 190 -109c23.333 -14.667 84.666 -63.667 183.999 -147c6 -1.33301 15 -7.66602 27 -18.999c6.66699 -6.66699 13.667 -12 21 -16c5.33301 -5.33301 10 -11 14 -17c6.66699 -8 14.667 -14.667 24 -20
c-1.33301 45.333 -10.666 91.666 -27.999 138.999c-18 58.667 -57 123.667 -117 195c-54.667 69.333 -103.667 113 -147 131c-54.667 23.333 -113.667 35 -177 35z" />
    <glyph glyph-name="asciitilde" unicode="~" horiz-adv-x="1167" 
d="M0 1296v138h1167v-138h-1167zM332 825l-62 119c46.667 34 94.667 58.667 144 74c43.333 13.333 98.666 20 165.999 20c46 -4 102 -27 168 -69c46 -30 84 -68.333 114 -115c48 -23.333 98 -35 150 -35c48.667 0 100.334 17.667 155.001 53v-141
c-54.667 -32.667 -104.334 -49.667 -149.001 -51c-62.667 0 -110.667 4.66699 -144 14c-18.667 -68 -58.667 -125.333 -120 -172c-72.667 -57.333 -157.334 -86 -254.001 -86c-75.333 0 -158 26 -248 78c-18 9.33301 -44 28.333 -78 57
c-16 16.667 -28.333 28.334 -37 35.001c-8 6.66699 -12.667 10.667 -14 12v111c6.66699 -8 28.334 -32 65.001 -72c30 -30 60.333 -52.333 91 -67c61.333 -26 140.333 -39 237 -39c66.667 6.66699 115.334 16.334 146.001 29.001c35.333 13.333 64 37.666 86 72.999
c25.333 41.333 38 85.666 38 132.999c-6.66699 41.333 -29 76.333 -67 105c-35.333 28.667 -76.333 43 -123 43c-32.667 0 -82.667 -13 -150 -39c-32.667 -14 -70.667 -37.333 -114 -70z" />
    <glyph glyph-name="Adieresis" unicode="&#xc4;" horiz-adv-x="569" 
d="M430 1466v-1874h-397v150h217v1575h-217v149h397z" />
    <glyph glyph-name="Aring" unicode="&#xc5;" horiz-adv-x="684" 
d="M580 1491l54.999 -0.000976562v-156h-31c-65.333 -1.33301 -110.333 -13.666 -135 -36.999c-24.667 -22.667 -37 -80 -37 -172c0 -184 -8 -317 -24 -399c-18 -82 -79.667 -148.333 -185 -199c87.333 -36.667 144 -91.167 170 -163.5s39 -168.5 39 -288.5
c0 -160 7.66699 -258.333 23 -295c13.333 -36.667 63 -55 149 -55h31v-156h-55c-16.667 0 -34.667 0.666992 -54 2c-18.667 0 -37.667 2 -57 6c-24.667 4 -48.667 12.333 -72 25c-24.667 12 -46.334 31 -65.001 57c-32.667 45.333 -52.167 97.333 -58.5 156
s-9.5 139.667 -9.5 243v4v3c-1.33301 98 -10.666 186 -27.999 264c-18 76 -77.667 114.667 -179 116v166c101.333 0 160.833 38.333 178.5 115s27.167 164.667 28.5 264v4v2c0 105.333 3.33301 188 10 248c6 58.667 25.333 110 58 154c18.667 26 40.334 45 65.001 57
c23.333 12.667 47.333 21 72 25c19.333 4 38.333 6.66699 57 8h54v2z" />
    <glyph glyph-name="Ccedilla" unicode="&#xc7;" horiz-adv-x="684" 
d="M104 -430l-55.002 -0.000976562v156h31c65.333 0 110.333 11.333 135 34c24.667 23.333 37 80.666 37 171.999c0 183.333 8.83301 316 26.5 398s78.5 148 182.5 198c-87.333 37.333 -144 92 -170 164c-26 72.667 -39 169 -39 289c0 161.333 -7.16699 260.333 -21.5 297
s-64.5 55 -150.5 55l-31 2v156h55c16.667 -1.33301 34.667 -2 54 -2c18.667 -1.33301 37.667 -4 57 -8c24.667 -4 49.334 -12.333 74.001 -25c23.333 -12 44.333 -31 63 -57c34 -45.333 53.833 -97.333 59.5 -156s8.5 -140.667 8.5 -246c0 -99.333 8.66699 -188 26 -266
c18 -78 78.333 -118.333 181 -121v-161c-101.333 -3.33301 -160.833 -43.166 -178.5 -119.499s-27.167 -164.166 -28.5 -263.499v-3v-4v-8v-10c-1.33301 -98 -4.66602 -175 -9.99902 -231c-7.33301 -57.333 -26.666 -107.333 -57.999 -150c-18.667 -26 -39.667 -45 -63 -57
c-24.667 -12.667 -49.334 -21 -74.001 -25c-19.333 -4 -38.333 -6 -57 -6c-19.333 -1.33301 -37.333 -2 -54 -2z" />
    <glyph glyph-name="Eacute" unicode="&#xc9;" horiz-adv-x="2079" 
d="M1317 899l34.998 156h178l-144 -672l-22 -102.5c-5.33301 -25.667 -8 -43.5 -8 -53.5c0 -18.667 5.83301 -34.5 17.5 -47.5s28.834 -19.5 51.501 -19.5c20.667 0 46.667 7.33301 78 22c30 15.333 61.333 36.666 94 63.999c53.333 46 102.666 109.333 147.999 190
c44.667 79.333 67 172.333 67 279c0 186.667 -69.5 338.5 -208.5 455.5s-308.167 175.5 -507.5 175.5c-258 0 -461.667 -86.333 -611 -259c-148.667 -173.333 -223 -374.666 -223 -603.999c0 -274 82 -467 246 -579c162.667 -112 341.334 -173.667 536.001 -185h41
c12.667 -1.33301 25.667 -2 39 -2c146 0 267 18.667 363 56c94 36.667 169 77.667 225 123c28.667 21.333 52.5 43 71.5 65s34.167 40.333 45.5 55l180 2c-6.66699 -12 -23.667 -39 -51 -81c-28.667 -44 -72.334 -90.667 -131.001 -140
c-68.667 -57.333 -159.667 -109 -273 -155c-113.333 -48 -256 -72 -428 -72c-360 0 -618.667 90.667 -776 272c-156.667 180.667 -235 389 -235 625c0 53.333 4.66699 110 14 170c8 60 22.333 120.667 43 182c53.333 168 153.666 322.333 300.999 463
c146 139.333 356.333 209 631 209c272.667 0 480 -75.667 622 -227c142 -153.333 219.333 -320.666 232 -501.999c1.33301 -9.33301 2 -18.333 2 -27v-24c0 -183.333 -56.667 -343.333 -170 -480c-114.667 -137.333 -241 -214.333 -379 -231c-8 -1.33301 -16.333 -2 -25 -2
c-9.33301 -1.33301 -18.666 -2 -27.999 -2c-62.667 0 -107 10.833 -133 32.5s-42.333 46.167 -49 73.5c-3.33301 10 -5.66602 20.333 -6.99902 31l-4 29c-8 -10 -17.333 -20.333 -28 -31l-39 -37c-30 -24.667 -65 -46.334 -105 -65.001
c-40.667 -20.667 -85.667 -31 -135 -31c-104 0 -190 43.667 -258 131c-69.333 86 -104 191 -104 315c0 14 0.666992 28.167 2 42.5l4 43.5c18.667 138 77.334 264.333 176.001 379c96.667 114.667 208.667 172 336 172c18.667 0 46.5 -3.33301 83.5 -10
s75.833 -25.667 116.5 -57c18 -14 36 -30.333 54 -49c16 -19.333 32.333 -42 49 -68v2zM679.998 434c0 -87.333 18.3301 -154.333 54.9971 -201c35.333 -46 75 -74.667 119 -86c6.66699 -1.33301 13.334 -2 20.001 -2c7.33301 -1.33301 14.333 -2 21 -2h12
c2.66699 0 6.33398 0.666992 11.001 2c86 8.66699 164.333 62 235 160c71.333 98.667 107 212.667 107 342c0 96 -23.333 167.667 -70 215c-46.667 48 -100.667 72 -162 72c-79.333 0 -145 -31.333 -197 -94c-51.333 -64.667 -90 -134.334 -116 -209.001
c-11.333 -35.333 -19.666 -70.333 -24.999 -105c-6.66699 -35.333 -10 -66.666 -10 -93.999v2z" />
    <glyph glyph-name="Udieresis" unicode="&#xdc;" horiz-adv-x="1503" 
d="M143 1296h-143v138h924v-138h-205v-563c0 -87.333 -11 -149.333 -33 -186c-35.333 -52 -87.333 -81.333 -156 -88c-38 0 -78 14.333 -120 43c-48 31.333 -86.333 60 -115 86c-101.333 100.667 -152 190.667 -152 270v438zM295 815c0 -98 14.334 -154.668 43.001 -170.001
c38 -24.667 73.333 -37 106 -37c24.667 4 46.667 15.667 66 35c23.333 20.667 35.666 38.334 36.999 53.001c16 74 24 143.667 24 209v391h-276v-481zM1061 1296h-137v138h585v-138h-284v-1296l-164 158v1138z" />
    <glyph glyph-name="aring" unicode="&#xe5;" horiz-adv-x="1049" 
d="M653 242l-57.001 56.999c-75.333 0 -135.333 -13.667 -180 -41l-41 -22c-15.333 -7.33301 -27.666 -13.666 -36.999 -18.999c-23.333 -12 -44.666 -29 -63.999 -51c-16 -16.667 -24 -38.667 -24 -66c0 -13.333 4.66699 -32.333 14 -57
c11.333 -27.333 32.666 -41 63.999 -41c20 0 40.333 4.66699 61 14c20.667 10 48 24.333 82 43c34 20.667 53.667 32.334 59 35.001c57.333 37.333 98.333 86.666 123 147.999zM192.999 251.999c25.333 49.333 61.999 82.666 109.999 99.999
c-110.667 57.333 -183.667 146 -219 266c-18 54.667 -27 101.334 -27 140.001c0 24.667 5 52 15 82c17.333 57.333 51.333 102.333 102 135c50.667 34 107.334 51 170.001 51h244v270h-588v140h1049v-140h-295v-422h-330c-76.667 0 -136.667 -19 -180 -57
c-61.333 -48 -92 -110 -92 -186c0 -91.333 30 -155.666 90 -192.999c32.667 -18.667 77 -28 133 -28c47.333 9.33301 84 35.666 110 78.999c-12 18 -18 39.333 -18 64c0 13.333 4 31.666 12 54.999c19.333 45.333 72 68 158 68c87.333 -1.33301 142 -45 164 -131
c2.66699 -30 4 -46.333 4 -49c-1.33301 -31.333 -11 -63.666 -29 -96.999c-20.667 -32.667 -48 -55 -82 -67l269 -273l-66 -57l-137 139c-23.333 -36.667 -57 -74.667 -101 -114c-47.333 -41.333 -80.666 -67.333 -99.999 -78c-24.667 -18 -57.334 -29.667 -98.001 -35
c-62.667 0 -110.667 4.66699 -144 14c-32.667 10 -64 26.333 -94 49c-43.333 40 -65 90 -65 150c0 44 11.667 85.667 35 125z" />
    <glyph glyph-name="ccedilla" unicode="&#xe7;" horiz-adv-x="2185" 
d="M264 1016l-86.002 194c22 16.667 65.667 34.667 131 54c61.333 21.333 123.666 32 186.999 32c14.667 0 35 -2 61 -6c184.667 -34 295.334 -116 332.001 -246c13.333 -44.667 20 -87.667 20 -129c0 -40.667 -7.33301 -77.334 -22 -110.001
c-20.667 -34 -46.667 -69 -78 -105c4 0 23.667 -8 59 -24c41.333 -15.333 77 -23 107 -23c80.667 0 155 44.333 223 133c36.667 48 70 96.667 100 146l48 72l43 65c20 31.333 44.333 61.333 73 90c49.333 50.667 94.333 87 135 109c45.333 23.333 94 35 146 35
c57.333 -4.66699 107.666 -24 150.999 -58c44 -34 79.667 -80.333 107 -139c27.333 -57.333 41 -114.666 41 -171.999c0 -53.333 -11.667 -106.666 -35 -159.999c-23.333 -52 -56.166 -94.333 -98.499 -127s-90.166 -49.667 -143.499 -51c-52.667 0 -101.667 18.333 -147 55
c-46.667 34 -83.667 74.333 -111 121c-26 41.333 -39 72.666 -39 93.999c-5.33301 -21.333 -34 -66.333 -86 -135c-50 -65.333 -95.667 -110.333 -137 -135c-20.667 -14 -43 -26.333 -67 -37c-26 -12 -43.333 -19.333 -52 -22c-12 -6 -28.333 -9 -49 -9
c-38 0 -98.667 15 -182 45c57.333 -62.667 86 -143 86 -241c0 -14 -2 -36.667 -6 -68c-19.333 -98 -50.166 -162.667 -92.499 -194s-111.166 -54.666 -206.499 -69.999c-79.333 0 -158.666 24.667 -237.999 74c-84.667 53.333 -153.667 110.666 -207 171.999
c-56 62.667 -85.333 105 -88 127l45 45c4.66699 -11.333 30 -38 76 -80c44 -39.333 97.333 -76.333 160 -111c61.333 -32.667 122.666 -49 183.999 -49c140.667 16.667 222.667 77.334 246 182.001c4 15.333 6 34.666 6 57.999c0 46 -11.667 90.333 -35 133
c-22.667 38 -56.667 66.667 -102 86c-44 -35.333 -82.333 -60.666 -115 -75.999c-42 -20.667 -87.667 -35.667 -137 -45l-104 178c18.667 0 101 36.333 247 109c120.667 62.667 181 129.667 181 201c0 17.333 -5 38.333 -15 63c-21.333 61.333 -76.666 92 -165.999 92
c-32.667 0 -80.334 -8 -143.001 -24c-40.667 -12.667 -82.334 -32.667 -125.001 -60c-50.667 -32.667 -78 -52.334 -82 -59.001zM1806 1169c-58.667 0 -115.332 -22.333 -169.999 -67c-54.667 -44 -82 -98 -82 -162c4.66699 -52 26 -97 64 -135
c35.333 -35.333 79 -53 131 -53c56 0 103.667 19.667 143 59c41.333 45.333 62.666 94.333 63.999 147c0 49.333 -13.667 95.333 -41 138c-26 38 -62.333 62.333 -109 73zM647 1720c80.667 -110.667 195.332 -166 343.999 -166c139.333 7.33301 246.666 68.333 321.999 183
l121 -115c-89.333 -125.333 -215.666 -188 -378.999 -188c-60 0 -118 11.333 -174 34c-53.333 24.667 -100.666 58.334 -141.999 101.001c-38 43.333 -68.667 93.666 -92 150.999zM882.998 1823l108 110l111 -110l-111 -109z" />
    <glyph glyph-name="eacute" unicode="&#xe9;" horiz-adv-x="1296" 
d="M0 1296l-0.00292969 137.997h1298v-138h-344v-249h-366c-48 0 -82.333 -5 -103 -15c-31.333 -9.33301 -47 -38.666 -47 -87.999c8.66699 -28.667 38.667 -45 90 -49c23.333 0 50.666 2.66699 81.999 8c28.667 5.33301 56.667 8 84 8
c84.667 -4 150.334 -20.333 197.001 -49c65.333 -36.667 105.666 -90.667 120.999 -162c0 -94 -16.333 -158 -49 -192c-44 -52 -111.667 -80.667 -203 -86c-75.333 0 -152.666 19 -231.999 57l-67 39c-23.333 19.333 -39 33 -47 41l-54 51c-13.333 18 -32.333 38.667 -57 62
c-65.333 72 -109.666 129.333 -132.999 172l37 28c6.66699 -13.333 27.667 -42 63 -86c38.667 -46 72.334 -81.333 101.001 -106c42 -36.667 78.667 -63.334 110 -80.001c31.333 -18 69 -29 113 -33c91.333 0 157 11 197 33c70.667 38 106 76.333 106 115
c0 44.667 -15 74 -45 88c-5.33301 4 -15 6 -29 6c-13.333 0 -30.333 -4 -51 -12c-9.33301 -2.66699 -17.333 -5.66699 -24 -9c-7.33301 -1.33301 -13.666 -3.33301 -18.999 -6c-5.33301 -1.33301 -11.5 -2.66602 -18.5 -3.99902s-14.5 -2.66602 -22.5 -3.99902l-49 -12
c-9.33301 -1.33301 -27 -2 -53 -2c-53.333 8 -87 23 -101 45l-149 205c-18 24.667 -27 50.334 -27 77.001c0 15.333 2 26.333 6 33c10 28.667 36.667 48 80 58c22 4 57 6 105 6h288v112h-788zM1010 943.997l92 80l96 -80l-96 -84zM593.997 450.997l-0.000976562 -443
c0 -62.667 -9 -94 -27 -94c-20 0 -35 9 -45 27l-135 180c-18 26 -27 48.333 -27 67c4.66699 12.667 16.334 19 35.001 19h109v280zM904.996 464.997v-737l-100 98v598z" />
    <glyph glyph-name="iacute" unicode="&#xed;" horiz-adv-x="1163" 
d="M270 791c0 -46.667 20.002 -85.667 60.002 -117c38 -30 83 -46.333 135 -49c35.333 0 73.666 14.333 114.999 43c39.333 31.333 68.666 56.333 87.999 75l-398 547v-499zM332.002 1296l387 -536v-129c-56 -62.667 -126.333 -94 -211 -94
c-61.333 0 -132.333 25.667 -213 77c-57.333 41.333 -100.333 79.666 -129 114.999c-30 36.667 -45 82.334 -45 137.001v430h-121v138h1167v-138h-284v-1296l-164 158v1138h-387z" />
    <glyph glyph-name="ntilde" unicode="&#xf1;" horiz-adv-x="2130" 
d="M981 1296h-981.002v138h1440v-138h-310v-436l-468 2c-67.333 0 -110.666 -5.33301 -129.999 -16c-35.333 -20.667 -55 -45.334 -59 -74.001c0 -49.333 18.333 -87.666 55 -114.999c16.667 -12 36.667 -18 60 -18c9.33301 0 24.333 2 45 6c12 1.33301 29.667 2 53 2
c32.667 5.33301 56.667 8.66602 72 9.99902c31.333 6 58 9 80 9c28.667 0 60 -6.33301 94 -19c70.667 -24.667 132 -73 184 -145c45.333 -68.667 68 -142.334 68 -221.001c-5.33301 -58.667 -36 -118.334 -92 -179.001c-58.667 -60 -136.667 -94 -234 -102
c-60 0 -112 7.66699 -156 23c-47.333 16 -95 39 -143 69c-80.667 49.333 -154.334 110 -221.001 182c-42.667 50.667 -85.667 112.334 -129 185.001c-1.33301 5.33301 -13 25 -35 59c-16 26 -33 56 -51 90l61 35c40 -75.333 86.667 -145.666 140 -210.999
c40.667 -48 83.667 -91.667 129 -131c61.333 -52 115 -89.667 161 -113c40 -16 90.667 -24 152 -24c74 4 138 30.667 192 80c45.333 38 70.666 71.333 75.999 100c8.66699 30 13 54 13 72c0 23.333 -5.66699 43 -17 59c-17.333 24.667 -46 40.334 -86 47.001
c-17.333 0 -31.666 -2 -42.999 -6c-16 -2.66699 -32.333 -7.33398 -49 -14.001c-6.66699 -2.66699 -13.667 -4.66699 -21 -6c-5.33301 -2.66699 -10.666 -5 -15.999 -7c-1.33301 0 -21.666 -6 -60.999 -18c-32.667 -12 -54.667 -18 -66 -18c-38 0 -79 12 -123 36
c-22 12.667 -47.333 38 -76 76c-46 54.667 -86.667 128.334 -122 221.001c0 1.33301 -2.5 6.83301 -7.5 16.5s-9.5 19.167 -13.5 28.5c-10.667 28.667 -16 52 -16 70c2.66699 49.333 34 88.333 94 117c22 9.33301 46 14 72 14h43c12 -1.33301 26.333 -2 43 -2h399v266z
M1270 643l129 133l131 -133l-131 -131z" />
    <glyph glyph-name="uacute" unicode="&#xfa;" horiz-adv-x="2" 
d="M-270 -401l96.0029 -123c-49.333 -31.333 -122.333 -47 -219 -47c-68.667 12 -126.667 42 -174 90c-48 50 -72 108 -72 174c1.33301 69.333 34.666 124 99.999 164c67.333 38 150.666 57 249.999 57c83.333 -10.667 153 -30.334 209 -59.001
c56 -32 120.333 -79.333 193 -142c90 -82 158 -176.667 204 -284h-53c-60 102 -146 190 -258 264c-58.667 39.333 -110.667 69.333 -156 90c-43.333 19.333 -93 29 -149 29c-178.667 0 -272.334 -43 -281.001 -129c0 -30 19.167 -58.667 57.5 -86
s74.5 -41.666 108.5 -42.999c57.333 0 105.333 15 144 45z" />
    <glyph glyph-name="dagger" unicode="&#x2020;" horiz-adv-x="1139" 
d="M479 -346v1212h-399v160h399v406h180v-406h400v-160h-400v-1212h-180z" />
    <glyph glyph-name="degree" unicode="&#xb0;" horiz-adv-x="1296" 
d="M0 1296l-0.00292969 137.997h1298v-138h-344v-249h-366c-48 0 -82.333 -5 -103 -15c-31.333 -9.33301 -47 -38.666 -47 -87.999c8.66699 -28.667 38.667 -45 90 -49c23.333 0 50.666 2.66699 81.999 8c28.667 5.33301 56.667 8 84 8
c84.667 -4 150.334 -20.333 197.001 -49c65.333 -36.667 105.666 -90.667 120.999 -162c0 -94 -16.333 -158 -49 -192c-44 -52 -111.667 -80.667 -203 -86c-75.333 0 -152.666 19 -231.999 57l-67 39c-23.333 19.333 -39 33 -47 41l-54 51c-13.333 18 -32.333 38.667 -57 62
c-65.333 72 -109.666 129.333 -132.999 172l37 28c6.66699 -13.333 27.667 -42 63 -86c38.667 -46 72.334 -81.333 101.001 -106c42 -36.667 78.667 -63.334 110 -80.001c31.333 -18 69 -29 113 -33c91.333 0 157 11 197 33c70.667 38 106 76.333 106 115
c0 44.667 -15 74 -45 88c-5.33301 4 -15 6 -29 6c-13.333 0 -30.333 -4 -51 -12c-9.33301 -2.66699 -17.333 -5.66699 -24 -9c-7.33301 -1.33301 -13.666 -3.33301 -18.999 -6c-5.33301 -1.33301 -11.5 -2.66602 -18.5 -3.99902s-14.5 -2.66602 -22.5 -3.99902l-49 -12
c-9.33301 -1.33301 -27 -2 -53 -2c-53.333 8 -87 23 -101 45l-149 205c-18 24.667 -27 50.334 -27 77.001c0 15.333 2 26.333 6 33c10 28.667 36.667 48 80 58c22 4 57 6 105 6h288l3 112h-791zM1010 943.997l92 80l96 -80l-96 -84zM790.997 423.997l-0.000976562 -182.002
c38 26 85.667 39 143 39c79.333 0 136.666 -38.333 171.999 -115c16 -32.667 24 -64 24 -94c0 -48 -17.667 -91.667 -53 -131c-32.667 -41.333 -71.334 -69.333 -116.001 -84l-41 80c13.333 0 46 16.333 98 49c38 28.667 59 67.334 63 116.001
c0 23.333 -2.66699 39.333 -8 48c-17.333 30 -63.666 45 -138.999 45c-27.333 -1.33301 -54 -16.333 -80 -45c-23.333 -23.333 -44.333 -47.333 -63 -72v-410l-105 96v193c-19.333 -19.333 -45.333 -36.333 -78 -51c-35.333 -15.333 -70 -23 -104 -23
c-56 1.33301 -105.333 22 -148 62c-42 40.667 -64.333 88.334 -67 143.001c0 52 13.667 98.333 41 139c27.333 38.667 63.333 64 108 76c20.667 6.66699 41.334 10 62.001 10c86 0 148 -35.333 186 -106v-21c-34 28.667 -75.667 43 -125 43c-60 0 -107.667 -21 -143 -63
c-38.667 -44 -58 -87.667 -58 -131c0 -23.333 7 -44 21 -62c14.667 -16 35 -24 61 -24c34.667 0 83.334 19.667 146.001 59c24.667 15.333 45.667 37.333 63 66c18 32.667 29.667 58.667 35 78v272h105z" />
    <glyph glyph-name="cent" unicode="&#xa2;" horiz-adv-x="1305" 
d="M909 242l-57 57.001c-75.333 0 -135.333 -13.667 -180 -41l-43.5 -22.5l-34.5 -18.5c-26 -13.333 -47.333 -30.333 -64 -51c-17.333 -15.333 -26 -37.333 -26 -66c0 -14.667 4.66699 -33.667 14 -57c14 -27.333 35.333 -41 64 -41c20 0 40.333 4.66699 61 14
c20.667 7.33301 48 21.666 82 42.999l61 35c57.333 38.667 98.333 88 123 148zM365 539.001c-27.333 -2.66699 -60.333 -14.3301 -99 -34.9971c-80.667 -48 -121 -99.333 -121 -154c0 -14.667 2.33301 -26.334 7 -35.001c18.667 -46 53.334 -74.667 104.001 -86
c50.667 0 97 17.333 139 52c38.667 30 64.667 63.333 78 100c-66.667 69.333 -111.667 148.333 -135 237c-16.667 79.333 -25 126.666 -25 141.999c0 20.667 5 47.334 15 80.001c20 56 54 101 102 135c49.333 34 106 51 170 51h244v270h-844v138h1305v-138h-295v-422h-332
c-75.333 0 -135.333 -19 -180 -57c-60 -46 -90 -108 -90 -186c0 -91.333 29.333 -155.666 88 -192.999c34 -18.667 79 -28 135 -28c47.333 9.33301 83.333 35.666 108 78.999c-10.667 19.333 -16 40.666 -16 63.999c0 10.667 3.33301 29 10 55c19.333 45.333 72 68 158 68
c88.667 -1.33301 143.334 -45 164.001 -131c4 -23.333 6 -39.666 6 -48.999c-4 -31.333 -13.667 -63.666 -29 -96.999c-20.667 -32.667 -48.667 -55 -84 -67l271 -273l-66 -57l-137 139c-28.667 -43.333 -62.334 -81.333 -101.001 -114
c-44.667 -41.333 -78 -67.333 -100 -78c-24.667 -18 -57.334 -29.667 -98.001 -35c-66 0 -114.667 4.66699 -146 14c-34 8.66699 -64.667 25 -92 49c-56 49.333 -84 111.666 -84 186.999c-30 -9.33301 -57.333 -14 -82 -14c-38 0 -74.667 8 -110 24
c-90 41.333 -142.667 105.666 -158 192.999c0 83.333 21.333 152.666 64 207.999c50 70 121 107.667 213 113z" />
    <glyph glyph-name="sterling" unicode="&#xa3;" horiz-adv-x="918" 
d="M1049 487c-63.333 -54 -123.668 -96.3359 -181.001 -127.003c-53.333 -28.667 -82 -43.667 -86 -45c-21.333 -13.333 -43.666 -23.333 -66.999 -30c-26 -8.66699 -53.333 -13 -82 -13c-104 2.66699 -191.333 52.667 -262 150c-50.667 66.667 -76 140.334 -76 221.001
c0 15.333 2 38 6 68c15.333 90 56.333 164.333 123 223c-61.333 13.333 -116 44 -164 92c-39.333 44 -63.333 83.667 -72 119c-2.66699 16 -4 35.667 -4 59c0 28.667 5.66699 59.334 17 92.001h-201v138h918v-138h-400c-28.667 0 -56 -7.33301 -82 -22
c-22 -18 -38.333 -41.333 -49 -70c-4 -13.333 -6 -25 -6 -35c0 -27.333 13.667 -61.333 41 -102c22 -31.333 48.667 -53.333 80 -66c82 3.33301 125.667 5 131 5c2.66699 0 32.667 -1.66699 90 -5l117 -149c-84.667 0 -155 -9 -211 -27
c-45.333 -13.333 -82.333 -27.666 -111 -42.999c-31.333 -14.667 -55.333 -34.334 -72 -59.001c-35.333 -54.667 -53 -104.667 -53 -150c0 -34 9.66699 -64.667 29 -92c18 -26 44.667 -42.333 80 -49s79 -10 131 -10c30 2.66699 55.333 9.33398 76 20.001
c21.333 11.333 43.666 26.333 66.999 45c22 16.667 45.333 33.334 70 50.001c62.667 39.333 130.334 89.666 203.001 150.999v-201z" />
    <glyph glyph-name="section" unicode="&#xa7;" horiz-adv-x="989" 
d="M0 1296l-0.000976562 137.998h989v-138h-266v-309h-227c-71.333 -1.33301 -126.666 -11 -165.999 -29c-86 -40.667 -129 -91.667 -129 -153c0 -66.667 33.333 -120.667 100 -162c28.667 -19.333 69 -29 121 -29c16 0 31 0.666992 45 2h49
c26 3.33301 48 7.66602 66 12.999c6.66699 2.66699 14 5.33398 22 8.00098l47 16c26 12.667 47.333 21.667 64 27c22 8 34.333 12.667 37 14c9.33301 5.33301 20.666 11 33.999 17c4.66699 2.66699 12.334 6 23.001 10c9.33301 4 17.666 8 24.999 12l67 -119
c-48 -31.333 -78.667 -49.666 -92 -54.999c-40.667 -18 -72 -30.333 -94 -37l2 -305h-217c-70 0 -124 -8 -162 -24c-41.333 -18 -72.666 -34.667 -93.999 -50c-19.333 -13.333 -33.666 -35 -42.999 -65c-5.33301 -16.667 -8 -35 -8 -55c0 -50.667 21 -97.334 63 -140.001
c30 -32.667 81.333 -49 154 -49h69c37.333 0 66.666 3.33301 87.999 10c22 6 63 20.333 123 43c34 15.333 73.667 36.666 119 63.999l80 -111c-50.667 -35.333 -97.667 -62.666 -141 -81.999c-90.667 -38 -168.667 -57 -234 -57c-94 0 -181.333 30 -262 90
c-100 74 -151.333 158 -154 252c0 106.667 32.333 187.334 97 242.001c57.333 44.667 117.333 67 180 67h200v152c-13.333 0 -35 1.33301 -65 4c-30 0 -52.667 0.666992 -68 2c-30 2.66699 -46.333 4 -49 4c-30 1.33301 -64.667 12.333 -104 33
c-42.667 24.667 -72 47.667 -88 69c-52 68.667 -78 141.334 -78 218.001c0 92.667 30 165.667 90 219c56 48.667 121 73 195 73h180v170h-588z" />
    <glyph glyph-name="paragraph" unicode="&#xb6;" horiz-adv-x="883" 
d="M0 1296l-0.000976562 138h883v-138h-283v-223c61.333 -30 105 -73 131 -129c20.667 -43.333 31 -102 31 -176c-1.33301 -50.667 -17 -95.667 -47 -135c-37.333 -45.333 -80.333 -70.666 -129 -75.999v-197c65.333 -36.667 113.666 -94.667 144.999 -174
c18 -40.667 27 -97.334 27 -170.001c-5.33301 -77.333 -34 -139.333 -86 -186c-31.333 -30 -67 -49 -107 -57c-42 -7.33301 -93.667 -11 -155 -11c-97.333 1.33301 -181.333 30 -252 86c-83.333 63.333 -130.666 142 -141.999 236c-2.66699 40.667 -4 64.667 -4 72
c0 60 18 108.333 54 145c66.667 65.333 143.667 98 231 98h156v140c-24.667 -6 -50.667 -9 -78 -9s-59.333 5 -96 15c-66 17.333 -125.667 63 -179 137c-47.333 68 -71 139 -71 213c6.66699 106.667 52.334 181 137.001 223c32.667 18 88.667 27 168 27h137v151h-471z
M693.999 909c-17.333 68.667 -79.332 103 -185.999 103c-53.333 0 -104 -7 -152 -21c-160.667 -39.333 -241 -107.666 -241 -204.999c9.33301 -84.667 83.666 -129 222.999 -133c42 0 74.667 2 98 6c67.333 10 128 36 182 78c54.667 38.667 82 83.667 82 135
c0 7.33301 -2 19.666 -6 36.999zM694 158c-17.333 68 -79.3311 102.001 -185.998 102.001c-46.667 0 -97.334 -6 -152.001 -18c-160.667 -41.333 -241 -110.333 -241 -207c9.33301 -84.667 83.666 -129 222.999 -133c43.333 0 76 2.66699 98 8
c66 9.33301 126.667 34.666 182 75.999c54.667 38 82 83 82 135c0 6.66699 -2 19 -6 37z" />
    <glyph glyph-name="germandbls" unicode="&#xdf;" horiz-adv-x="1493" 
d="M0 1296v137.999h1493v-138h-317v-1296l-166 160v211h-316v-99c0 -35.333 -15.667 -56.333 -47 -63c-36.667 0 -66.667 15.667 -90 47l-113 125c-24 27.333 -36 58 -36 92c10.667 23.333 35 35 73 35h113v86c0 16 -7 29 -21 39c-10.667 12 -25 18.667 -43 20
c-20 0 -49.333 -6.66699 -88 -20c-38 -12.667 -68.667 -19 -92 -19c-95.333 2.66699 -169 32 -221 88c-28.667 34.667 -47.667 64.334 -57 89.001c-11.333 30 -17 68 -17 114c7.33301 70 36 122 86 156c30 20.667 81.333 31 154 31h227v204h-522zM688 951.999
l-408.998 -0.000976562c-36 0 -67 -10.667 -93 -32c-30 -22 -45 -46 -45 -72c0 -32.667 15 -58 45 -76c18 -9.33301 52.333 -14 103 -14c13.333 0 36.333 3.33301 69 10c23.333 5.33301 46.666 8 69.999 8h43l39 4c27.333 0 47.666 -2.66699 60.999 -8
c50.667 -19.333 89.667 -57.666 117 -114.999c19.333 -42 29 -91.667 29 -149h293v788h-322v-344z" />
    <glyph glyph-name="registered" unicode="&#xae;" horiz-adv-x="1468" 
d="M143 645v158h1184v-158h-1184zM809 129h-158v1188h158v-1188z" />
    <glyph glyph-name="copyright" unicode="&#xa9;" horiz-adv-x="1509" 
d="M756 1491c207.333 -1.33301 384.665 -75.002 531.998 -221.002c147.333 -147.333 221 -325.666 221 -534.999c0 -207.333 -73 -384.666 -219 -531.999c-147.333 -147.333 -325.333 -221 -534 -221c-209.333 0 -387.666 73.667 -534.999 221
c-147.333 146 -221 323.333 -221 532c0 210.667 74.333 389 223 535s326.334 219 533.001 219v2zM753.999 1366c-173.333 -1.33301 -321.666 -62.667 -444.999 -184c-122.667 -123.333 -184 -272.333 -184 -447c0 -173.333 61.333 -321.333 184 -444
c123.333 -124.667 271.666 -187 444.999 -187c174.667 0 323.334 62.333 446.001 187c122.667 122.667 184 270.667 184 444c0 174.667 -61.333 323.667 -184 447c-122.667 121.333 -271.334 182 -446.001 182v2zM996.999 613.997l122.998 -36.001
c-22 -94.667 -67 -163.667 -135 -207c-68 -45.333 -141 -68.666 -219 -69.999h-4h-4c-116 0 -211 38.333 -285 115c-75.333 74.667 -113 180.334 -113 317.001c0 130 36.333 233 109 309c70.667 76.667 169 115 295 115c78 0 148.333 -18.333 211 -55
c62.667 -38.667 106.334 -98.667 131.001 -180l-119 -27c-12 31.333 -27 57.333 -45 78c-19.333 18.667 -39 33.667 -59 45c-26 13.333 -50.667 21.333 -74 24c-23.333 3.33301 -39.666 5 -48.999 5c-87.333 0 -151 -28 -191 -84c-39.333 -57.333 -62.333 -120.333 -69 -189
v-22c-1.33301 -8.66699 -2 -16.334 -2 -23.001c0 -106.667 25 -184.334 75 -233.001c49.333 -50.667 108.333 -76 177 -76c12 0 29 2 51 6c22 2.66699 45 10.334 69 23.001c26 12 51.333 31 76 57c23.333 26 40.333 61.333 51 106v2z" />
    <glyph glyph-name="trademark" unicode="&#x2122;" horiz-adv-x="2048" 
d="M469 651v695h-264v120h665v-120h-266v-695h-135zM963 651v815h200l203 -651h4l197 651h196v-815h-125v684h-4l-204 -684h-123l-215 695h-5v-695h-124z" />
    <glyph glyph-name="acute" unicode="&#xb4;" horiz-adv-x="1532" 
d="M825 500c-6.66699 -45.333 -32.3311 -96.668 -76.998 -154.001c-14 -19.333 -34 -39 -60 -59c-10.667 -10 -30.334 -25 -59.001 -45l188 -187l-51 -53l-195 193c-46 -28.667 -89 -43 -129 -43c-72 0 -129.333 17 -172 51c-44.667 35.333 -70.334 72 -77.001 110
c0 58.667 9.33301 103 28 133c18 22 46.667 33 86 33c16.667 0 44 -4 82 -12c30 -5.33301 60.667 -22.333 92 -51c34 -30 53.333 -50 58 -60c35.333 18 70 42 104 72l29 23c14.667 12 27 24.667 37 38c8 15.333 13.333 28.333 16 39c4 22 6 39.333 6 52
c0 32.667 -9.66699 58.334 -29 77.001c-14.667 12.667 -35.667 19 -63 19h-29c-6.66699 -1.33301 -16 -2 -28 -2c-18 0 -42.667 -7 -74 -21c-34 -14.667 -62 -22 -84 -22c-70 0 -121.333 6.66699 -154 20c-46 18 -93 63 -141 135c-28.667 42.667 -45.667 72 -51 88
c-10 19.333 -15 45.333 -15 78c7.33301 72.667 31.333 115.667 72 129c61.333 24.667 121.333 37 180 37h250v178h-565v138h1532v-138h-297v-1296l-160 158v518c-50.667 -31.333 -99 -53.333 -145 -66c-35.333 -9.33301 -70.333 -14 -105 -14v-96zM883.003 767.998
c56 27.333 103.003 72.332 141.003 134.999c1.33301 1.33301 8 11 20 29c4.66699 6.66699 9 13.834 13 21.501l12 23.5c4 12 6 25 6 39v280h-360v-295h-312c-64 0 -112.333 -9.33301 -145 -28c-38 -22 -57 -65 -57 -129c9.33301 -50.667 40.666 -82.667 93.999 -96
c12 0 43.333 8 94 24c57.333 15.333 99.666 23 126.999 23c75.333 0 136.666 -11.667 183.999 -35c16.667 -10 41.334 -15 74.001 -15c41.333 0 77.666 7.66699 108.999 23z" />
    <glyph glyph-name="AE" unicode="&#xc6;" horiz-adv-x="1047" 
d="M340 1583l105.999 107.003l111 -111c0 -6.66699 -2.66699 -26.334 -8 -59.001c-1.33301 -6 -2 -13 -2 -21c-1.33301 -6.66699 -2.66602 -14 -3.99902 -22l-4 -13c-15.333 -80.667 -30.333 -144 -45 -190c-18 -42.667 -39.333 -82.334 -64 -119.001
c-18 -31.333 -49.333 -71.666 -94 -120.999l-49 49c38 37.333 68 78.333 90 123c24.667 53.333 37 95.666 37 126.999c0 18 -7 57 -21 117c-5.33301 27.333 -23 71.666 -53 132.999zM681.999 1583l108.997 106.998l110 -111c-1.33301 -4 -2.66602 -10.667 -3.99902 -20
c-1.33301 -11.333 -3.33301 -23.666 -6 -36.999c0 -6 -0.666992 -13 -2 -21l-4 -24.5l-2 -12.5c-15.333 -84.667 -30.333 -148 -45 -190c-11.333 -30 -32.666 -69.667 -63.999 -119c-17.333 -31.333 -48.666 -71.666 -93.999 -120.999l-49 49
c38 37.333 67.333 78.333 88 123c26 50.667 39 93 39 127c0 16.667 -7 55.667 -21 117c-6.66699 30 -25 74.333 -55 133z" />
    <glyph glyph-name="Oslash" unicode="&#xd8;" horiz-adv-x="1563" 
d="M0 1296l-0.000976562 137.999h1563v-138h-295v-1296l-172 166v330c-24.667 -27.333 -72 -56.666 -142 -87.999c-64 -33.333 -126.667 -50 -188 -50c-78 0 -149 19.333 -213 58c-68 39.333 -121.5 90.833 -160.5 154.5s-59.833 134.167 -62.5 211.5
c38 -14.667 78.333 -22 121 -22c35.333 0 67.333 4.66699 96 14c43.333 15.333 80.666 30.333 111.999 45c20.667 12.667 32.334 33.334 35.001 62.001c0 62.667 -66 94 -198 94h-359v155h264c67.333 0 129 -10.833 185 -32.5s103.667 -53.834 143 -96.501
c35.333 -43.333 53 -93 53 -149c0 -82 -33.333 -144 -100 -186c-65.333 -42.667 -130.333 -64 -195 -64c44 -66.667 104.333 -107.667 181 -123c54.667 0 104.334 9.66699 149.001 29c36.667 16 79.667 42 129 78c60 43.333 102.333 80 127 110c26 30 39 70.333 39 121v479
h-1112z" />
    <glyph glyph-name="plusminus" unicode="&#xb1;" 
 />
    <glyph glyph-name="yen" unicode="&#xa5;" horiz-adv-x="774" 
d="M0 1296v138h860v-138h-860zM860 823l0.000976562 -190.002c-86 -2.66699 -163 -4 -231 -4c-62.667 2.66699 -136.334 18.334 -221.001 47.001c-48 12 -100 35 -156 69c-42.667 26 -81.667 59 -117 99v61c53.333 -31.333 96.333 -51.666 129 -60.999
c90 -31.333 189 -49 297 -53c46.667 0 100.667 4 162 12c69.333 9.33301 115 16 137 20z" />
    <glyph glyph-name="ordfeminine" unicode="&#xaa;" horiz-adv-x="1296" 
d="M0 1296l0.000976562 137.996h1298v-138h-344v-465h-417c-54.667 0 -94.334 -6.66699 -119.001 -20c-35.333 -16.667 -53 -55.667 -53 -117c14.667 -40.667 48.667 -62.334 102 -65.001c22 0 55.333 3.33301 100 10c44 8 74.667 12 92 12
c94.667 -2.66699 171.334 -23.667 230.001 -63c80.667 -57.333 127.667 -129.666 141 -216.999c2.66699 -36 4 -59.333 4 -70c0 -66.667 -20.333 -128.667 -61 -186c-50.667 -67.333 -130.667 -105.666 -240 -114.999c-53.333 0 -99 5.33301 -137 16
c-36.667 14 -79.667 33.333 -129 58c-54.667 30 -95.667 60.667 -123 92c-16.667 18 -62.334 72.667 -137.001 164c-76.667 96.667 -128.667 173 -156 229l41 41c8 -22 32.667 -61.667 74 -119c46.667 -61.333 86.334 -107.666 119.001 -138.999
c47.333 -48 90.333 -82.667 129 -104c39.333 -22 82.333 -36.333 129 -43c9.33301 -1.33301 31.666 -2 66.999 -2c53.333 0 108 14.333 164 43c80.667 48.667 121 99 121 151c0 62.667 -17 103 -51 121c-11.333 5.33301 -22.333 8 -33 8c-15.333 0 -36.333 -5.33301 -63 -16
c-7.33301 -2.66699 -16.333 -7 -27 -13c-12.667 -5.33301 -19.667 -8 -21 -8c-74.667 -18.667 -131.334 -28 -170.001 -28c-58.667 10.667 -96 30.334 -112 59.001l-176 272c-18 24.667 -29 58.334 -33 101.001c0 23.333 2.66699 39.666 8 48.999
c15.333 32.667 47.333 57.334 96 74.001c32.667 6.66699 72.334 10 119.001 10h356v280h-788zM1024 693.996l109 109l108 -109l-108 -108z" />
    <glyph glyph-name="ae" unicode="&#xe6;" horiz-adv-x="995" 
d="M705 1118l-109.003 -106.001l-109 108c0 22 3 42.667 9 62c2.66699 12 5.33398 29.667 8.00098 53c10.667 75.333 26.334 139.333 47.001 192c14.667 34.667 35.667 74.334 63 119.001c28.667 45.333 60.334 85 95.001 119l49 -47c-37.333 -35.333 -67.333 -77 -90 -125
c-24.667 -53.333 -37 -95 -37 -125c0 -18 6.66699 -57.667 20 -119c7.33301 -30 25.333 -73.667 54 -131zM359.997 1118l-108 -106.002l-109 108c1.33301 12.667 3.66602 31.334 6.99902 56.001c5.33301 24 8.66602 43.667 9.99902 59
c14.667 88.667 30.334 152.667 47.001 192c14.667 34.667 35.667 74.334 63 119.001c27.333 42.667 59 82.334 95 119.001l49 -47c-36 -31.333 -66.167 -73 -90.5 -125s-36.5 -93.667 -36.5 -125c0 -16.667 6.66699 -56.334 20 -119.001
c6.66699 -34 24.334 -77.667 53.001 -131z" />
    <glyph glyph-name="oslash" unicode="&#xf8;" horiz-adv-x="791" 
d="M795 528c-80.667 -91.333 -184 -137.669 -310 -139.002c-50 0 -94.333 6.33301 -133 19c-77.333 20 -144 63 -200 129c-68.667 83.333 -103 181.333 -103 294c62.667 0 118 16.667 166 50c49.333 34 78.666 77.667 87.999 131c4 13.333 6 36.333 6 69
c0 97.333 -36.667 169 -110 215h-199v138h791v-138h-410c50.667 -66.667 76 -147 76 -241c0 -19.333 -2 -44 -6 -74c-10 -61.333 -43 -120.666 -99 -177.999c-53.333 -57.333 -117.333 -95.666 -192 -114.999c39.333 -102 106 -166 200 -192c16.667 -6 35.334 -9 56.001 -9
c52 0 105 15 159 45c54.667 30.667 104.667 65.667 150 105c40.667 38 64 65.333 70 82v-191z" />
    <glyph glyph-name="questiondown" unicode="&#xbf;" horiz-adv-x="1708" 
d="M0 1296l-0.000976562 138.001h1708v-138h-1171c30 -57.333 47.667 -99.666 53 -126.999c16 -65.333 24 -101.333 24 -108c54.667 0 95.667 -2 123 -6c34 -7.33301 71 -24.333 111 -51c68 42 137 63 207 63c53.333 0 98.333 -9 135 -27
c36.667 -14.667 81.667 -40.334 135 -77.001c46.667 -30 83 -63.667 109 -101c24 -34 58 -90 102 -168c46.667 -84.667 79.334 -153.667 98.001 -207c16.667 -44.667 26.334 -77.334 29.001 -98.001h-74c-10.667 30 -21.667 56 -33 78
c-13.333 24.667 -23.333 46.334 -30 65.001c-1.33301 4.66699 -13 32 -35 82c-19.333 42.667 -35.666 75 -48.999 97c-12.667 21.333 -30.334 44.333 -53.001 69c-48 49.333 -86.333 83 -115 101c-31.333 20 -68.333 30 -111 30c-64 0 -122.667 -21 -176 -63
c-86 -66.667 -129 -126.667 -129 -180c0 -20.667 6.33301 -38.667 19 -54c18.667 -27.333 51.334 -41 98.001 -41c24.667 0 57.334 4.33301 98.001 13c45.333 9.33301 87 31.666 125 66.999l137 -172c-66.667 -44.667 -146.334 -67 -239.001 -67
c-127.333 2.66699 -223 50.334 -287 143.001c-38 56 -57 128.333 -57 217c0 24.667 2 46 6 64c-26 20 -49.333 33 -70 39c-13.333 4 -36.666 6 -69.999 6c-8 -56 -27 -134.667 -57 -236c-12 -46 -34.333 -110.667 -67 -194c72 -104 155.667 -199.667 251 -287
c78 -68.667 147 -124 207 -166c56 -38 96.333 -62.667 121 -74l-41 -69c-61.333 27.333 -116.666 58 -165.999 92c-28.667 18.667 -75.667 56.667 -141 114c-76.667 67.333 -134.667 120.666 -174 159.999c-76.667 78 -159.334 175.667 -248.001 293
c-76.667 105.333 -118.334 199 -125.001 281c0 17.333 5.66699 34.333 17 51c12 16 27.667 24 47 24c10.667 -1.33301 25 -5.33301 43 -12c17.333 -8 31.666 -12 42.999 -12c9.33301 0 16.666 2 21.999 6c57.333 39.333 86 110.333 86 213c0 92.667 -36 169 -108 229h-328z
" />
    <glyph glyph-name="exclamdown" unicode="&#xa1;" horiz-adv-x="854" 
d="M0 1296v138h854v-138h-854zM854 901l-467.001 -0.000976562c71.333 -38 129.333 -85.667 174 -143l57 -68c19.333 -20.667 34 -41 44 -61c9.33301 -22 14 -47.333 14 -76c0 -49.333 -26.667 -106.666 -80 -171.999c-56 -62.667 -121.667 -99.667 -197 -111l111 -229
l-53 -29l-127 224c-27.333 -12.667 -55.333 -19 -84 -19c-26 0 -48 4 -66 12c-73.333 23.333 -119.666 72 -138.999 146c-8 35.333 -12 61.333 -12 78c0 42 13.667 73.333 41 94c16 16 37.667 24 65 24c32.667 0 76.334 -15.667 131.001 -47
c31.333 -14.667 56.666 -39 75.999 -73c52 6.66699 93.667 35.334 125 86.001c19.333 34 29 62.667 29 86c0 31.333 -7 55 -21 71c-10.667 15.333 -34.667 42 -72 80c-17.333 20.667 -37.666 37 -60.999 49c-31.333 15.333 -60 27.666 -86 36.999
c-32.667 9.33301 -61.334 21 -86.001 35l-61 31c-22 9.33301 -41.333 18 -58 26v117h803v-168z" />
    <glyph glyph-name="logicalnot" unicode="&#xac;" 
 />
    <glyph glyph-name="florin" unicode="&#x192;" horiz-adv-x="1196" 
d="M88 557l0.00488281 205c22 24.667 46.667 45 74 61c26 16.667 52 29 78 37c21.333 6.66699 43 12.334 65 17.001c20.667 2.66699 40.667 4 60 4c24 0 57.167 -3.83301 99.5 -11.5s100.5 -27.167 174.5 -58.5c2.66699 -1.33301 8 -3.33301 16 -6
c7.33301 -4 15 -7.33301 23 -10v0v-2c9.33301 -3.33301 18.333 -6.33301 27 -9c6.66699 -4 11.334 -6.66699 14.001 -8c4 -1.33301 8.66699 -2.66602 14 -3.99902c5.33301 -2.66699 11.666 -5.33398 18.999 -8.00098c13.333 -4 28.833 -8.16699 46.5 -12.5
s35.5 -6.5 53.5 -6.5c35.333 0 68.666 7.66699 99.999 23c31.333 13.333 59.333 29 84 47c19.333 15.333 35.5 29.5 48.5 42.5l25.5 25.5v-209c-1.33301 -2.66699 -2.66602 -4.66699 -3.99902 -6c-2.66699 -2.66699 -5.33398 -4.66699 -8.00098 -6
c-28.667 -26 -63.834 -50 -105.501 -72s-94.5 -33 -158.5 -33c-22 0 -42.667 1.33301 -62 4c-20.667 2.66699 -40.334 6.66699 -59.001 12c-20.667 6 -40.667 13 -60 21c-20 6.66699 -41 14.667 -63 24c-1.33301 2 -4.66602 4.33301 -9.99902 7
c-6 1.33301 -12.333 3.33301 -19 6v2h-2c-6.66699 2.66699 -12.834 5.33398 -18.501 8.00098s-9.83398 4 -12.501 4c-5.33301 2.66699 -11.333 6 -18 10l-27 9c-16 5.33301 -34.333 10.666 -55 15.999s-41.667 8.66602 -63 9.99902h-9h-8
c-50.667 0 -94.334 -11 -131.001 -33c-38 -22.667 -71.333 -47.667 -100 -75l-15 -13l-14 -14v2z" />
    <glyph glyph-name="guillemotleft" unicode="&#xab;" horiz-adv-x="2" 
d="M-758 -516l-82 80l365 364l289 -288l-45 -48l-207 205z" />
    <glyph glyph-name="guillemotright" unicode="&#xbb;" horiz-adv-x="2163" 
d="M1083 1176l-131 129l131 131l134 -131zM274 1174l-131 129l131 131l134 -131zM1886 1190l-131 129l131 131l133 -131z" />
    <glyph glyph-name="ellipsis" unicode="&#x2026;" horiz-adv-x="2048" 
d="M240 0v205h204v-205h-204zM922 0v205h204v-205h-204zM1604 0v205h204v-205h-204z" />
    <glyph glyph-name="nonbreakingspace" unicode="&#xa0;" horiz-adv-x="1124" 
 />
    <glyph glyph-name="Agrave" unicode="&#xc0;" horiz-adv-x="778" 
d="M412 1929c-26 -5.33301 -49.334 -8.00195 -70.001 -8.00195c-32.667 0 -69.667 6 -111 18c-17.333 7.33301 -39.666 21 -66.999 41c-26 18 -48 40.667 -66 68c-39.333 54.667 -59 105.334 -59 152c0 54 21.667 100.333 65 139c23.333 20.667 44.666 34.334 63.999 41.001
c19.333 8 46 12 80 12c61.333 0 116.666 -16.333 165.999 -49c73.333 -49.333 110 -111.333 110 -186v-668c0 -27.333 1.33301 -49.333 4 -66c2.66699 -9.33301 6.33398 -16 11.001 -20c4 -5.33301 8 -8.66602 12 -9.99902c2.66699 0 9.33398 -2.33301 20.001 -7v-43
c-52.667 0 -90.667 7 -114 21c-30 20.667 -45 61 -45 121v444zM349.999 2322c-10.667 3.33301 -21.666 5.00098 -32.999 5.00098c-36.667 0 -71.334 -13.667 -104.001 -41c-35.333 -28.667 -56.333 -61.667 -63 -99c-3.33301 -16 -5 -27 -5 -33c0 -28.667 7 -55.667 21 -81
c14.667 -27.333 31.667 -49.333 51 -66c22 -16.667 44 -25 66 -25c42 7.33301 72.667 17.666 92 30.999c17.333 12.667 29.666 27 36.999 43c2.66699 11.333 7.33398 37.333 14.001 78v35c0 32.667 -6 64.667 -18 96c-10 28.667 -29.333 47.667 -58 57zM39 1110v164h682
v-164h-682zM164 787.999l-69.9961 101.003c71.333 38 152 57 242 57c32.667 0 75 -5.33301 127 -16c48 -12.667 87.667 -32.667 119 -60c35.333 -30 62 -62.667 80 -98c14.667 -36.667 22 -80.334 22 -131.001c-2.66699 -35.333 -9.33398 -66 -20.001 -92
c-12.667 -24.667 -33.334 -53.334 -62.001 -86.001c-35.333 -42.667 -82.333 -76.334 -141 -101.001l260 -421l-45 -27l-262 434c-19.333 -2.66699 -33 -4 -41 -4c-26 0 -50.667 5.33301 -74 16c-26 11.333 -45 21.666 -57 30.999c-15.333 10 -25 24.333 -29 43
c-5.33301 22 -8 37.667 -8 47c0 32.667 12.333 55.334 37 68.001c13.333 6.66699 26.333 10 39 10c17.333 0 38.333 -5.33301 63 -16c19.333 -10 36.333 -24.333 51 -43c15.333 -19.333 23.666 -33.666 24.999 -42.999c17.333 5.33301 39 14.666 65 27.999
c23.333 14 44.666 29.667 63.999 47c31.333 28.667 53 54.667 65 78c14 20.667 21 46.667 21 78c0 36.667 -8.33301 66.667 -25 90c-16 24.667 -44 46.667 -84 66c-16 8 -41.667 12 -77 12c-38.667 0 -75 -3.33301 -109 -10c-52 -6.66699 -110.667 -26 -176 -58z" />
    <glyph glyph-name="Atilde" unicode="&#xc3;" horiz-adv-x="569" 
d="M139 -408v1874h398v-149h-218v-1575h218v-150h-398z" />
    <glyph glyph-name="OE" unicode="&#x152;" horiz-adv-x="924" 
d="M209 1288l-66 145.999c22 40.667 55 72 99 94c34 22 72.667 33 116 33c20.667 0 44.667 -3.66699 72 -11c56 -13.333 106 -49.333 150 -108c42 -58.667 63 -133.667 63 -225c0 -74 -15.667 -143 -47 -207c-23.333 -46.667 -56.666 -87 -99.999 -121
c-31.333 -27.333 -65.666 -49.333 -102.999 -66l-28 -313h-56v444c50.667 14 102.667 40.667 156 80c61.333 48 99.666 92.333 114.999 133c10.667 37.333 16 86 16 146c-10.667 52 -30.334 88 -59.001 108c-34.667 27.333 -70.334 41 -107.001 41
c-32.667 0 -62 -6.66699 -88 -20c-15.333 -6.66699 -40.666 -32.667 -75.999 -78c-31.333 -39.333 -50.333 -64.666 -57 -75.999zM227 226.999l109 109l108 -109l-108 -110z" />
    <glyph glyph-name="oe" unicode="&#x153;" horiz-adv-x="645" 
d="M502 1577c-66 -95.333 -116.667 -188.334 -152 -279.001c-38 -87.333 -64.667 -176.666 -80 -267.999c-17.333 -88.667 -26 -193 -26 -313c0 -118.667 8.66699 -223.334 26 -314.001c15.333 -91.333 42 -180.666 80 -267.999c35.333 -90 86 -182.667 152 -278
c-84.667 86 -153.667 171.333 -207 256c-53.333 86 -91.666 177.333 -114.999 274c-24.667 95.333 -37 205.333 -37 330c0 124 12.333 234 37 330c23.333 96.667 61.666 188 114.999 274s122.333 171.333 207 256z" />
    <glyph glyph-name="divide" unicode="&#xf7;" horiz-adv-x="1448" 
d="M1126 1442v-107l-813 -1358v107z" />
    <glyph glyph-name="ydieresis" unicode="&#xff;" horiz-adv-x="2085" 
d="M106 426h-4v-4v-4l-4 -4v-4v-4l-4 -9v-4l-4 -4v-8l-4 -4v-8l-4 -9v-8l-4 -4l-4 -8v-12l-4 -9l-4 -8v-8l-5 -8v-8l-4 -8v-9l-4 -8v-4l-4 -8v-8v-4v-9l-4 -4v-8v-4v-8v-4v-4v-9v-4v-4v-4v-4v-4l4 -4v-4h4v-4v-4h4v-5h4v-4h5l4 -4l4 -4h4l4 -4h4h4l4 -4h4h4h4h5h4h4h4h4
l8 -4v4h4h4h4h5h4l4 4h4h4h4l4 4h4v4h4l4 4h5l4 4l4 5h8l4 4l4 4h4l4 4l4 4l4 4l5 4l4 4h4l4 4l4 4l4 5l4 4l4 4l4 4l4 4l5 4l4 4l4 4l4 4l4 8l4 5l4 4v4l4 4l4 8l4 4l4 4l5 4l4 4v9l4 4l4 4l4 4v4l4 8l4 4v4l4 4l4 5v8l4 4v4l5 8v4l4 4v4v5l4 8v4v4l4 4v4v4v4v4v5v4v4l4 4
v4v4v4v4h4h4h4h4h4l5 -4h4h4v-4h4h4v-4h4l4 -4h4v-4l4 -4v-4v-5v-4v-4v-4v-4v-4v-4v-4v-4v-4v-5l4 -8v-4v-4v-8v-4v-8l4 -9v-4v-4v-8v-4v-8v-4v-9v-4v-4v-8v-4v-4v-4l5 -4v-4v-9v-4v-4v-4l4 -4v-4v-4v-4v-4l4 -4v-5v-4v-4h4v-4v-4v-4l4 -4v-4l4 -4v-4v-5l4 -4v-4v-4h4v-4v-4
h4v-4v-4h4v-4h5v-4l4 -5h4v-4h4l4 -4h4l4 -4h4l4 -4h-4l-4 -4h-4v-4h-4h-4l-4 -4h-4v-4h-4h-5h-4v-4h-4h-4h-4v-4h-4h-4h-4h-4v-5l-4 5h-5v4h-4v4h-4v4l-4 4v4l-4 4v4l-4 4v4v4l-4 9v4v4l-4 4v4v4l-4 4v4v9v4l-4 4v4v4v8l-4 4v4v9v4v4v4l-5 8v4v8l-4 4v4v9l-4 4v8v4v8l-4 4
v9v4l-4 8v4v8l-4 8v4v9v4l-8 -9l-4 -12l-4 -8l-9 -8l-4 -12l-4 -9l-8 -12l-4 -8l-8 -8l-4 -9l-9 -8l-4 -12l-8 -8l-8 -8l-4 -9l-8 -4l-9 -8l-8 -8l-8 -8l-4 -8l-8 -5l-8 -8l-9 -4l-8 -8l-8 -4l-8 -4l-8 -8l-9 -5l-8 -4h-8l-8 -4l-8 -4l-9 -4h-8l-8 -4h-8h-8h-9h-8l-8 -4
l-8 4h-4h-4h-4h-4h-5h-4h-4l-4 4h-4l-4 4h-4h-4v4h-4l-4 4l-5 4l-4 5l-4 4l-4 4v4v4h-4v4v4v4l-4 4v4v5v4v4v4v4v4v4v4v4v4v5v4v4v4v4v4v4v4v4v4v4v5v4v4h4v4v4v4v4v4l4 4v4v5v4l4 4v4v8v4l4 4v4v8l4 5v8v4l5 4v8v4v8l4 5v4v8v4v4l4 4v4v4v4v5v4v4v4v4v4h4v4v4v4l-4 4v4
l-4 5v4v4h4h4h4h4h4h4h4h4h5l4 -4h4h4l4 -4h4l4 -5h4v-4h4v-4h4v-4v-4zM561 324v4v4v4v4v4l4 4l4 4v4l4 4l5 5l4 4l4 4l4 4h4l4 4l4 4l4 4h8l4 4l5 4l4 4l8 5h4l4 4l8 4h4l9 4l4 4h8l4 4h8l4 4h8l9 4h4l8 4h8h8l4 4h9l8 4h8l4 5h8h8l9 4h8h4h8l8 4h8h5h8h8h4h8h8h9h4h4h8h4
h4h8h5h4h4h4l8 -4h4h4h4l4 -4h4h5l4 -5h4l4 -4h4l4 -4h4h4l4 -4l4 -4h5v-4h4v-4l4 -4v-4v-4v-4l4 -5h-4v-4v-4h-4v-4l-4 4h-5h-4v4h-4h-4v4h-4l-4 5h-4l-4 4h-4l-4 4h-5h-4l-4 4h-4l-4 4h-4h-4l-4 4h-4h-4l-4 4h-5h-4h-4h-4h-4l-8 4h-4h-4h-4h-5h-8h-4h-4h-8h-4h-8h-5h-8h-4
h-8h-4h-8h-4h-4h-9h-4h-4h-4h-8h-4l-4 -4h-9h-4h-4h-4l-4 -4h-4h-4l-4 -4h-8h-4l-5 -4l-4 -4h-4l-4 -4h-4l-4 -4h-4l-4 -5h-4l-4 -4l-5 -4h-4v-4h-4v-4h-4v-4h-4v-4h-4v-4l-4 -4v-4l-4 -5v-4v-4v-4v-4v-4v-4l4 -4v-4h4v-4h4h4l4 -5h4l4 -4h5h4h4l8 -4h4h4h4l4 -4h9h4h8h4
l8 -4h8h8h5h8l12 -4h8h8h9h12h8l12 -4h9h8h8l12 -4h8h9l8 -4h8h8h8l9 -4h8h4l8 -4h8h4l9 -5h4h4l8 -4h4h4l4 -4h4h4l5 -4h4l4 -4h4l4 -4h4v-4l4 -4l4 -4v-4v-5v-4l4 -4l-4 -4v-4v-4v-4v-4l-4 -4v-8l-4 -5l-4 -4v-4l-4 -4l-4 -4l-4 -4l-4 -4l-5 -4l-4 -4l-4 -4l-8 -5l-4 -4
l-4 -4h-8l-9 -4l-8 -4l-4 -4l-8 -4l-8 -4h-4l-8 -4l-9 -4l-8 -5h-8l-8 -4l-4 -4h-9l-8 -4h-8l-8 -4l-8 -4h-9l-8 -4h-12l-8 -4h-8l-9 -4h-8l-8 -4h-8h-8l-9 -4h-8h-8l-4 -5h-8h-8h-9h-8h-4h-8h-8l-4 -4l-9 4h-8h-4h-8h-4h-8h-4h-9h-4h-8l-4 5h-4h-8h-4l-4 4h-9h-4l-4 4h-4
h-4l-8 4h-4v4h-4l-5 4h-4l-4 4v4h-4l-4 4v4h-4v4v5h-4v4v4v4v4v4h4h4l4 -4h4v-4h4v-4h4h5l4 -4h4l4 -4h4h4l4 -5h4h4l9 -4h4h4h4h4l4 -4h8h4h4h9h4h8h4h8h8h4h9h8h8h8l8 -4l5 4h8h4h8h4h8h4h9h4h8h4h8h4h8h5h8h4h8h4h8l4 4h4h5l8 4h4l4 5h8h4l4 4h4l5 4h8h4l4 4h4l4 4h4l4 4
h4h9l4 4v4h4l4 4l4 4l4 5l4 4l4 4v4l4 4v4l4 4v4v4v4v5v4h5l-5 4v4v4v4v4h-4v4v4h-4v4h-4l-4 4h-4v5h-4l-4 4h-4h-4h-4h-5l-8 4h-4h-4l-8 4h-4h-8l-5 4h-8h-8h-8l-4 4h-8h-9h-12l-8 4h-8h-8h-13h-8h-8l-12 4h-9h-12h-8h-8h-8l-13 4h-8h-8h-4h-8l-9 4h-8h-4h-8h-4l-8 5h-5h-4
h-4l-8 4h-4l-4 4h-4h-4l-4 4l-4 4h-5l-4 4l-4 4v4l-4 4v4v4v5zM1217 0l-17 12l-12 13l-12 8l-9 12l-12 8l-8 13l-12 12l-9 8l-8 12l-4 13l-8 12l-4 8l-4 12l-8 13v12l-5 12l-4 13v12v12v8v4v4v5v4v4v4v4v4l4 4v4v4l5 4v5v4l4 4v4l4 4v4l4 4l4 4v8l4 4v5l4 4l4 4v4l4 4v4l4 4
l4 4v4l5 4l4 5l4 4v4l4 4l4 4l4 4l4 4l4 4v4l4 4l4 5l5 4l4 4l4 4l4 4l4 4l4 4l4 4l4 4l4 4l4 4l5 5l4 4l4 4l4 4l4 4h4l4 -4l4 -4l4 -4l-16 -9l-8 -12l-13 -12l-12 -8l-8 -13l-8 -12l-13 -8l-4 -12l-8 -13l-8 -8l-4 -12l-8 -12l-4 -13l-5 -8l-4 -12v-12l-4 -9v-12v-12v-13
v-4v-4v-4v-8v-4v-4v-4v-4v-9v-4v-4l4 -4v-4v-4v-4v-4l4 -4v-4v-5l5 -4v-4v-4v-4h4v-4l4 -4v-4v-4l4 -4v-5l4 -4v-4h4v-4l4 -4v-4l4 -4v-4l4 -4l4 -4l5 -4v-5l4 -4h4v-4l4 -4l4 -4h4v-4l4 -4l4 -4h4v-4l4 -4l5 -5h4l4 -4l4 -4l4 -4h-4h-4l-4 -4h-4v-4zM1257 53v4h5h4l4 4l4 5
v4h4l4 4v4l4 4l4 4l4 4l4 4l5 4v8l4 5l8 4v8l4 8l4 4l4 8l4 4l4 9l4 4l4 8l5 8v4l4 8l4 9l4 8l4 8l4 8v4l4 8l4 9l4 8l4 8v8l5 8l4 9l4 8v8l4 8l4 4v8l4 9v4l4 8v8l4 4v8v5l4 4v8v4v4l4 4l-4 4v4h-4v4h-4v5h-4v4h-4v4h-4v4h-4v4h-4l-4 4l-5 4l-4 4l-4 4h-4v4h-4l-4 4h-4v5
h-4l-4 4v4h4h4h4h4h4h4h4h4h5h4h4h4l4 -4h4h4h4h4l4 -4h5h4h4h4v-5h4h4h4v-4h4h4v-4l4 -4l4 -4l5 -4l4 -4l4 -4l8 -8l4 -4l4 -5l4 -4l4 -4l9 -8l4 -4l4 -4l4 -4l8 -8l4 -5l4 -4l8 -8l4 -4l5 -4l8 -8l4 -4l4 -4l4 -5l4 -4l4 -4l8 -8l5 -4l4 -4l4 -4l4 -4l8 -8l4 -5l4 -4l4 -4
l4 -4l9 -8l4 -4l4 -4l4 -4l8 -9l4 -4l4 -4l4 -4l9 -4l4 -8l4 -4l8 -4l4 -4l4 -9l4 -4l8 -4l5 -8l4 -4l4 -4l4 -4l8 -8l4 -5l4 -4l4 -4l8 -8v-4h5l4 -4h4v-4h4h4h4l4 -4v4h4h4v4h4v4l5 4v4h4v4v4h4v4v5v4v4l4 4v4v4v4v4v4v4v5v4h4l-4 8v8v8v4v8v9v4v8v4v8v4v9v4l-4 8v4v4v8v4
v4v4l-4 9v4v4v8v4l-4 4v4v4v5l-5 4v4v4v4l-4 4v4v4l-4 4v4v5v4h-4v4v4h-4v4l-4 4l-4 4v4h-4v4v4v4h4h4h4h4h4h4h4h5l4 -4h4h4h4l4 -4h4l4 -4h4v-4h4v-4h4v-4v-4l5 -4l-5 -13v-12v-16v-13v-12v-12v-12v-13v-12v-8v-12v-9v-12l-4 -8v-8v-9v-8v-8v-8v-8l-4 -4v-9v-4v-8v-4
l-4 -8v-4v-4v-4l-4 -9v-4v-4v-4l-4 -4v-4v-4h-4v-4v-4v-5h-4v-4h-4v-4l-4 -4h-4v-4h-5l-4 -4h-4h-4h-4h-4v-4l-4 4h-4h-4h-4h-5l-4 4h-4l-4 4h-4v4h-4l-4 4h-4v4h-4v5h-4v4h-4v4h-5v4h-4v4l-8 4l-4 4l-4 4l-4 4l-4 4l-4 5l-9 4l-4 4l-4 4l-4 4l-4 4l-4 4l-4 4l-8 4l-4 4
l-5 5l-4 4l-4 4l-4 4l-4 4l-8 8l-4 4l-4 4l-4 4l-4 4l-5 5l-4 4l-4 4l-4 4h-8l-4 4l-4 4l-4 4l-4 4l-5 4l-4 4l-4 5l-4 4l-4 4l-4 4l-8 8l-4 4l-4 4l-4 4l-5 4l-4 4l-4 5l-4 4l-4 4l-8 4l-4 4l-4 4l-4 4l-5 4l-4 4l-4 4l-4 5l-4 4l-4 4l-4 4l-4 -8l-4 -9v-12l-4 -8l-4 -12
l-5 -9v-12l-4 -12l-4 -8l-4 -13l-4 -12l-4 -12l-4 -12l-4 -13l-4 -12l-4 -12l-5 -13l-4 -12l-4 -12l-4 -17l-8 -12l-4 -8l-4 -12l-4 -13l-4 -8l-5 -12l-8 -8l-4 -8l-4 -9l-4 -4l-4 -8l-4 -4l-4 -8l-4 -4h-4l-5 -4l-4 -5h-4h-4v-4l-4 4h-4h-4h-4h-4v5h-4h-5l-4 4h-4l-4 4h-4
v4h-4v4h-4v4h-4l-4 4v4v4h4h4h4l4 -4h4h4h4h4zM1917 8l8 12l12 13l13 8l8 12l12 8l8 13l9 12l8 8l8 12l8 13l4 8l4 12l9 13l4 12v8l4 12l4 13v12v12l4 8l-4 9v8v4v8v4v8v4v9l-4 4v8v4l-4 8v4v4l-4 9v4l-5 4v8l-4 4v4l-4 8l-4 4l-4 5v8l-4 4l-4 4l-4 8l-4 4l-4 4l-5 4l-4 9
l-4 4l-4 4l-8 8l-4 4l-4 4l-8 8l-4 4l-9 5l-4 4v4h4v4h4h5v4h4h4l4 -4l4 -4l4 -4l4 -4l4 -5l4 -4h4l4 -4v-4l5 -4l4 -4l4 -4l4 -4l4 -4v-4h4l4 -4l4 -5l4 -8l4 -4l5 -4v-4l4 -4l4 -4v-4l4 -4v-5l4 -4v-4l4 -4l4 -4v-4l4 -4v-4l4 -4v-4l4 -9v-4v-4l4 -4v-4l5 -4v-4v-4h4v-4
v-4v-5l4 -4v-4v-4v-4v-4v-4v-4v-4l4 -4l-4 -5v-8v-4v-8l-4 -4v-8v-4l-4 -9v-4l-5 -8v-4l-4 -8l-4 -4v-8l-4 -5l-4 -8l-4 -4l-4 -8v-4l-4 -8l-8 -4l-4 -5l-5 -8l-4 -4l-4 -8l-8 -4l-4 -8l-4 -4l-8 -4l-4 -9l-5 -4l-8 -8l-4 -4l-8 -4l-4 -8l-8 -4l-8 -5l-5 -8l-8 -4l-4 -8
l-4 4z" />
    <glyph glyph-name="Ydieresis" unicode="&#x178;" horiz-adv-x="690" 
d="M143 131l129 133l131 -133l-131 -131zM143 944l129 131l131 -131l-131 -133z" />
    <glyph glyph-name="currency" unicode="&#x20ac;" horiz-adv-x="6" 
d="M-285 1880c28.667 0 53.332 -10.999 73.999 -32.999c20.667 -20 31 -46 31 -78c0 -32.667 -10.333 -60.334 -31 -83.001c-22 -23.333 -46.667 -35 -74 -35c-31.333 0 -58 11.667 -80 35c-21.333 24 -32 51.667 -32 83c0 30.667 10.667 56.667 32 78
c20.667 22 47.334 33 80.001 33zM-25.002 1757c-17.333 -98 -49.335 -173.667 -96.002 -227c-48 -53.333 -100.667 -80 -158 -80c-61.333 0 -117 27.333 -167 82c-52 54.667 -87.667 131.667 -107 231c36.667 -62.667 78.334 -109.667 125.001 -141
c46.667 -32.667 94.334 -49 143.001 -49c48 0 94.667 15.667 140 47c43.333 30 83.333 75.667 120 137z" />
    <glyph glyph-name="guilsinglleft" unicode="&#x2039;" horiz-adv-x="682" 
d="M295 528l260 -456h-147l-318 456l318 457h147z" />
    <glyph glyph-name="daggerdbl" unicode="&#x2021;" horiz-adv-x="1139" 
d="M479 -346v371h-399v159h399v727h-399v160h399v375h180v-375h398v-160h-398v-727h400v-159h-400v-371h-180z" />
    <glyph glyph-name="periodcentered" unicode="&#xb7;" 
 />
    <glyph glyph-name="quotesinglbase" unicode="&#x201a;" 
 />
    <glyph glyph-name="quotedblbase" unicode="&#x201e;" horiz-adv-x="682" 
d="M90 0l0.00292969 209.002h193v-164v-61c-1.33301 -20.667 -4.33301 -42 -9 -64c-8 -36.667 -23 -71.334 -45 -104.001c-22.667 -34.667 -59.334 -63.334 -110.001 -86.001l-45 69c30 12.667 52.333 29 67 49c15.333 19.333 25.666 40 30.999 62
c5.33301 16 8.66602 32.333 9.99902 49c1.33301 15.333 2 29 2 41h-94zM401.003 0.00195312v209.001h193v-164v-61c-1.33301 -20.667 -4 -42 -8 -64c-8.66699 -36.667 -23.667 -71.334 -45 -104.001c-23.333 -34.667 -60.333 -63.334 -111 -86.001l-45 69
c30 12.667 52.5 28.834 67.5 48.501s25.167 40.5 30.5 62.5c6 16 9.66699 32.333 11 49c1.33301 15.333 2 29 2 41h-95z" />
    <glyph glyph-name="perthousand" unicode="&#x2030;" horiz-adv-x="2048" 
d="M764 336c0 17.333 1.33008 41.834 3.99707 73.501s8.66699 63.834 18 96.501c14 53.333 40.667 101.666 80 144.999c40 42.667 101 64 183 64c81.333 0 141.833 -20.833 181.5 -62.5s67.167 -87.167 82.5 -136.5c10.667 -35.333 17.334 -69.333 20.001 -102s4 -58 4 -76
c0 -19.333 -0.666992 -45.333 -2 -78c-1.33301 -34 -6.66602 -68.667 -15.999 -104c-14 -53.333 -40.667 -102 -80 -146c-39.333 -43.333 -102 -65 -188 -65c-80.667 0 -141 21 -181 63c-39.333 41.333 -66.666 87 -81.999 137c-12 40 -18.667 77.667 -20 113
c-2.66699 35.333 -4 60.666 -4 75.999v2zM910.997 328.001c0 -15.333 0.665039 -30.998 1.99805 -46.998c0 -16.667 0.666992 -33.334 2 -50.001c6 -40.667 18.833 -78 38.5 -112s53.5 -51 101.5 -51c44.667 0 76.667 17.667 96 53c18 34 29.667 71.333 35 112l4 50v45
c0 68 -9 128.667 -27 182c-17.333 53.333 -54.666 80 -111.999 80c-45.333 0 -77.666 -15.667 -96.999 -47c-18.667 -31.333 -30.667 -66.333 -36 -105c-3.33301 -20 -5 -39.667 -5 -59c-1.33301 -20.667 -2 -38.334 -2 -53.001v2zM1438 336.003
c0 17.333 1.33008 41.833 3.99707 73.5s8.66699 63.834 18 96.501c14 53.333 40.667 101.5 80 144.5s100 64.5 182 64.5s142.833 -20.833 182.5 -62.5s67.167 -87.167 82.5 -136.5c10.667 -35.333 17.334 -69.333 20.001 -102s4 -58 4 -76
c0 -19.333 -0.666992 -45.333 -2 -78c-1.33301 -34 -6.66602 -68.667 -15.999 -104c-14 -53.333 -40.667 -102 -80 -146c-40 -43.333 -103 -65 -189 -65c-80 0 -140 21 -180 63c-39.333 41.333 -66.666 87 -81.999 137c-12 40 -18.667 77.667 -20 113
c-2.66699 35.333 -4 60.666 -4 75.999v2zM1584.99 328.003c0 -15.333 0.666016 -30.998 1.99902 -46.998c0 -16.667 0.666992 -33.334 2 -50.001c5.33301 -40.667 18.333 -78 39 -112c19.333 -34 53 -51 101 -51c44.667 0 76.667 17.667 96 53c17.333 34 29 71.333 35 112
l4 50v45c0 68 -9 128.667 -27 182s-55.667 80 -113 80c-44.667 0 -76.667 -15.667 -96 -47s-31.666 -66.333 -36.999 -105c-2.66699 -20 -4 -39.667 -4 -59c-1.33301 -20.667 -2 -38.334 -2 -53.001v2zM321.991 -50.9951l600 1542h131l-598 -1542h-133zM36.9912 1098
c0 17.333 1.33008 41.668 3.99707 73.001c2.66699 32 8.66699 64.333 18 97c14 53.333 40.667 101.666 80 144.999c40 42.667 101 64 183 64c81.333 0 141.833 -20.833 181.5 -62.5s67.167 -87.167 82.5 -136.5c10.667 -35.333 17.334 -69.5 20.001 -102.5
s4 -58.167 4 -75.5c0 -19.333 -0.666992 -45.333 -2 -78c-1.33301 -34 -6.66602 -68.667 -15.999 -104c-14 -53.333 -40.667 -102.166 -80 -146.499s-102 -66.5 -188 -66.5c-80.667 0 -141 21 -181 63c-39.333 42 -66.666 88.333 -81.999 139c-12 40 -18.667 77.667 -20 113
c-2.66699 35.333 -4 60.666 -4 75.999v2zM183.988 1092.01c0 -15.333 0.665039 -31.3311 1.99805 -47.998c0 -16 0.666992 -32.333 2 -49c6 -40.667 18.833 -78.167 38.5 -112.5s53.5 -51.5 101.5 -51.5c44.667 0 76.667 18 96 54c18 34 29.667 71.333 35 112l4 50v45
c0 68 -9 128.667 -27 182c-17.333 53.333 -54.666 80 -111.999 80c-45.333 0 -77.666 -15.667 -96.999 -47c-18.667 -31.333 -31 -66.333 -37 -105c-2.66699 -20.667 -4 -40.334 -4 -59.001c-1.33301 -20.667 -2 -38.334 -2 -53.001v2z" />
    <glyph glyph-name="Acircumflex" unicode="&#xc2;" horiz-adv-x="993" 
d="M297 2275l-48.998 109h196c54.667 0 103.334 -9.66699 146.001 -29c43.333 -20.667 77.333 -51.334 102 -92c20.667 -36.667 31 -75 31 -115c0 -13.333 -11.667 -35 -35 -65c-12 -18 -25 -31.667 -39 -41c31.333 -26 55.333 -54.667 72 -86c26 -52 39 -94.333 39 -127
c0 -42.667 -12.333 -81 -37 -115c-28.667 -38 -66.334 -63.333 -113.001 -76l135 -264l-43 -18l-147 270c-22 -4 -50.667 -6 -86 -6c-61.333 6.66699 -101 25 -119 55c-13.333 23.333 -20 44 -20 62c0 26 9.33301 46.333 28 61c19.333 15.333 40.666 23 63.999 23
c9.33301 0 23.666 -3 42.999 -9c34 -8 60 -27.667 78 -59c20 -4 35 -6 45 -6c16 0 35.667 4 59 12c35.333 15.333 56 40 62 74c0 40.667 -8.33301 72 -25 94c-27.333 41.333 -60 62 -98 62h-240l-43 108h238c9.33301 0 26.333 4 51 12c24.667 8.66699 41.667 19 51 31
c12.667 18 19 42.667 19 74c-6 40.667 -47.667 61 -125 61h-240zM94.002 1110v164h803v-164h-803zM496.002 614l328.999 310.001l74 -64l-334 -309c6.66699 -4 27.834 -23.167 63.501 -57.5s55.5 -58.166 59.5 -71.499c14 -34 21 -69 21 -105
c-4.66699 -44.667 -22.667 -79.334 -54 -104.001c-30 -23.333 -64 -37 -102 -41c-58.667 0 -103.667 10.333 -135 31c-37.333 23.333 -62 61.333 -74 114c-5.33301 16.667 -8 36 -8 58c0 32.667 8.66699 68 26 106c6 11.333 20.667 28.333 44 51
c20 23.333 37 38.666 51 45.999l-363 335l37 33zM436.001 422.001c-17.333 -30 -25.999 -57.334 -25.999 -82.001c0 -31.333 12 -53.333 36 -66c14 -8 30 -12 48 -12c21.333 0 44.333 7.66699 69 23c22 13.333 35.667 30.333 41 51c1.33301 20.667 2 32.334 2 35.001
c0 27.333 -6 52.333 -18 75c-10 22 -23 40 -39 54c-15.333 13.333 -24.333 20 -27 20l-39 -45c-24.667 -27.333 -40.334 -45 -47.001 -53z" />
    <glyph glyph-name="Ecircumflex" unicode="&#xca;" horiz-adv-x="1139" 
d="M104 -25l89 426h-170v148h198l76 364h-274v148h303l88 430h149l-86 -430h314l88 430h149l-86 -430h174v-148h-205l-73 -364h278v-148h-309l-86 -426h-152l88 426h-315l-86 -426h-152zM446 913l-73 -364h313l76 364h-316z" />
    <glyph glyph-name="Aacute" unicode="&#xc1;" horiz-adv-x="993" 
d="M518 1929c-26 -5.33301 -49 -8.00195 -69 -8.00195c-33.333 0 -70.333 6 -111 18c-18 7.33301 -40.667 21 -68 41c-26 18 -47.667 40.667 -65 68c-40 54.667 -60 105.334 -60 152c0 54 22 100.333 66 139c23.333 20.667 44.333 34.334 63 41.001c19.333 8 46 12 80 12
c61.333 0 116.666 -16.333 165.999 -49c74 -49.333 111 -111.333 111 -186v-668c0 -27.333 1.33301 -49.333 4 -66c2.66699 -9.33301 6 -16 10 -20c4 -5.33301 8 -8.66602 12 -9.99902c3.33301 0 10.333 -2.33301 21 -7v-43c-53.333 0 -91.666 7 -114.999 21
c-30 20.667 -45 61 -45 121v444zM457 2322c-11.333 3.33301 -22.333 5 -33 5c-36.667 0 -71.667 -13.667 -105 -41c-35.333 -28.667 -56.333 -61.667 -63 -99c-2.66699 -16 -4 -27 -4 -33c0 -28.667 6.66699 -55.667 20 -81c15.333 -27.333 32.666 -49.333 51.999 -66
c21.333 -16.667 43 -25 65 -25c42.667 7.33301 73.167 17.5 91.5 30.5s30.833 27.5 37.5 43.5c2.66699 11.333 7.33398 37.333 14.001 78v35c0 32.667 -6 64.667 -18 96c-9.33301 28.667 -28.333 47.667 -57 57zM94 1110v164h805v-164h-805zM496 613.998l328.999 310.001
l74 -64l-334 -309c6.66699 -4 27.834 -23.167 63.501 -57.5s55.5 -58.166 59.5 -71.499c14 -34 21 -69 21 -105c-4.66699 -44.667 -22.667 -79.334 -54 -104.001c-30 -23.333 -64 -37 -102 -41c-58.667 0 -103.667 10.333 -135 31c-37.333 23.333 -62 61.333 -74 114
c-5.33301 16.667 -8 36 -8 58c0 32.667 8.66699 68 26 106c6 11.333 20.667 28.333 44 51c20 23.333 37 38.666 51 45.999l-363 335l37 33zM435.999 421.999c-17.333 -30 -25.999 -57.334 -25.999 -82.001c0 -31.333 12 -53.333 36 -66c14 -8 30 -12 48 -12
c21.333 0 44.333 7.66699 69 23c22 13.333 35.667 30.333 41 51c1.33301 20.667 2 32.334 2 35.001c0 27.333 -6 52.333 -18 75c-10 22 -23 40 -39 54c-15.333 13.333 -24.333 20 -27 20l-39 -45c-24.667 -27.333 -40.334 -45 -47.001 -53z" />
    <glyph glyph-name="Edieresis" unicode="&#xcb;" horiz-adv-x="1139" 
d="M514 -211l0.000976562 180.006c-22 2.66699 -50.667 7.66699 -86 15c-36.667 6.66699 -75 18 -115 34c-54.667 27.333 -105 70.333 -151 129c-48 59.333 -76 145.666 -84 258.999l180 34c1.33301 -14.667 5.16602 -36.334 11.499 -65.001s16.166 -58.667 29.499 -90
c18 -38.667 44 -74.334 78 -107.001c32.667 -34 78.334 -53.667 137.001 -59v573c-27.333 4 -58.666 12.167 -93.999 24.5s-77 30.833 -125 55.5c-42.667 22 -76 48.667 -100 80c-26 31.333 -45.333 64 -58 98c-10.667 27.333 -18 54.666 -22 81.999c-4 26 -6 50 -6 72
c0 94 23 172.333 69 235c45.333 63.333 97.333 107 156 131c35.333 15.333 68.666 26.333 99.999 33c31.333 5.33301 58 8.66602 80 9.99902v89h107v-86c99.333 -11.333 185.333 -45 258 -101c70.667 -56 115 -144 133 -264l-187 -25c-8 56 -22.333 99.667 -43 131
c-21.333 32 -43.666 55.333 -66.999 70c-18 10.667 -35 19 -51 25c-18 4 -32.333 7.33301 -43 10v-520l59 -17c19.333 -5.33301 39 -11.333 59 -18c78 -24.667 149 -65 213 -121c63.333 -57.333 95 -148 95 -272v-2v-4c-2 -106.667 -38.333 -204.334 -109 -293.001
c-72.667 -90 -178.334 -138 -317.001 -144v-182h-107zM621.001 670.006l0.000976562 -548.999c12 0 25.667 2 41 6c13.333 4 26.666 9.33301 39.999 16c40 19.333 77 49.333 111 90c32.667 41.333 49 97.333 49 168c0 87.333 -23.833 148.166 -71.5 182.499
s-104.167 62.5 -169.5 84.5v2zM514.002 866.007l0.00195312 500.001c-70.667 -13.333 -124 -40.666 -160 -81.999c-35.333 -40.667 -56.333 -85 -63 -133v-16c-1.33301 -6 -2 -11.667 -2 -17c0 -14.667 1.33301 -29.667 4 -45
c1.33301 -14.667 4.66602 -30.334 9.99902 -47.001c12.667 -30 34.667 -59.333 66 -88s79.666 -53.334 144.999 -74.001v2z" />
    <glyph glyph-name="Egrave" unicode="&#xc8;" horiz-adv-x="569" 
d="M182 0v205h205v-205h-205zM229 365l-55 776v325h223v-325l-51 -776h-117z" />
    <glyph glyph-name="Iacute" unicode="&#xcd;" horiz-adv-x="961" 
d="M238 666h-185l355 800h145l354 -800h-182l-246 598z" />
    <glyph glyph-name="Icircumflex" unicode="&#xce;" horiz-adv-x="1366" 
d="M700 821l264.999 -336.002c1.33301 1.33301 2.66602 3.5 3.99902 6.5s2 5.16699 2 6.5c18.667 42 33.667 81.333 45 118l18 72l187 -37c-16.667 -65.333 -35.334 -123.333 -56.001 -174c-20 -52 -45 -100.333 -75 -145c30 -38.667 62 -75 96 -109
c34 -35.333 68 -66.666 102 -93.999c5.33301 -4 11 -7.33301 17 -10c4 -4 8.66699 -8.33301 14 -13l-121 -141c-16 11.333 -31.667 23 -47 35c-16.667 10.667 -32.334 22.334 -47.001 35.001c-31.333 28.667 -58.666 56 -81.999 82
c-23.333 24.667 -39.666 42.334 -48.999 53.001c-57.333 -64 -120.5 -112.5 -189.5 -145.5s-145.833 -49.5 -230.5 -49.5c-130 0 -231.667 33.667 -305 101c-75.333 66.667 -124 141 -146 223c-5.33301 18 -8.66602 35.667 -9.99902 53c-2.66699 16.667 -4 33 -4 49
c0 82 26 159.833 78 233.5s142 142.167 270 205.5c-57.333 66.667 -97.833 122.5 -121.5 167.5s-37.834 88.167 -42.501 129.5v12v12c0 86 34.333 162.667 103 230c66.667 65.333 154 98 262 98c102.667 0 185.334 -30.667 248.001 -92
c61.333 -62.667 92 -136.334 92 -221.001c0 -67.333 -22 -130.333 -66 -189c-43.333 -60 -113.666 -116 -210.999 -168v2zM859.999 314.998l-330.001 409.999c-62.667 -39.333 -119.5 -83.666 -170.5 -132.999s-76.5 -108.666 -76.5 -177.999c0 -15.333 2 -32.833 6 -52.5
s10.667 -39.834 20 -60.501c18 -40.667 47.333 -79 88 -115c40 -35.333 92.667 -53 158 -53h12c2.66699 0 6.33398 0.666992 11.001 2c56 4 109.667 24 161 60c50.667 34 91 73.333 121 118v2zM527.998 1030l80.001 -94.0029c1.33301 0 3.33301 0.666992 6 2
c1.33301 0 3.66602 0.666992 6.99902 2c42 26 81.333 56 118 90c36 32.667 54 79.667 54 141c0 53.333 -16 94.333 -48 123c-31.333 27.333 -65.333 43 -102 47h-8h-8h-13c-4 0 -8 -0.666992 -12 -2c-36.667 -5.33301 -70 -21.666 -100 -48.999s-45 -64 -45 -110
c0 -19.333 4.66699 -40.666 14 -63.999c8 -23.333 27 -52.666 57 -87.999v2z" />
    <glyph glyph-name="Idieresis" unicode="&#xcf;" horiz-adv-x="797" 
d="M68 1196l47.001 143c14.667 -6.66699 35 -14.667 61 -24l78 -31l49 -20l43 -25c-6.66699 56 -11.334 99 -14.001 129c-2.66699 28.667 -4.66699 55.334 -6 80.001v20v21l143 2c0 -26 -0.666992 -55.333 -2 -88c-2.66699 -32.667 -8 -79 -16 -139v-4
c-1.33301 -3.33301 -2 -6.33301 -2 -9c-2 -1.33301 -3 -2.66602 -3 -3.99902v-6l42.5 20.5c14.333 7 28.833 13.167 43.5 18.5l84 35c26 9.33301 48 16.666 66 21.999l47 -141c-6.66699 -4 -14 -6.66699 -22 -8l-27 -8c-14 -4 -29 -7.66699 -45 -11c-18 -4 -35 -8 -51 -12
c-18 -4 -36 -7.33301 -54 -10l-51 -8c10 -8.66699 21.667 -19.667 35 -33l43 -47l4 -4l4 -4c20.667 -24.667 40 -46.667 58 -66c17.333 -20.667 27.333 -32.334 30 -35.001l-121 -84c-12 15.333 -22.833 30.166 -32.5 44.499l-28.5 41.5c-2.66699 6 -5.33398 11 -8.00098 15
l-8 12c-10 14.667 -19.667 30.334 -29 47.001l-31 53c-20 -38 -37.167 -69.333 -51.5 -94l-40.5 -67c-4 -4.66699 -7.33301 -9 -10 -13c-2.66699 -5.33301 -6 -10 -10 -14c-2.66699 -4 -5.66699 -8 -9 -12l-10 -15l-117 88l84 101c24.667 27.333 42.667 46.333 54 57
c9.33301 10.667 18 19.667 26 27v0v0l2 2v0l-41 8l-41 8c-25.333 5.33301 -51.666 11.5 -78.999 18.5l-84 20.5v2z" />
    <glyph glyph-name="Igrave" unicode="&#xcc;" horiz-adv-x="1821" 
d="M1053 344c0 6.66699 0.668945 14.333 2.00195 23v26c6.66699 80.667 34 155 82 223c47.333 68.667 121.666 103 222.999 103c16 0 33 -1.33301 51 -4c16.667 -2.66699 33.667 -7 51 -13c54.667 -17.333 104.667 -54 150 -110c43.333 -57.333 65 -144.666 65 -261.999
c0 -113.333 -21.667 -198 -65 -254c-45.333 -57.333 -95.333 -95 -150 -113c-16 -6.66699 -33 -11.334 -51 -14.001s-34.333 -4 -49 -4c-18 0 -37.833 2 -59.5 6s-44.834 11.333 -69.501 22c-45.333 19.333 -86.333 57 -123 113c-38 56 -57 141.333 -57 256v2zM1364 597.999
c-48 -1.33301 -82.001 -17.6689 -102.001 -49.002c-22 -31.333 -37 -65.666 -45 -102.999c-4.66699 -22.667 -7 -45 -7 -67c-1.33301 -23.333 -2 -41.666 -2 -54.999c0 -11.333 0.666992 -28 2 -50c0 -22.667 3.66699 -47 11 -73c8 -32.667 23 -62.667 45 -90
c20 -28.667 52.667 -43 98 -43c49.333 0 84.666 15.667 105.999 47c20.667 30 35 64 43 102c4.66699 23.333 7.66699 46 9 68v53v51c-1.33301 23.333 -5.66602 47.333 -12.999 72c-8 34 -23 65.333 -45 94c-21.333 27.333 -54.666 41 -99.999 41v2zM438.001 -51.0039
l801 1542h145l-796 -1542h-150zM150.001 1112c0 6.66699 0.666992 14.332 2 22.999v26c6.66699 80.667 33.667 155 81 223c48 68.667 122.667 103 224 103c16 0 33 -1.33301 51 -4c16 -2.66699 33 -7 51 -13c54.667 -17.333 104.667 -54 150 -110
c43.333 -57.333 65 -144.666 65 -261.999c0 -113.333 -21.667 -198.666 -65 -255.999c-45.333 -57.333 -95.333 -95 -150 -113c-16 -6.66699 -33 -11.334 -51 -14.001s-34.333 -4 -49 -4c-18 0 -38 2 -60 6c-21.333 4 -44.333 11.333 -69 22
c-45.333 20.667 -86.333 59 -123 115c-38 56 -57 141.333 -57 256v2zM461.001 1365.99c-48 -1.33301 -82.499 -17.6689 -103.499 -49.002s-35.833 -65.666 -44.5 -102.999c-4 -22.667 -6 -45 -6 -67c-1.33301 -23.333 -2 -41.666 -2 -54.999c0 -11.333 0.666992 -28 2 -50
c0 -22.667 3.33301 -47 10 -73c8.66699 -32.667 23.667 -62.667 45 -90c20.667 -28.667 53.667 -43 99 -43c49.333 0 84.666 15.667 105.999 47c20.667 30 35 64 43 102c4 23.333 6.66699 46 8 68v53v51c-1.33301 23.333 -5.33301 47.333 -12 72c-8 34 -23 65.333 -45 94
c-22 27.333 -55.333 41 -100 41v2z" />
    <glyph glyph-name="Ocircumflex" unicode="&#xd4;" horiz-adv-x="1513" 
d="M289 975c-16.667 10.667 -51.001 38.666 -103.001 83.999c-42 34 -66.333 65.333 -73 94c-16.667 46.667 -25 85 -25 115c0 56 26 101.667 78 137c39.333 24.667 82.333 37 129 37c30 0 65.333 -5 106 -15c96 -21.333 168.333 -79.333 217 -174
c29.333 -57.333 44 -114 44 -170c-6 -80 -45 -142 -117 -186c74.667 -45.333 149 -68 223 -68c122.667 0 223 41 301 123v-143c-76.667 -52 -158 -78.667 -244 -80c-136 0 -248.667 44.333 -338 133c-88.667 0 -163 -27.333 -223 -82c-69.333 -60 -104 -129.667 -104 -209
c0 -28.667 4 -52.334 12 -71.001c24.667 -83.333 86.667 -128.333 186 -135c57.333 0 103.333 10 138 30c0 70 30 119.333 90 148c24.667 10.667 48.334 16 71.001 16c50.667 0 90.334 -19.667 119.001 -59c16.667 -22 25 -49.333 25 -82
c0 -35.333 -11 -71.666 -33 -108.999c-32.667 -56 -80.334 -86.667 -143.001 -92l69 -190l-61 -27l-94 213c-120.667 0 -224.667 36.333 -312 109c-51.333 43.333 -90.666 93 -117.999 149c-24.667 56 -37 124.333 -37 205c13.333 140.667 85.666 240.334 216.999 299.001z
M470.999 1346c-22 12 -49.332 18 -81.999 18c-72 0 -123 -27.333 -153 -82c-14 -22 -21 -48.667 -21 -80c0 -34 9.66699 -67.333 29 -100c17.333 -30 41.666 -52.667 72.999 -68c30 -6.66699 50.667 -10 62 -10c68 0 118.333 29.333 151 88c14 23.333 21 51.333 21 84
c0 66.667 -26.667 116.667 -80 150zM819 1296l-90 138h789v-138h-285v-1296l-164 158v1138h-250z" />
    <glyph glyph-name="Ograve" unicode="&#xd2;" 
d="M-616 -401l94.001 -123.001c-46.667 -31.333 -119 -47 -217 -47c-71.333 12 -130 42 -176 90c-48 50 -72 108 -72 174c2.66699 69.333 36 124 100 164c67.333 38 150.666 57 249.999 57c83.333 -10.667 153 -30.334 209 -59.001c61.333 -34.667 125.333 -82 192 -142
c89.333 -79.333 158.333 -174 207 -284h-57c-58.667 102 -144 190 -256 264c-60 40.667 -112.667 71.334 -158 92.001c-36.667 18 -85 27 -145 27c-182 0 -275.667 -43 -281 -129c0 -30 19.167 -58.667 57.5 -86s74.5 -41.666 108.5 -42.999c57.333 0 105.333 15 144 45z
" />
    <glyph glyph-name="Uacute" unicode="&#xda;" horiz-adv-x="2" 
d="M-346 -262l-97.998 143.001c47.333 37.333 120.333 57.333 219 60c66.667 -15.333 125.334 -50.333 176.001 -105c49.333 -60 74 -127.667 74 -203c0 -84.667 -32.333 -149.334 -97 -194.001c-68 -48 -151.333 -72 -250 -72c-82.667 11.333 -152 33.333 -208 66
c-60.667 36.667 -126.334 91.334 -197.001 164.001c-92.667 98 -162.334 209 -209.001 333h53c61.333 -120 148.666 -222.333 261.999 -307c70 -52 122.667 -86.667 158 -104c42.667 -20.667 92.667 -31 150 -31c180 1.33301 272.667 53.333 278 156
c0 35.333 -19.667 68.666 -59 99.999c-40 30 -76.333 46.333 -109 49c-56 0 -103.667 -18.333 -143 -55z" />
    <glyph glyph-name="Ucircumflex" unicode="&#xdb;" horiz-adv-x="1706" 
d="M0 1296l0.000976562 138h1204v-138h-301v-1296l-151 158v428c-54.667 -32.667 -129.334 -49 -224.001 -49c-103.333 10.667 -194 63.667 -272 159c-69.333 86 -104 176.333 -104 271v329h-152zM303.001 881c0 -71.333 20.666 -128 61.999 -170
c39.333 -44 79.333 -66 120 -66c38.667 0 88 20 148 60c54.667 34 94.334 77 119.001 129v462h-449v-415zM874 688v209.001c66 57.333 137 88 213 92c96 0 183 -26.667 261 -80c92.667 -64 152 -149.333 178 -256c9.33301 -35.333 14 -71.333 14 -108
c0 -41.333 -11 -103 -33 -185c-13.333 -57.333 -42 -118 -86 -182l-174 123c66 53.333 111.667 124.333 137 213c19.333 66.667 29 113 29 139c0 36 -9.66699 67.667 -29 95c-34 55.333 -96.667 84 -188 86c-39.333 0 -98 -16 -176 -48
c-48 -22.667 -96.667 -55.334 -146 -98.001zM874 1296v138h832v-138h-832z" />
    <glyph glyph-name="Ugrave" unicode="&#xd9;" horiz-adv-x="1147" 
d="M0 1296v138.004h1147v-138h-279v-352h-432c-50.667 0 -88.667 -2 -114 -6c-67.333 -19.333 -105.666 -49.333 -114.999 -90c0 -41.333 6.66699 -78.333 20 -111c12.667 -36.667 36.667 -70 72 -100c54.667 32.667 100.334 55.334 137.001 68.001
c67.333 21.333 126.666 32 177.999 32c76.667 -2.66699 144.334 -27.667 203.001 -75c62.667 -50.667 98.334 -114.334 107.001 -191.001c0 -84.667 -14.333 -151 -43 -199c-23.333 -40.667 -53.333 -74 -90 -100l-103 117c44 16 80.333 46.667 109 92
c22.667 45.333 34 80.666 34 105.999c0 41.333 -19.667 77.666 -59 108.999c-18 18 -43.333 27 -76 27c-17.333 0 -60.333 -9 -129 -27c-99.333 -23.333 -174.333 -71 -225 -143c-45.333 -63.333 -68 -130.333 -68 -201c0 -52 13 -102.667 39 -152
c31.333 -62.667 73 -111 125 -145c50.667 -38 119 -71.333 205 -100l248 -91v-51l-338 84c-71.333 16.667 -141.666 51 -210.999 103c-66.667 48.667 -119.334 108.667 -158.001 180c-40.667 69.333 -61 142.333 -61 219c0 36.667 4 68.667 12 96
c15.333 68.667 49.666 135.667 102.999 201c-49.333 44 -83 91.667 -101 143c-20.667 57.333 -31 104.666 -31 141.999c0 31.333 7.66699 62 23 92c19.333 39.333 48.666 68.666 87.999 87.999c31.333 17.333 82.666 26 153.999 26h331v209h-702z" />
    <glyph glyph-name="circumflex" unicode="&#x2c6;" 
 />
    <glyph glyph-name="tilde" unicode="&#x2dc;" horiz-adv-x="682" 
d="M545 1468l131.003 -0.00292969c-2.66699 -64 -14.334 -111.667 -35.001 -143c-22 -31.333 -45.333 -53 -70 -65c-17.333 -11.333 -34.333 -17.666 -51 -18.999c-17.333 -2.66699 -31 -4 -41 -4c-17.333 0 -38.333 3.33301 -63 10s-52.667 19 -84 37l-37 23
c-22 10.667 -38.333 17.334 -49 20.001c-12.667 2.66699 -23 4 -31 4h-12c-8.66699 -1.33301 -17 -4.66602 -25 -9.99902c-10.667 -5.33301 -19.334 -14.333 -26.001 -27c-8.66699 -13.333 -13 -33 -13 -59l-133 2v8c0 71.333 20 124.666 60 159.999
c39.333 36.667 83.666 56.334 132.999 59.001h6h4h14c4 0 8.33301 -0.666992 13 -2c14.667 -1.33301 31 -4.66602 49 -9.99902c16 -6.66699 37.667 -16.334 65 -29.001c37.333 -17.333 63.333 -28 78 -32c14 -6 25.667 -9.66699 35 -11h6h4c20.667 0 37 6.33301 49 19
c11.333 10.667 19 33 23 67v2z" />
    <glyph glyph-name="glyph1" 
 />
    <glyph glyph-name="glyph2" 
 />
    <glyph glyph-name="fraction" horiz-adv-x="410" 
d="M-307 -61l1024 1556h143l-1024 -1556h-143z" />
    <glyph glyph-name="onehalf" horiz-adv-x="1888" 
d="M373 942c-26 -5.33301 -49.332 -8.00293 -69.999 -8.00293c-32.667 0 -69.334 6 -110.001 18c-18 7.33301 -40.667 21 -68 41c-26 18 -48 40.667 -66 68c-39.333 54.667 -59 105 -59 151c0 54.667 22 101.334 66 140.001c22.667 20 43.667 33.667 63 41
c19.333 8 46 12 80 12c61.333 0 116.666 -16.333 165.999 -49c73.333 -49.333 110 -111.666 110 -186.999v-667c0 -27.333 1.33301 -49.333 4 -66c3.33301 -9.33301 7 -16 11 -20c4 -5.33301 8 -8.66602 12 -9.99902c2.66699 0 9.33398 -2.33301 20.001 -7v-43
c-52.667 0 -90.667 7 -114 21c-30 20.667 -45 61 -45 121v444zM311.001 1335c-10.667 2.66699 -21.333 4.00195 -32 4.00195c-37.333 0 -72.333 -13.667 -105 -41c-35.333 -28.667 -56.333 -61.334 -63 -98.001c-3.33301 -16 -5 -27 -5 -33c0 -28.667 7 -56 21 -82
c15.333 -27.333 32.333 -49 51 -65c22 -16.667 44 -25 66 -25c42 7.33301 72.667 17.666 92 30.999c17.333 12 29.666 26.333 36.999 43c2.66699 10.667 7.33398 36.667 14.001 78v35c0 32.667 -6 64.667 -18 96c-10 28.667 -29.333 47.667 -58 57zM393.002 -61.001
l1024 1556h144l-1024 -1556h-144zM1274 787.999l-69.9961 101.003c71.333 38 152 57 242 57c32.667 0 75 -5.33301 127 -16c48 -12.667 87.667 -32.667 119 -60c35.333 -30 62 -62.667 80 -98c14.667 -36.667 22 -80.334 22 -131.001
c-2.66699 -35.333 -9.33398 -66 -20.001 -92c-12.667 -24.667 -33.334 -53.334 -62.001 -86.001c-35.333 -42.667 -82.333 -76.334 -141 -101.001l260 -421l-45 -27l-262 434c-19.333 -2.66699 -33 -4 -41 -4c-26 0 -50.667 5.33301 -74 16
c-26 11.333 -45 21.666 -57 30.999c-15.333 10 -25 24.333 -29 43c-5.33301 22 -8 37.667 -8 47c0 32.667 12.333 55.334 37 68.001c13.333 6.66699 26.333 10 39 10c17.333 0 38.333 -5.33301 63 -16c19.333 -10 36.333 -24.333 51 -43
c15.333 -19.333 23.666 -33.666 24.999 -42.999c17.333 5.33301 39 14.666 65 27.999c23.333 14 44.666 29.667 63.999 47c31.333 28.667 53 54.667 65 78c14 20.667 21 46.667 21 78c0 36.667 -8.33301 66.667 -25 90c-16 24.667 -44 46.667 -84 66
c-16 8 -41.667 12 -77 12c-38.667 0 -75 -3.33301 -109 -10c-52 -6.66699 -110.667 -26 -176 -58z" />
    <glyph glyph-name="threequarters" horiz-adv-x="2087" 
d="M143 1288l-49 109.002h197c54.667 0 103 -9.66699 145 -29c44 -20.667 78.333 -51.334 103 -92.001c20 -36.667 30 -75 30 -115c0 -13.333 -11.333 -35 -34 -65c-12.667 -18 -25.667 -31.667 -39 -41c31.333 -26 55 -54.667 71 -86c26 -52 39 -94.333 39 -127
c0 -42.667 -12.333 -81 -37 -115c-28.667 -38 -66 -63.333 -112 -76l135 -264l-43 -18l-148 270c-21.333 -4 -50 -6 -86 -6c-61.333 6.66699 -100.666 25 -117.999 55c-14 23.333 -21 44 -21 62c0 25.333 9.5 45.666 28.5 60.999s40.167 23 63.5 23c10 0 24.333 -3 43 -9
c34 -8 60 -27.667 78 -59c20.667 -4 35.667 -6 45 -6c16.667 0 36.667 4 60 12c35.333 15.333 55.666 40 60.999 74c0 40.667 -8.33301 72 -25 94c-27.333 40.667 -60 61 -98 61h-239l-43 109h237c9.33301 0 26.333 4 51 12c24.667 8.66699 41.667 19 51 31
c12.667 18 19 42.667 19 74c-5.33301 40.667 -47 61 -125 61h-240zM377 -60.998l1024 1556h143l-1024 -1556h-143zM1589 614.002l330.001 310.002l74 -64l-334 -309c6.66699 -4 27.667 -23 63 -57c36 -34.667 56 -58.667 60 -72c13.333 -34 20 -69 20 -105
c-4 -44.667 -21.667 -79.334 -53 -104.001c-30 -23.333 -64 -37 -102 -41c-58.667 0 -104 10.333 -136 31c-36.667 23.333 -61 61.333 -73 114c-5.33301 16.667 -8 36 -8 58c0 32.667 8.66699 68 26 106c5.33301 11.333 19.666 28.333 42.999 51
c20.667 23.333 37.667 38.666 51 45.999l-362 335l37 33zM1530 422.004c-18 -30 -26.998 -57.334 -26.998 -82.001c0 -31.333 12.333 -53.333 37 -66c14 -8 29.667 -12 47 -12c22 0 45.333 7.66699 70 23c22 13.333 35.667 30.333 41 51c1.33301 20.667 2 32.334 2 35.001
c0 27.333 -6.33301 52.333 -19 75c-9.33301 22 -22.333 40 -39 54c-14.667 13.333 -23.334 20 -26.001 20l-39 -45c-24.667 -27.333 -40.334 -45 -47.001 -53z" />
    <glyph glyph-name="onequarter" horiz-adv-x="2103" 
d="M373 942c-26 -5.33301 -49.332 -8.00293 -69.999 -8.00293c-32.667 0 -69.334 6 -110.001 18c-18 7.33301 -40.667 21 -68 41c-26 18 -48 40.667 -66 68c-39.333 54.667 -59 105 -59 151c0 54.667 22 101.334 66 140.001c22.667 20 43.667 33.667 63 41
c19.333 8 46 12 80 12c61.333 0 116.666 -16.333 165.999 -49c73.333 -49.333 110 -111.666 110 -186.999v-667c0 -27.333 1.33301 -49.333 4 -66c3.33301 -9.33301 7 -16 11 -20c4 -5.33301 8 -8.66602 12 -9.99902c2.66699 0 9.33398 -2.33301 20.001 -7v-43
c-52.667 0 -90.667 7 -114 21c-30 20.667 -45 61 -45 121v444zM311.001 1335c-10.667 2.66699 -21.333 4.00195 -32 4.00195c-37.333 0 -72.333 -13.667 -105 -41c-35.333 -28.667 -56.333 -61.334 -63 -98.001c-3.33301 -16 -5 -27 -5 -33c0 -28.667 7 -56 21 -82
c15.333 -27.333 32.333 -49 51 -65c22 -16.667 44 -25 66 -25c42 7.33301 72.667 17.666 92 30.999c17.333 12 29.666 26.333 36.999 43c2.66699 10.667 7.33398 36.667 14.001 78v35c0 32.667 -6 64.667 -18 96c-10 28.667 -29.333 47.667 -58 57zM393.002 -61.001
l1024 1556h144l-1024 -1556h-144zM1606 613.999l329.003 310.001l74 -64l-334 -309c7.33301 -4 28.666 -23.167 63.999 -57.5s55 -58.166 59 -71.499c14 -34 21 -69 21 -105c-4.66699 -44.667 -22.667 -79.334 -54 -104.001c-30 -23.333 -64 -37 -102 -41
c-58.667 0 -103.667 10.333 -135 31c-36.667 23.333 -61.334 61.333 -74.001 114c-5.33301 16.667 -8 36 -8 58c0 32.667 9 68 27 106c5.33301 11.333 19.666 28.333 42.999 51c20 23.333 37 38.666 51 45.999l-363 335l37 33zM1546 422
c-17.333 -30 -25.999 -57.334 -25.999 -82.001c0 -31.333 12 -53.333 36 -66c14 -8 30 -12 48 -12c21.333 0 44.333 7.66699 69 23c22 13.333 35.667 30.333 41 51c1.33301 20.667 2 32.334 2 35.001c0 27.333 -6 52.333 -18 75c-10 22 -23 40 -39 54
c-15.333 13.333 -24.333 20 -27 20l-39 -45c-24.667 -27.333 -40.334 -45 -47.001 -53z" />
    <glyph glyph-name="emdash" horiz-adv-x="1024" 
d="M0 451v163h1024v-163h-1024z" />
    <glyph glyph-name="scaron" horiz-adv-x="682" 
d="M66 440v181h550v-181h-550z" />
    <glyph glyph-name="Scaron" horiz-adv-x="1440" 
d="M981 1296h-981.002v138h1440v-138h-310v-436l-468 2c-67.333 0 -110.666 -5.33301 -129.999 -16c-35.333 -20.667 -55 -45.334 -59 -74.001c0 -49.333 18.333 -87.666 55 -114.999c16.667 -12 36.667 -18 60 -18c9.33301 0 24.333 2 45 6c12 1.33301 29.667 2 53 2
c32.667 5.33301 56.667 8.66602 72 9.99902c31.333 6 58 9 80 9c28.667 0 60 -6.33301 94 -19c70.667 -24.667 132 -73 184 -145c45.333 -68.667 68 -142.334 68 -221.001c-5.33301 -58.667 -36 -118.334 -92 -179.001c-58.667 -60 -136.667 -94 -234 -102
c-60 0 -112 7.66699 -156 23c-47.333 16 -95 39 -143 69c-80.667 49.333 -154.334 110 -221.001 182c-42.667 50.667 -85.667 112.334 -129 185.001c-1.33301 5.33301 -13 25 -35 59c-16 26 -33 56 -51 90l61 35c40 -75.333 86.667 -145.666 140 -210.999
c40.667 -48 83.667 -91.667 129 -131c61.333 -52 115 -89.667 161 -113c40 -16 90.667 -24 152 -24c74 4 138 30.667 192 80c45.333 38 70.666 71.333 75.999 100c8.66699 30 13 54 13 72c0 23.333 -5.66699 43 -17 59c-17.333 24.667 -46 40.334 -86 47.001
c-17.333 0 -31.666 -2 -42.999 -6c-16 -2.66699 -32.333 -7.33398 -49 -14.001c-6.66699 -2.66699 -13.667 -4.66699 -21 -6c-5.33301 -2.66699 -10.666 -5 -15.999 -7c-1.33301 0 -21.666 -6 -60.999 -18c-32.667 -12 -54.667 -18 -66 -18c-38 0 -79 12 -123 36
c-22 12.667 -47.333 38 -76 76c-46 54.667 -86.667 128.334 -122 221.001c0 1.33301 -2.5 6.83301 -7.5 16.5s-9.5 19.167 -13.5 28.5c-10.667 28.667 -16 52 -16 70c2.66699 49.333 34 88.333 94 117c22 9.33301 46 14 72 14h43c12 -1.33301 26.333 -2 43 -2h399v266z" />
    <glyph glyph-name="u009D" horiz-adv-x="702" 
d="M193 1577c78.667 -79.333 147.334 -164.669 206.001 -256.002c54.667 -87.333 93 -178.666 115 -273.999c24.667 -97.333 37 -207.333 37 -330c0 -123.333 -12.333 -233.333 -37 -330c-22 -95.333 -60.333 -186.666 -115 -273.999
c-58.667 -93.333 -127.334 -178.666 -206.001 -255.999c95.333 143.333 162 279.666 200 408.999c38.667 124.667 58 275 58 451s-19.333 326.667 -58 452c-38 130 -104.667 266 -200 408z" />
    <glyph glyph-name="Eth" horiz-adv-x="532" 
d="M188 1536h156v-2048h-156v2048z" />
  </font>
</defs>
</svg>
